<svg xmlns="http://www.w3.org/2000/svg" width="1380" height="1720">
<rect width="1380" height="1720" fill="#1a1a2e"/>
<text x="350" y="30" text-anchor="middle" font-size="20" fill="#ffffff" font-family="monospace" font-weight="bold">STANDING</text>
<text x="350" y="52" text-anchor="middle" font-size="12" fill="#888888" font-family="monospace">Lines fan outward</text>
<text x="1030" y="30" text-anchor="middle" font-size="20" fill="#ffffff" font-family="monospace" font-weight="bold">RUKŪʿ</text>
<text x="1030" y="52" text-anchor="middle" font-size="12" fill="#888888" font-family="monospace">ALL lines align vertically</text>
<rect x="50" y="65" width="600" height="1600" fill="#222244" rx="8"/>
<rect x="730" y="65" width="600" height="1600" fill="#223322" rx="8"/>
<line x1="70" y1="640" x2="630" y2="640" stroke="#ffffff" stroke-width="1" stroke-dasharray="6,4" opacity="0.5"/>
<text x="550" y="634" fill="#ffffff" font-size="9" font-family="monospace" opacity="0.7">← FOLD LINE (hip) →</text>
<line x1="750" y1="640" x2="1310" y2="640" stroke="#ffffff" stroke-width="1" stroke-dasharray="6,4" opacity="0.5"/>
<text x="1230" y="634" fill="#ffffff" font-size="9" font-family="monospace" opacity="0.7">← FOLD LINE (hip) →</text>
<circle cx="350" cy="640" r="6" fill="none" stroke="#ffffff" stroke-width="2"/>
<circle cx="1030" cy="640" r="6" fill="none" stroke="#ffffff" stroke-width="2"/>
<polyline points="559.7,310.0 555.7,310.1 551.7,310.3 547.7,310.4 543.7,310.6 539.7,310.8 535.7,310.9 531.7,311.0 527.7,311.2 523.7,311.4 519.7,311.5 515.7,311.6 511.8,311.8 507.8,311.9 503.8,312.1 499.8,312.3 495.8,312.4 491.8,312.5 487.8,312.7 483.9,312.8 479.9,313.0 475.9,313.2 471.9,313.3 468.0,313.4 464.0,313.6 460.0,313.8 456.0,313.9 452.1,314.0 448.1,314.2 444.1,314.3 440.2,314.5 436.2,314.7 432.2,314.8 428.3,314.9 424.3,315.1 420.3,315.2 416.4,315.4 412.4,315.5 408.5,315.7 404.5,315.8 400.5,316.0 396.6,316.2 392.6,316.3 388.7,316.4 384.7,316.6 380.8,316.7 376.8,316.9 372.9,317.1 368.9,317.2 365.0,317.3 361.0,317.5 357.1,317.6 353.2,317.8 349.2,317.9 345.3,318.1 341.3,318.2 337.4,318.4 333.5,318.6 329.5,318.7 325.6,318.8 321.7,319.0 317.7,319.1 313.8,319.3 309.9,319.5 305.9,319.6 302.0,319.7 298.1,319.9 294.2,320.1 290.2,320.2 286.3,320.3 282.4,320.5 278.5,320.6 274.6,320.8 270.7,321.0 266.7,321.1 262.8,321.2 258.9,321.4 255.0,321.5 251.1,321.7 247.2,321.8 243.3,322.0 239.4,322.1 235.5,322.3 231.5,322.4 227.6,322.6 223.7,322.7 219.8,322.9 215.9,323.0 212.0,323.2 208.1,323.4 204.2,323.5 200.3,323.6 196.4,323.8 192.6,323.9 188.7,324.1 184.8,324.2 180.9,324.4 177.0,324.5 173.1,324.7 169.2,324.9 165.3,325.0 165.3,325.1 165.4,325.3 165.4,325.4 165.4,325.6 165.4,325.8 165.4,325.9 165.4,326.0 165.5,326.2 165.5,326.3 165.5,326.5 165.5,326.6 165.5,326.8 165.5,326.9 165.5,327.1 165.6,327.2 165.6,327.4 165.6,327.5 165.6,327.7 165.6,327.8 165.6,328.0 165.6,328.2 165.7,328.3 165.7,328.4 165.7,328.6 165.7,328.8 165.7,328.9 165.7,329.0 165.7,329.2 165.8,329.3 165.8,329.5 165.8,329.7 165.8,329.8 165.8,329.9 165.8,330.1 165.8,330.2 165.9,330.4 165.9,330.5 165.9,330.7 165.9,330.8 165.9,331.0 165.9,331.1 166.0,331.3 166.0,331.4 166.0,331.6 166.0,331.7 166.0,331.9 166.0,332.1 166.0,332.2 166.1,332.3 166.1,332.5 166.1,332.6 166.1,332.8 166.1,332.9 166.1,333.1 166.1,333.2 166.2,333.4 166.2,333.5 166.2,333.7 166.2,333.8 166.2,334.0 166.2,334.1 166.2,334.3 166.3,334.4 166.3,334.6 166.3,334.7 166.3,334.9 166.3,335.0 166.3,335.2 166.3,335.3 166.4,335.5 166.4,335.6 166.4,335.8 166.4,335.9 166.4,336.1 166.4,336.2 166.5,336.4 166.5,336.5 166.5,336.7 166.5,336.8 166.5,337.0 166.5,337.1 166.5,337.3 166.6,337.4 166.6,337.6 166.6,337.7 166.6,337.9 166.6,338.0 166.6,338.2 166.6,338.3 166.7,338.5 166.7,338.6 166.7,338.8 166.7,338.9 166.7,339.1 166.7,339.2 166.7,339.4 166.8,339.5 166.8,339.7 166.8,339.8 166.8,340.0" fill="none" stroke="#aaaaaa" stroke-width="1.5" stroke-linecap="round"/>
<text x="564.7013096271187" y="306.0" font-size="10" fill="#aaaaaa" font-family="monospace" font-weight="bold">T11</text>
<polyline points="545.6,358.0 541.8,358.1 538.1,358.3 534.3,358.5 530.5,358.6 526.8,358.8 523.0,358.9 519.3,359.0 515.5,359.2 511.8,359.4 508.0,359.5 504.2,359.6 500.5,359.8 496.7,359.9 492.9,360.1 489.1,360.3 485.4,360.4 481.6,360.5 477.8,360.7 474.0,360.9 470.2,361.0 466.5,361.2 462.7,361.3 458.9,361.4 455.1,361.6 451.3,361.8 447.5,361.9 443.7,362.0 439.9,362.2 436.2,362.4 432.4,362.5 428.6,362.7 424.8,362.8 421.0,362.9 417.2,363.1 413.4,363.3 409.6,363.4 405.9,363.5 402.1,363.7 398.3,363.8 394.5,364.0 390.7,364.2 386.9,364.3 383.2,364.4 379.4,364.6 375.6,364.8 371.8,364.9 368.1,365.1 364.3,365.2 360.5,365.3 356.8,365.5 353.0,365.7 349.2,365.8 345.5,365.9 341.7,366.1 338.0,366.2 334.2,366.4 330.4,366.6 326.7,366.7 322.9,366.8 319.2,367.0 315.4,367.2 311.6,367.3 307.9,367.5 304.1,367.6 300.4,367.7 296.6,367.9 292.9,368.1 289.1,368.2 285.3,368.3 281.6,368.5 277.8,368.6 274.1,368.8 270.3,369.0 266.6,369.1 262.8,369.2 259.1,369.4 255.3,369.6 251.6,369.7 247.8,369.8 244.1,370.0 240.3,370.1 236.6,370.3 232.8,370.5 229.1,370.6 225.3,370.7 221.6,370.9 217.8,371.0 214.1,371.2 210.3,371.4 206.6,371.5 202.8,371.6 199.1,371.8 195.4,371.9 191.6,372.1 187.9,372.2 184.1,372.4 180.4,372.5 176.6,372.7 172.9,372.9 169.2,373.0 169.2,373.1 169.2,373.3 169.2,373.4 169.2,373.6 169.2,373.8 169.2,373.9 169.2,374.0 169.2,374.2 169.2,374.4 169.2,374.5 169.2,374.6 169.2,374.8 169.2,374.9 169.2,375.1 169.3,375.3 169.3,375.4 169.3,375.5 169.3,375.7 169.3,375.8 169.3,376.0 169.3,376.2 169.3,376.3 169.3,376.4 169.3,376.6 169.3,376.8 169.3,376.9 169.3,377.0 169.3,377.2 169.3,377.3 169.3,377.5 169.3,377.7 169.4,377.8 169.4,377.9 169.4,378.1 169.4,378.2 169.4,378.4 169.4,378.5 169.4,378.7 169.4,378.8 169.4,379.0 169.4,379.2 169.4,379.3 169.4,379.4 169.4,379.6 169.4,379.7 169.4,379.9 169.4,380.1 169.4,380.2 169.5,380.3 169.5,380.5 169.5,380.6 169.5,380.8 169.5,380.9 169.5,381.1 169.5,381.2 169.5,381.4 169.5,381.6 169.5,381.7 169.5,381.8 169.5,382.0 169.5,382.1 169.5,382.3 169.5,382.5 169.5,382.6 169.5,382.7 169.6,382.9 169.6,383.1 169.6,383.2 169.6,383.3 169.6,383.5 169.6,383.6 169.6,383.8 169.6,384.0 169.6,384.1 169.6,384.2 169.6,384.4 169.6,384.5 169.6,384.7 169.6,384.8 169.6,385.0 169.6,385.1 169.6,385.3 169.7,385.4 169.7,385.6 169.7,385.7 169.7,385.9 169.7,386.0 169.7,386.2 169.7,386.4 169.7,386.5 169.7,386.6 169.7,386.8 169.7,386.9 169.7,387.1 169.7,387.2 169.7,387.4 169.7,387.5 169.7,387.7 169.7,387.9 169.8,388.0" fill="none" stroke="#888888" stroke-width="1.5" stroke-linecap="round"/>
<text x="550.5641426859647" y="354.0" font-size="10" fill="#888888" font-family="monospace" font-weight="bold">T12</text>
<polyline points="551.2,406.0 550.7,407.3 550.3,408.6 549.8,409.9 549.3,411.2 548.8,412.4 548.3,413.7 547.7,415.0 547.2,416.3 546.7,417.6 546.1,418.9 545.6,420.2 545.0,421.5 544.4,422.8 543.8,424.1 543.2,425.4 542.6,426.6 542.0,427.9 541.4,429.2 540.7,430.5 540.1,431.8 539.4,433.1 538.7,434.4 538.0,435.7 537.3,437.0 536.6,438.2 535.9,439.5 535.2,440.8 534.4,442.1 532.9,443.4 531.4,444.7 529.9,446.0 528.3,447.3 526.7,448.6 525.1,449.9 523.5,451.2 521.8,452.4 520.2,453.7 518.5,455.0 516.8,456.3 515.0,457.6 513.3,458.9 511.6,460.2 510.3,461.5 509.0,462.8 507.6,464.0 506.2,465.3 504.8,466.6 503.3,467.9 501.8,469.2 500.3,470.5 498.7,471.8 497.1,473.1 495.5,474.4 493.8,475.7 492.1,477.0 490.4,478.2 488.6,479.5 486.8,480.8 483.2,482.1 479.6,483.4 476.0,484.7 472.3,486.0 468.6,487.3 464.8,488.6 461.1,489.9 457.3,491.1 453.6,492.4 449.8,493.7 446.0,495.0 442.3,496.3 438.5,497.6 434.8,498.9 431.1,500.2 427.4,501.5 423.7,502.8 420.0,504.0 416.4,505.3 412.7,506.6 409.2,507.9 405.6,509.2 402.1,510.5 398.6,511.8 395.2,513.1 391.7,514.4 388.1,515.7 384.5,516.9 380.1,518.2 375.8,519.5 371.5,520.8 367.4,522.1 363.3,523.4 359.3,524.7 355.3,526.0 351.3,527.3 347.3,528.6 343.4,529.8 339.4,531.1 335.4,532.4 331.5,533.7 327.6,535.0 323.6,536.3 319.7,537.6 315.8,538.9 311.9,540.2 308.0,541.5 304.2,542.7 300.3,544.0 296.4,545.3 292.6,546.6 288.7,547.9 284.9,549.2 281.1,550.5 277.2,551.8 273.4,553.1 270.0,554.4 266.6,555.6 263.2,556.9 259.8,558.2 256.4,559.5 253.0,560.8 249.7,562.1 246.3,563.4 242.9,564.7 239.6,566.0 236.2,567.2 232.9,568.5 229.6,569.8 226.3,571.1 223.0,572.4 219.7,573.7 216.4,575.0 213.1,576.3 209.9,577.6 206.6,578.9 203.4,580.1 200.1,581.4 196.9,582.7 193.7,584.0 190.5,585.3 187.3,586.6 184.1,587.9 180.9,589.2 177.9,590.5 175.0,591.8 172.1,593.1 169.1,594.3 166.2,595.6 163.3,596.9 160.4,598.2 157.5,599.5 154.6,600.8 151.7,602.1 148.8,603.4 146.0,604.7 143.1,606.0 140.3,607.2 137.4,608.5 134.6,609.8 131.8,611.1 129.0,612.4 126.2,613.7 123.4,615.0 120.6,616.3 117.8,617.6 115.1,618.9 112.3,620.1 109.5,621.4 106.8,622.7 104.1,624.0 101.3,625.3 98.6,626.6 95.9,627.9 91.9,629.2 88.0,630.5 84.0,631.8 80.1,633.0 76.2,634.3 72.3,635.6 68.4,636.9 64.5,638.2 60.7,639.5 56.8,640.8 53.0,642.1 49.1,643.4 45.3,644.6 41.5,645.9 39.1,647.2 36.7,648.5 34.3,649.8 31.9,651.1 29.5,652.4 27.1,653.7 24.7,655.0 22.4,656.3 20.0,657.5 17.7,658.8 15.3,660.1 13.0,661.4 10.7,662.7 8.4,664.0" fill="none" stroke="#88bbee" stroke-width="2" stroke-linecap="round"/>
<text x="556.2190094624264" y="402.00000000000006" font-size="10" fill="#88bbee" font-family="monospace" font-weight="bold">L1</text>
<polyline points="579.5,460.0 579.5,462.7 579.4,465.4 579.2,468.1 578.9,470.8 578.5,473.5 578.0,476.2 577.3,478.9 576.6,481.6 575.7,484.3 574.7,487.0 573.6,489.7 572.3,492.4 570.0,495.1 567.5,497.8 564.8,500.5 561.9,503.2 558.9,505.9 555.7,508.6 552.3,511.3 548.8,514.0 544.1,516.7 539.2,519.4 534.2,522.1 529.1,524.8 523.9,527.5 518.7,530.2 513.3,532.9 507.9,535.6 500.0,538.3 492.0,541.0 484.0,543.7 476.1,546.4 468.2,549.1 460.3,551.8 452.6,554.5 444.9,557.2 437.4,559.9 430.0,562.6 422.8,565.3 415.8,568.0 408.9,570.7 402.2,573.4 395.7,576.1 389.5,578.8 383.5,581.5 377.7,584.2 372.0,586.9 366.6,589.6 361.3,592.3 356.3,595.0 351.4,597.7 346.5,600.4 341.7,603.1 336.9,605.8 332.1,608.5 327.4,611.2 322.6,613.9 318.0,616.6 313.3,619.3 308.6,622.0 304.0,624.7 299.4,627.4 294.9,630.1 290.3,632.8 285.8,635.5 281.4,638.2 276.9,640.9 272.5,643.6 269.9,646.3 267.3,649.0 264.7,651.7 262.2,654.4 259.7,657.1 257.1,659.8 254.6,662.5 252.2,665.2 249.7,667.9 247.2,670.6 244.8,673.3 242.3,676.0 239.9,678.7 237.5,681.4 235.1,684.1 232.7,686.8 230.3,689.5 227.9,692.2 225.6,694.9 223.3,697.6 220.9,700.3 218.6,703.0 216.3,705.7 214.0,708.4 211.7,711.1 209.5,713.8 207.2,716.5 205.0,719.2 202.8,721.9 200.5,724.6 197.9,727.3 195.2,730.0 192.5,732.7 189.9,735.4 187.3,738.1 184.6,740.8 182.0,743.5 179.4,746.2 176.8,748.9 174.2,751.6 171.6,754.3 169.1,757.0 166.5,759.7 164.0,762.4 161.4,765.1 158.9,767.8 157.5,770.5 156.1,773.2 154.8,775.9 153.4,778.6 152.1,781.3 150.7,784.0 149.4,786.7 148.1,789.4 146.8,792.1 145.4,794.8 144.1,797.5 142.8,800.2 141.5,802.9 140.2,805.6 138.9,808.3 137.6,811.0 136.3,813.7 135.1,816.4 133.8,819.1 132.6,821.8 131.5,824.5 130.4,827.2 129.3,829.9 128.2,832.6 127.1,835.3 126.0,838.0 124.9,840.7 123.9,843.4 122.6,846.1 121.4,848.8 120.2,851.5 119.0,854.2 117.8,856.9 116.6,859.6 115.5,862.3 114.3,865.0 113.1,867.7 112.0,870.4 110.9,873.1 109.7,875.8 108.6,878.5 107.5,881.2 106.4,883.9 105.3,886.6 104.3,889.3 103.2,892.0 102.1,894.7 101.1,897.4 100.0,900.1 99.0,902.8 98.0,905.5 97.0,908.2 96.0,910.9 95.0,913.6 94.0,916.3 93.0,919.0 92.0,921.7 91.1,924.4 90.6,927.1 90.1,929.8 89.5,932.5 89.0,935.2 88.6,937.9 88.1,940.6 87.9,943.3 87.7,946.0 87.6,948.7 87.4,951.4 87.2,954.1 87.1,956.8 87.0,959.5 86.8,962.2 86.7,964.9 86.6,967.6 86.5,970.3 86.4,973.0 86.3,975.7 86.3,978.4 86.2,981.1 86.2,983.8 86.1,986.5 86.1,989.2 86.1,991.9 86.1,994.6 86.1,997.3 86.1,1000.0" fill="none" stroke="#6699dd" stroke-width="2" stroke-linecap="round"/>
<text x="584.4933433447344" y="456.0" font-size="10" fill="#6699dd" font-family="monospace" font-weight="bold">L2</text>
<polyline points="638.9,514.0 637.0,516.9 635.0,519.7 632.9,522.6 630.6,525.4 628.3,528.2 625.8,531.1 623.2,534.0 620.4,536.8 617.6,539.7 614.6,542.5 611.4,545.3 608.2,548.2 604.8,551.0 601.3,553.9 597.6,556.8 593.8,559.6 586.3,562.5 578.5,565.3 570.5,568.1 561.5,571.0 552.5,573.9 543.4,576.7 534.3,579.6 525.1,582.4 516.0,585.2 506.9,588.1 497.8,591.0 488.8,593.8 480.0,596.7 471.2,599.5 463.2,602.3 455.3,605.2 447.6,608.0 440.0,610.9 432.7,613.8 425.5,616.6 418.3,619.5 411.5,622.3 404.9,625.1 398.6,628.0 392.5,630.9 386.7,633.7 381.2,636.6 375.9,639.4 370.8,642.2 366.0,645.1 361.3,648.0 356.8,650.8 352.5,653.6 348.4,656.5 345.2,659.4 342.0,662.2 338.9,665.0 335.8,667.9 332.7,670.8 329.6,673.6 326.6,676.5 323.6,679.3 320.6,682.1 317.6,685.0 314.6,687.9 311.6,690.7 308.7,693.6 305.7,696.4 302.8,699.3 299.9,702.1 297.0,704.9 294.1,707.8 291.3,710.6 288.4,713.5 285.6,716.4 282.8,719.2 280.0,722.0 277.2,724.9 274.4,727.8 271.7,730.6 269.8,733.5 268.0,736.3 266.1,739.2 264.3,742.0 262.5,744.9 260.6,747.7 258.8,750.5 257.0,753.4 255.2,756.2 253.4,759.1 251.6,761.9 249.8,764.8 248.0,767.6 246.2,770.5 244.5,773.4 242.7,776.2 241.0,779.1 239.2,781.9 237.5,784.8 235.7,787.6 234.0,790.5 232.3,793.3 230.6,796.2 228.9,799.0 226.8,801.8 224.7,804.7 222.7,807.5 220.7,810.4 218.6,813.2 216.6,816.1 214.6,819.0 212.6,821.8 210.7,824.7 208.8,827.5 206.9,830.4 205.0,833.2 203.1,836.0 201.2,838.9 199.4,841.8 197.5,844.6 195.3,847.5 193.2,850.3 191.0,853.2 188.9,856.0 186.8,858.9 184.7,861.7 182.6,864.5 180.5,867.4 178.5,870.2 176.4,873.1 174.4,875.9 172.4,878.8 170.4,881.6 168.4,884.5 166.4,887.4 164.5,890.2 162.5,893.1 160.6,895.9 158.7,898.8 156.8,901.6 154.9,904.5 153.0,907.3 151.2,910.1 149.3,913.0 148.0,915.8 146.6,918.7 145.3,921.5 143.9,924.4 142.6,927.2 141.3,930.1 140.0,933.0 138.7,935.8 137.4,938.7 136.3,941.5 135.3,944.3 134.2,947.2 133.2,950.0 132.3,952.9 131.3,955.8 130.4,958.6 129.4,961.5 128.5,964.3 127.6,967.2 126.7,970.0 125.9,972.9 125.0,975.7 124.2,978.5 123.4,981.4 122.6,984.2 121.8,987.1 121.3,989.9 120.7,992.8 120.2,995.6 119.7,998.5 119.2,1001.3 118.7,1004.2 118.3,1007.0 117.8,1009.9 117.4,1012.8 117.0,1015.6 116.6,1018.5 116.2,1021.3 115.8,1024.2 115.5,1027.0 115.1,1029.8 114.8,1032.7 114.5,1035.5 114.2,1038.4 113.9,1041.2 113.6,1044.1 113.7,1047.0 113.8,1049.8 113.9,1052.7 114.0,1055.5 114.2,1058.3 114.2,1061.2 114.0,1064.0 113.8,1066.9 113.7,1069.8 113.5,1072.6 113.4,1075.5 113.2,1078.3 113.1,1081.2 113.0,1084.0" fill="none" stroke="#dd5555" stroke-width="2" stroke-linecap="round"/>
<text x="643.8694444975815" y="510.0" font-size="10" fill="#dd5555" font-family="monospace" font-weight="bold">L3</text>
<polyline points="670.0,568.0 665.1,573.0 659.8,578.0 654.3,582.9 648.5,587.9 642.4,592.9 636.1,597.9 629.4,602.9 622.5,607.8 614.4,612.8 605.1,617.8 593.9,622.8 582.7,627.8 571.6,632.7 560.5,637.7 549.5,642.7 538.7,647.7 527.9,652.7 517.4,657.6 507.0,662.6 495.4,667.6 484.5,672.6 474.2,677.6 464.4,682.5 455.1,687.5 446.3,692.5 438.0,697.5 430.2,702.5 422.8,707.4 415.9,712.4 409.4,717.4 403.2,722.4 397.9,727.4 393.1,732.3 388.4,737.3 383.9,742.3 379.5,747.3 375.5,752.3 371.7,757.2 367.9,762.2 364.2,767.2 360.6,772.2 357.1,777.2 353.6,782.1 350.2,787.1 346.9,792.1 343.6,797.1 340.4,802.1 337.2,807.0 334.0,812.0 330.8,817.0 327.6,822.0 324.4,827.0 321.1,831.9 318.0,836.9 314.8,841.9 311.7,846.9 309.0,851.9 306.3,856.8 303.7,861.8 301.1,866.8 298.5,871.8 295.9,876.8 293.4,881.7 290.9,886.7 288.4,891.7 285.9,896.7 283.5,901.7 281.1,906.6 278.7,911.6 276.4,916.6 274.1,921.6 271.8,926.6 269.5,931.5 267.2,936.5 265.0,941.5 262.8,946.5 261.0,951.5 259.3,956.4 257.5,961.4 255.8,966.4 254.2,971.4 252.5,976.4 250.9,981.3 249.4,986.3 247.8,991.3 246.3,996.3 244.9,1001.3 243.4,1006.2 242.0,1011.2 240.7,1016.2 239.3,1021.2 238.0,1026.2 236.7,1031.1 235.5,1036.1 234.3,1041.1 233.1,1046.1 232.2,1051.1 231.3,1056.0 230.4,1061.0 229.4,1066.0 228.4,1071.0 227.5,1076.0 226.6,1080.9 225.7,1085.9 224.8,1090.9 223.9,1095.9 223.1,1100.9 222.2,1105.8 221.4,1110.8 220.6,1115.8 219.4,1120.8 217.7,1125.8 216.0,1130.7 214.3,1135.7 212.6,1140.7 210.9,1145.7 209.1,1150.7 207.4,1155.6 205.6,1160.6 203.8,1165.6 202.0,1170.6 200.2,1175.6 198.4,1180.5 196.6,1185.5 195.5,1190.5 194.4,1195.5 193.3,1200.5 192.2,1205.4 191.0,1210.4 189.9,1215.4 188.8,1220.4 187.6,1225.4 186.5,1230.3 185.3,1235.3 184.2,1240.3 183.8,1245.3 183.3,1250.3 182.9,1255.2 182.5,1260.2 182.1,1265.2 181.7,1270.2 181.3,1275.2 180.9,1280.1 180.6,1285.1 180.7,1290.1 180.9,1295.1 181.1,1300.1 181.3,1305.0 181.5,1310.0 181.7,1315.0 181.9,1320.0 182.1,1325.0 182.3,1329.9 182.5,1334.9 182.7,1339.9 183.0,1344.9 183.2,1349.9 183.4,1354.8 183.6,1359.8 183.9,1364.8 184.2,1369.8 184.5,1374.8 184.8,1379.7 185.2,1384.7 185.6,1389.7 186.0,1394.7 186.4,1399.7 186.8,1404.6 187.2,1409.6 187.7,1414.6 188.1,1419.6 188.5,1424.6 188.9,1429.5 189.4,1434.5 189.8,1439.5 190.2,1444.5 190.7,1449.5 191.1,1454.4 191.6,1459.4 192.0,1464.4 192.4,1469.4 192.9,1474.4 193.3,1479.3 193.7,1484.3 194.1,1489.3 194.6,1494.3 195.0,1499.3 195.4,1504.2 195.8,1509.2 196.2,1514.2 196.7,1519.2 197.1,1524.2 197.5,1529.1 197.9,1534.1 198.4,1539.1 198.8,1544.1 199.2,1549.1 199.6,1554.0 200.1,1559.0 200.5,1564.0" fill="none" stroke="#ddcc22" stroke-width="2" stroke-linecap="round"/>
<text x="674.9712117681205" y="564.0" font-size="10" fill="#ddcc22" font-family="monospace" font-weight="bold">L4</text>
<polyline points="678.5,616.0 621.4,620.7 554.0,625.5 487.0,630.2 428.7,635.0 389.9,639.7 359.6,644.4 354.0,649.2 348.6,653.9 348.2,658.7 347.7,663.4 347.3,668.1 346.9,672.9 346.6,677.6 346.2,682.4 345.8,687.1 345.5,691.8 345.1,696.6 344.7,701.3 344.3,706.1 344.0,710.8 343.6,715.5 343.2,720.3 342.9,725.0 342.6,729.8 342.4,734.5 342.2,739.2 342.0,744.0 341.7,748.7 341.5,753.5 341.3,758.2 341.0,762.9 340.8,767.7 340.6,772.4 340.3,777.2 340.1,781.9 339.9,786.6 339.6,791.4 339.4,796.1 339.2,800.9 338.9,805.6 338.7,810.3 338.5,815.1 338.2,819.8 337.9,824.6 337.5,829.3 337.1,834.0 336.7,838.8 336.4,843.5 336.0,848.3 335.6,853.0 335.3,857.7 334.9,862.5 334.5,867.2 334.1,872.0 333.8,876.7 333.4,881.4 333.0,886.2 332.6,890.9 332.3,895.7 331.9,900.4 331.5,905.1 331.2,909.9 330.8,914.6 330.4,919.4 330.0,924.1 329.7,928.8 329.3,933.6 328.9,938.3 328.4,943.1 327.9,947.8 327.3,952.5 326.8,957.3 326.2,962.0 325.6,966.8 325.1,971.5 324.5,976.2 324.0,981.0 323.4,985.7 322.8,990.5 322.3,995.2 321.7,999.9 321.0,1004.7 320.4,1009.4 319.8,1014.2 319.2,1018.9 318.6,1023.6 318.0,1028.4 317.3,1033.1 316.7,1037.9 316.1,1042.6 315.5,1047.3 314.9,1052.1 314.3,1056.8 313.7,1061.6 313.3,1066.3 312.9,1071.0 312.5,1075.8 312.0,1080.5 311.6,1085.3 311.2,1090.0 310.8,1094.7 310.4,1099.5 309.9,1104.2 309.5,1109.0 309.1,1113.7 308.7,1118.4 308.7,1123.2 308.8,1127.9 308.9,1132.7 309.0,1137.4 309.2,1142.1 309.3,1146.9 309.4,1151.6 309.5,1156.4 309.7,1161.1 309.8,1165.8 309.9,1170.6 310.0,1175.3 310.2,1180.1 310.3,1184.8 310.3,1189.5 310.4,1194.3 310.4,1199.0 310.4,1203.8 310.5,1208.5 310.5,1213.2 310.5,1218.0 310.6,1222.7 310.6,1227.5 310.6,1232.2 310.7,1236.9 310.5,1241.7 310.2,1246.4 309.8,1251.2 309.4,1255.9 309.0,1260.6 308.6,1265.4 308.3,1270.1 307.9,1274.9 307.5,1279.6 307.1,1284.3 306.8,1289.1 306.4,1293.8 306.0,1298.6 305.7,1303.3 305.3,1308.0 304.9,1312.8 304.6,1317.5 304.2,1322.3 303.9,1327.0 303.5,1331.7 303.1,1336.5 302.8,1341.2 302.4,1346.0 302.1,1350.7 301.7,1355.4 301.4,1360.2 301.0,1364.9 300.6,1369.7 300.3,1374.4 299.8,1379.1 299.3,1383.9 298.8,1388.6 298.3,1393.4 297.8,1398.1 297.3,1402.8 296.9,1407.6 296.4,1412.3 295.9,1417.1 295.4,1421.8 295.0,1426.5 294.5,1431.3 294.1,1436.0 293.6,1440.8 293.2,1445.5 292.7,1450.2 292.3,1455.0 291.8,1459.7 291.4,1464.5 291.0,1469.2 290.6,1473.9 290.3,1478.7 290.0,1483.4 289.6,1488.2 289.3,1492.9 289.0,1497.6 288.7,1502.4 288.4,1507.1 288.1,1511.9 287.8,1516.6 287.5,1521.3 287.2,1526.1 286.9,1530.8 286.6,1535.6 286.3,1540.3 286.0,1545.0 285.7,1549.8 285.4,1554.5 285.1,1559.3 284.8,1564.0" fill="none" stroke="#00ee00" stroke-width="3" stroke-linecap="round"/>
<text x="683.453511932813" y="612.0" font-size="10" fill="#00ee00" font-family="monospace" font-weight="bold">L5</text>
<polyline points="653.0,664.0 643.1,668.5 633.3,673.0 623.5,677.5 613.8,682.0 604.1,686.5 594.5,691.0 585.0,695.5 575.6,700.0 566.3,704.5 557.2,709.0 548.5,713.5 540.0,718.0 531.7,722.5 526.0,727.0 521.7,731.5 517.4,736.0 513.2,740.5 509.0,745.0 504.9,749.5 500.8,754.0 496.7,758.5 492.8,763.0 488.8,767.5 484.9,772.0 481.5,776.5 478.0,781.0 474.7,785.5 471.3,790.0 468.0,794.5 464.8,799.0 461.6,803.5 458.5,808.0 455.4,812.5 452.4,817.0 449.5,821.5 446.9,826.0 444.3,830.5 441.8,835.0 439.3,839.5 436.8,844.0 434.3,848.5 431.9,853.0 429.5,857.5 427.1,862.0 425.3,866.5 423.5,871.0 421.8,875.5 420.0,880.0 418.3,884.5 416.6,889.0 414.9,893.5 413.2,898.0 411.5,902.5 409.9,907.0 408.2,911.5 406.6,916.0 405.0,920.5 403.4,925.0 401.8,929.5 400.3,934.0 398.7,938.5 397.1,943.0 395.4,947.5 393.8,952.0 392.2,956.5 390.6,961.0 389.0,965.5 387.4,970.0 385.8,974.5 384.2,979.0 382.9,983.5 381.5,988.0 380.1,992.5 378.8,997.0 377.4,1001.5 376.1,1006.0 374.8,1010.5 373.5,1015.0 372.1,1019.5 370.8,1024.0 369.5,1028.5 368.2,1033.0 366.9,1037.5 365.6,1042.0 364.3,1046.5 363.1,1051.0 361.8,1055.5 360.5,1060.0 359.6,1064.5 358.6,1069.0 357.7,1073.5 356.8,1078.0 355.9,1082.5 355.0,1087.0 354.0,1091.5 353.1,1096.0 352.2,1100.5 351.3,1105.0 350.4,1109.5 349.5,1114.0 348.7,1118.5 348.6,1123.0 348.7,1127.5 348.8,1132.0 349.0,1136.5 349.1,1141.0 349.3,1145.5 349.4,1150.0 349.5,1154.5 349.7,1159.0 349.8,1163.5 349.9,1168.0 350.1,1172.5 350.2,1177.0 350.3,1181.5 350.5,1186.0 350.6,1190.5 350.7,1195.0 350.8,1199.5 351.0,1204.0 351.1,1208.5 351.2,1213.0 351.3,1217.5 351.4,1222.0 351.6,1226.5 351.7,1231.0 351.8,1235.5 351.9,1240.0 351.3,1244.5 350.7,1249.0 350.1,1253.5 349.6,1258.0 349.0,1262.5 348.5,1267.0 347.9,1271.5 347.4,1276.0 346.8,1280.5 346.3,1285.0 345.7,1289.5 345.2,1294.0 344.6,1298.5 344.1,1303.0 343.6,1307.5 343.0,1312.0 342.5,1316.5 342.0,1321.0 341.4,1325.5 340.9,1330.0 340.4,1334.5 339.8,1339.0 339.3,1343.5 338.8,1348.0 338.2,1352.5 337.7,1357.0 337.2,1361.5 336.6,1366.0 336.0,1370.5 335.5,1375.0 335.0,1379.5 334.4,1384.0 333.9,1388.5 333.3,1393.0 332.8,1397.5 332.2,1402.0 331.7,1406.5 331.2,1411.0 330.6,1415.5 330.1,1420.0 329.6,1424.5 329.0,1429.0 328.5,1433.5 328.0,1438.0 327.4,1442.5 326.9,1447.0 326.4,1451.5 325.8,1456.0 325.3,1460.5 324.8,1465.0 324.3,1469.5 323.7,1474.0 323.2,1478.5 322.7,1483.0 322.2,1487.5 321.7,1492.0 321.2,1496.5 320.8,1501.0 320.3,1505.5 319.8,1510.0 319.3,1514.5 318.8,1519.0 318.4,1523.5 317.9,1528.0 317.4,1532.5 316.9,1537.0 316.5,1541.5 316.0,1546.0 315.5,1550.5 315.1,1555.0 314.6,1559.5 314.1,1564.0" fill="none" stroke="#ee7788" stroke-width="2" stroke-linecap="round"/>
<text x="658.0066114387356" y="660.0" font-size="10" fill="#ee7788" font-family="monospace" font-weight="bold">S1</text>
<polyline points="597.0,700.0 592.8,701.9 588.6,703.8 584.4,705.8 580.2,707.7 576.0,709.6 571.9,711.5 567.7,713.4 563.6,715.4 559.5,717.3 555.4,719.2 551.4,721.1 547.3,723.0 544.6,725.0 542.8,726.9 541.0,728.8 539.3,730.7 537.5,732.6 535.7,734.6 533.9,736.5 532.2,738.4 530.4,740.3 528.7,742.2 526.9,744.2 525.2,746.1 523.4,748.0 521.7,749.9 520.0,751.8 518.3,753.8 516.6,755.7 514.8,757.6 513.6,759.5 512.5,761.4 511.3,763.4 510.1,765.3 508.9,767.2 507.7,769.1 506.5,771.0 505.4,773.0 504.2,774.9 503.0,776.8 501.8,778.7 500.7,780.6 499.5,782.6 498.4,784.5 497.2,786.4 496.0,788.3 494.9,790.2 493.7,792.2 492.6,794.1 491.5,796.0 490.3,797.9 489.2,799.8 488.1,801.8 486.9,803.7 485.8,805.6 484.7,807.5 484.0,809.4 483.3,811.4 482.6,813.3 482.0,815.2 481.3,817.1 480.6,819.0 480.0,821.0 479.6,822.9 479.1,824.8 478.7,826.7 478.2,828.6 477.8,830.6 477.3,832.5 476.9,834.4 476.4,836.3 476.0,838.2 475.5,840.2 475.1,842.1 474.6,844.0 474.1,845.9 473.7,847.8 473.2,849.8 472.8,851.7 472.3,853.6 471.8,855.5 471.3,857.4 470.9,859.4 470.4,861.3 470.3,863.2 470.2,865.1 470.1,867.0 470.0,869.0 469.8,870.9 469.7,872.8 469.6,874.7 469.5,876.6 469.3,878.6 469.2,880.5 469.0,882.4 468.9,884.3 468.7,886.2 468.5,888.2 468.4,890.1 468.2,892.0 468.0,893.9 467.8,895.8 467.6,897.8 467.5,899.7 467.3,901.6 467.1,903.5 466.9,905.4 466.6,907.4 466.4,909.3 466.2,911.2 466.0,913.1 465.8,915.0 466.2,917.0 466.6,918.9 467.0,920.8 467.4,922.7 466.7,924.6 465.9,926.6 465.2,928.5 464.4,930.4 463.7,932.3 463.0,934.2 462.2,936.2 461.5,938.1 460.7,940.0 460.1,941.9 459.4,943.8 458.7,945.8 458.0,947.7 457.3,949.6 456.7,951.5 456.0,953.4 455.3,955.4 454.6,957.3 454.0,959.2 453.3,961.1 452.6,963.0 451.9,965.0 451.2,966.9 450.6,968.8 449.9,970.7 449.2,972.6 448.5,974.6 447.8,976.5 447.2,978.4 446.5,980.3 445.8,982.2 445.1,984.2 444.5,986.1 443.8,988.0 443.1,989.9 442.4,991.8 441.7,993.8 441.1,995.7 440.4,997.6 439.7,999.5 439.0,1001.4 438.3,1003.4 437.7,1005.3 437.0,1007.2 436.3,1009.1 435.6,1011.0 435.0,1013.0 434.3,1014.9 433.6,1016.8 432.9,1018.7 432.2,1020.6 431.6,1022.6 430.9,1024.5 430.2,1026.4 429.5,1028.3 428.8,1030.2 428.2,1032.2 427.5,1034.1 426.8,1036.0 426.1,1037.9 425.5,1039.8 424.8,1041.8 424.1,1043.7 423.4,1045.6 422.7,1047.5 422.1,1049.4 421.4,1051.4 420.7,1053.3 420.0,1055.2 419.3,1057.1 418.7,1059.0 418.1,1061.0 417.7,1062.9 417.2,1064.8 416.7,1066.7 416.3,1068.6 415.8,1070.6 415.4,1072.5 414.9,1074.4 414.5,1076.3 414.0,1078.2 413.6,1080.2 413.1,1082.1 113.0,1084.0" fill="none" stroke="#4466cc" stroke-width="2" stroke-linecap="round"/>
<text x="602.0234303517656" y="695.9999999999999" font-size="10" fill="#4466cc" font-family="monospace" font-weight="bold">S2</text>
<polyline points="700.0,849.7 700.1,845.7 700.3,841.7 700.5,837.7 700.6,833.7 700.8,829.7 700.9,825.7 701.0,821.7 701.2,817.7 701.4,813.7 701.5,809.7 701.6,805.7 701.8,801.8 701.9,797.8 702.1,793.8 702.2,789.8 702.4,785.8 702.5,781.8 702.7,777.8 702.8,773.9 703.0,769.9 703.2,765.9 703.3,761.9 703.4,758.0 703.6,754.0 703.8,750.0 703.9,746.0 704.0,742.1 704.2,738.1 704.3,734.1 704.5,730.2 704.7,726.2 704.8,722.2 704.9,718.3 705.1,714.3 705.2,710.3 705.4,706.4 705.5,702.4 705.7,698.5 705.8,694.5 706.0,690.5 706.2,686.6 706.3,682.6 706.4,678.7 706.6,674.7 706.8,670.8 706.9,666.8 707.1,662.9 707.2,658.9 707.3,655.0 707.5,651.0 707.6,647.1 707.8,643.2 707.9,639.2 708.1,635.3 708.2,631.3 708.4,627.4 708.5,623.5 708.7,619.5 708.8,615.6 709.0,611.7 709.1,607.7 709.3,603.8 709.5,599.9 709.6,595.9 709.7,592.0 709.9,588.1 710.0,584.2 710.2,580.2 710.3,576.3 710.5,572.4 710.6,568.5 710.8,564.6 711.0,560.7 711.1,556.7 711.2,552.8 711.4,548.9 711.5,545.0 711.7,541.1 711.8,537.2 712.0,533.3 712.1,529.4 712.3,525.5 712.5,521.5 712.6,517.6 712.7,513.7 712.9,509.8 713.0,505.9 713.2,502.0 713.4,498.1 713.5,494.2 713.6,490.3 713.8,486.4 714.0,482.6 714.1,478.7 714.2,474.8 714.4,470.9 714.5,467.0 714.7,463.1 714.9,459.2 715.0,455.3 715.1,455.3 715.3,455.4 715.4,455.4 715.6,455.4 715.8,455.4 715.9,455.4 716.0,455.4 716.2,455.5 716.3,455.5 716.5,455.5 716.6,455.5 716.8,455.5 716.9,455.5 717.1,455.5 717.2,455.6 717.4,455.6 717.5,455.6 717.7,455.6 717.8,455.6 718.0,455.6 718.2,455.6 718.3,455.7 718.4,455.7 718.6,455.7 718.8,455.7 718.9,455.7 719.0,455.7 719.2,455.7 719.3,455.8 719.5,455.8 719.7,455.8 719.8,455.8 719.9,455.8 720.1,455.8 720.2,455.8 720.4,455.9 720.5,455.9 720.7,455.9 720.8,455.9 721.0,455.9 721.1,455.9 721.3,456.0 721.4,456.0 721.6,456.0 721.7,456.0 721.9,456.0 722.0,456.0 722.2,456.0 722.3,456.1 722.5,456.1 722.6,456.1 722.8,456.1 722.9,456.1 723.1,456.1 723.2,456.1 723.4,456.2 723.5,456.2 723.7,456.2 723.8,456.2 724.0,456.2 724.1,456.2 724.3,456.2 724.5,456.3 724.6,456.3 724.7,456.3 724.9,456.3 725.0,456.3 725.2,456.3 725.3,456.3 725.5,456.4 725.6,456.4 725.8,456.4 726.0,456.4 726.1,456.4 726.2,456.4 726.4,456.5 726.5,456.5 726.7,456.5 726.8,456.5 727.0,456.5 727.1,456.5 727.3,456.5 727.4,456.6 727.6,456.6 727.7,456.6 727.9,456.6 728.0,456.6 728.2,456.6 728.3,456.6 728.5,456.7 728.6,456.7 728.8,456.7 728.9,456.7 729.1,456.7 729.2,456.7 729.4,456.7 729.5,456.8 729.7,456.8 729.8,456.8 730.0,456.8" fill="none" stroke="#aaaaaa" stroke-width="1.5" stroke-linecap="round"/>
<text x="705.0" y="845.7013096271187" font-size="10" fill="#aaaaaa" font-family="monospace" font-weight="bold">T11</text>
<polyline points="748.0,835.6 748.1,831.8 748.3,828.1 748.5,824.3 748.6,820.5 748.8,816.8 748.9,813.0 749.0,809.3 749.2,805.5 749.4,801.8 749.5,798.0 749.6,794.2 749.8,790.5 750.0,786.7 750.1,782.9 750.3,779.1 750.4,775.4 750.5,771.6 750.7,767.8 750.9,764.0 751.0,760.2 751.2,756.5 751.3,752.7 751.5,748.9 751.6,745.1 751.8,741.3 751.9,737.5 752.0,733.7 752.2,729.9 752.4,726.2 752.5,722.4 752.7,718.6 752.8,714.8 752.9,711.0 753.1,707.2 753.2,703.4 753.4,699.6 753.5,695.9 753.7,692.1 753.8,688.3 754.0,684.5 754.2,680.7 754.3,676.9 754.4,673.2 754.6,669.4 754.8,665.6 754.9,661.8 755.1,658.1 755.2,654.3 755.3,650.5 755.5,646.8 755.7,643.0 755.8,639.2 755.9,635.5 756.1,631.7 756.2,628.0 756.4,624.2 756.6,620.4 756.7,616.7 756.8,612.9 757.0,609.2 757.2,605.4 757.3,601.6 757.5,597.9 757.6,594.1 757.8,590.4 757.9,586.6 758.1,582.9 758.2,579.1 758.3,575.3 758.5,571.6 758.6,567.8 758.8,564.1 759.0,560.3 759.1,556.6 759.2,552.8 759.4,549.1 759.5,545.3 759.7,541.6 759.8,537.8 760.0,534.1 760.1,530.3 760.3,526.6 760.5,522.8 760.6,519.1 760.7,515.3 760.9,511.6 761.0,507.8 761.2,504.1 761.4,500.3 761.5,496.6 761.6,492.8 761.8,489.1 762.0,485.4 762.1,481.6 762.2,477.9 762.4,474.1 762.5,470.4 762.7,466.6 762.9,462.9 763.0,459.2 763.1,459.2 763.3,459.2 763.5,459.2 763.6,459.2 763.8,459.2 763.9,459.2 764.0,459.2 764.2,459.2 764.4,459.2 764.5,459.2 764.6,459.2 764.8,459.2 764.9,459.2 765.1,459.2 765.2,459.3 765.4,459.3 765.5,459.3 765.7,459.3 765.8,459.3 766.0,459.3 766.2,459.3 766.3,459.3 766.4,459.3 766.6,459.3 766.8,459.3 766.9,459.3 767.0,459.3 767.2,459.3 767.3,459.3 767.5,459.3 767.7,459.3 767.8,459.4 767.9,459.4 768.1,459.4 768.2,459.4 768.4,459.4 768.5,459.4 768.7,459.4 768.8,459.4 769.0,459.4 769.2,459.4 769.3,459.4 769.4,459.4 769.6,459.4 769.8,459.4 769.9,459.4 770.1,459.4 770.2,459.4 770.3,459.5 770.5,459.5 770.6,459.5 770.8,459.5 770.9,459.5 771.1,459.5 771.2,459.5 771.4,459.5 771.5,459.5 771.7,459.5 771.8,459.5 772.0,459.5 772.1,459.5 772.3,459.5 772.5,459.5 772.6,459.5 772.7,459.5 772.9,459.6 773.0,459.6 773.2,459.6 773.3,459.6 773.5,459.6 773.6,459.6 773.8,459.6 774.0,459.6 774.1,459.6 774.2,459.6 774.4,459.6 774.5,459.6 774.7,459.6 774.8,459.6 775.0,459.6 775.1,459.6 775.3,459.6 775.5,459.7 775.6,459.7 775.7,459.7 775.9,459.7 776.0,459.7 776.2,459.7 776.4,459.7 776.5,459.7 776.6,459.7 776.8,459.7 776.9,459.7 777.1,459.7 777.2,459.7 777.4,459.7 777.5,459.7 777.7,459.7 777.9,459.7 778.0,459.8" fill="none" stroke="#888888" stroke-width="1.5" stroke-linecap="round"/>
<text x="753.0" y="831.5641426859647" font-size="10" fill="#888888" font-family="monospace" font-weight="bold">T12</text>
<polyline points="796.0,841.2 797.3,840.7 798.6,840.3 799.9,839.8 801.2,839.3 802.4,838.8 803.7,838.3 805.0,837.7 806.3,837.2 807.6,836.7 808.9,836.1 810.2,835.6 811.5,835.0 812.8,834.4 814.1,833.8 815.4,833.2 816.6,832.6 817.9,832.0 819.2,831.4 820.5,830.7 821.8,830.1 823.1,829.4 824.4,828.7 825.7,828.0 827.0,827.3 828.2,826.6 829.5,825.9 830.8,825.2 832.1,824.4 833.4,822.9 834.7,821.4 836.0,819.9 837.3,818.3 838.6,816.7 839.9,815.1 841.2,813.5 842.4,811.8 843.7,810.2 845.0,808.5 846.3,806.8 847.6,805.0 848.9,803.3 850.2,801.6 851.5,800.3 852.8,799.0 854.0,797.6 855.3,796.2 856.6,794.8 857.9,793.3 859.2,791.8 860.5,790.3 861.8,788.7 863.1,787.1 864.4,785.5 865.7,783.8 867.0,782.1 868.2,780.4 869.5,778.6 870.8,776.8 872.1,773.2 873.4,769.6 874.7,766.0 876.0,762.3 877.3,758.6 878.6,754.8 879.9,751.1 881.1,747.3 882.4,743.6 883.7,739.8 885.0,736.0 886.3,732.3 887.6,728.5 888.9,724.8 890.2,721.1 891.5,717.4 892.8,713.7 894.0,710.0 895.3,706.4 896.6,702.7 897.9,699.2 899.2,695.6 900.5,692.1 901.8,688.6 903.1,685.2 904.4,681.7 905.7,678.1 906.9,674.5 908.2,670.1 909.5,665.8 910.8,661.5 912.1,657.4 913.4,653.3 914.7,649.3 916.0,645.3 917.3,641.3 918.6,637.3 919.8,633.4 921.1,629.4 922.4,625.4 923.7,621.5 925.0,617.6 926.3,613.6 927.6,609.7 928.9,605.8 930.2,601.9 931.5,598.0 932.7,594.2 934.0,590.3 935.3,586.4 936.6,582.6 937.9,578.7 939.2,574.9 940.5,571.1 941.8,567.2 943.1,563.4 944.4,560.0 945.6,556.6 946.9,553.2 948.2,549.8 949.5,546.4 950.8,543.0 952.1,539.7 953.4,536.3 954.7,532.9 956.0,529.6 957.2,526.2 958.5,522.9 959.8,519.6 961.1,516.3 962.4,513.0 963.7,509.7 965.0,506.4 966.3,503.1 967.6,499.9 968.9,496.6 970.1,493.4 971.4,490.1 972.7,486.9 974.0,483.7 975.3,480.5 976.6,477.3 977.9,474.1 979.2,470.9 980.5,467.9 981.8,465.0 983.1,462.1 984.3,459.1 985.6,456.2 986.9,453.3 988.2,450.4 989.5,447.5 990.8,444.6 992.1,441.7 993.4,438.8 994.7,436.0 996.0,433.1 997.2,430.3 998.5,427.4 999.8,424.6 1001.1,421.8 1002.4,419.0 1003.7,416.2 1005.0,413.4 1006.3,410.6 1007.6,407.8 1008.9,405.1 1010.1,402.3 1011.4,399.5 1012.7,396.8 1014.0,394.1 1015.3,391.3 1016.6,388.6 1017.9,385.9 1019.2,381.9 1020.5,378.0 1021.8,374.0 1023.0,370.1 1024.3,366.2 1025.6,362.3 1026.9,358.4 1028.2,354.5 1029.5,350.7" fill="none" stroke="#88bbee" stroke-width="2" stroke-linecap="round"/>
<polyline points="736.8,640.8 733.0,642.1 729.1,643.4 725.3,644.6 721.5,645.9 719.1,647.2 716.7,648.5 714.3,649.8 711.9,651.1 709.5,652.4 707.1,653.7 704.7,655.0 702.4,656.3 700.0,657.5 697.7,658.8 695.3,660.1 693.0,661.4 690.7,662.7 688.4,664.0" fill="none" stroke="#88bbee" stroke-width="2" stroke-linecap="round"/>
<text x="801.0" y="837.2190094624264" font-size="10" fill="#88bbee" font-family="monospace" font-weight="bold">L1</text>
<polyline points="850.0,869.5 852.7,869.5 855.4,869.4 858.1,869.2 860.8,868.9 863.5,868.5 866.2,868.0 868.9,867.3 871.6,866.6 874.3,865.7 877.0,864.7 879.7,863.6 882.4,862.3 885.1,860.0 887.8,857.5 890.5,854.8 893.2,851.9 895.9,848.9 898.6,845.7 901.3,842.3 904.0,838.8 906.7,834.1 909.4,829.2 912.1,824.2 914.8,819.1 917.5,813.9 920.2,808.7 922.9,803.3 925.6,797.9 928.3,790.0 931.0,782.0 933.7,774.0 936.4,766.1 939.1,758.2 941.8,750.3 944.5,742.6 947.2,734.9 949.9,727.4 952.6,720.0 955.3,712.8 958.0,705.8 960.7,698.9 963.4,692.2 966.1,685.7 968.8,679.5 971.5,673.5 974.2,667.7 976.9,662.0 979.6,656.6 982.3,651.3 985.0,646.3 987.7,641.4 990.4,636.5 993.1,631.7 995.8,626.9 998.5,622.1 1001.2,617.4 1003.9,612.6 1006.6,608.0 1009.3,603.3 1012.0,598.6 1014.7,594.0 1017.4,589.4 1020.1,584.9 1022.8,580.3 1025.5,575.8 1028.2,571.4 956.9,640.9 952.5,643.6 949.9,646.3 947.3,649.0 944.7,651.7 942.2,654.4 939.7,657.1 937.1,659.8 934.6,662.5 932.2,665.2 929.7,667.9 927.2,670.6 924.8,673.3 922.3,676.0 919.9,678.7 917.5,681.4 915.1,684.1 912.7,686.8 910.3,689.5 907.9,692.2 905.6,694.9 903.3,697.6 900.9,700.3 898.6,703.0 896.3,705.7 894.0,708.4 891.7,711.1 889.5,713.8 887.2,716.5 885.0,719.2 882.8,721.9 880.5,724.6 877.9,727.3 875.2,730.0 872.5,732.7 869.9,735.4 867.3,738.1 864.6,740.8 862.0,743.5 859.4,746.2 856.8,748.9 854.2,751.6 851.6,754.3 849.1,757.0 846.5,759.7 844.0,762.4 841.4,765.1 838.9,767.8 837.5,770.5 836.1,773.2 834.8,775.9 833.4,778.6 832.1,781.3 830.7,784.0 829.4,786.7 828.1,789.4 826.8,792.1 825.4,794.8 824.1,797.5 822.8,800.2 821.5,802.9 820.2,805.6 818.9,808.3 817.6,811.0 816.3,813.7 815.1,816.4 813.8,819.1 812.6,821.8 811.5,824.5 810.4,827.2 809.3,829.9 808.2,832.6 807.1,835.3 806.0,838.0 804.9,840.7 803.9,843.4 802.6,846.1 801.4,848.8 800.2,851.5 799.0,854.2 797.8,856.9 796.6,859.6 795.5,862.3 794.3,865.0 793.1,867.7 792.0,870.4 790.9,873.1 789.7,875.8 788.6,878.5 787.5,881.2 786.4,883.9 785.3,886.6 784.3,889.3 783.2,892.0 782.1,894.7 781.1,897.4 780.0,900.1 779.0,902.8 778.0,905.5 777.0,908.2 776.0,910.9 775.0,913.6 774.0,916.3 773.0,919.0 772.0,921.7 771.1,924.4 770.6,927.1 770.1,929.8 769.5,932.5 769.0,935.2 768.6,937.9 768.1,940.6 767.9,943.3 767.7,946.0 767.6,948.7 767.4,951.4 767.2,954.1 767.1,956.8 767.0,959.5 766.8,962.2 766.7,964.9 766.6,967.6 766.5,970.3 766.4,973.0 766.3,975.7 766.3,978.4 766.2,981.1 766.2,983.8 766.1,986.5 766.1,989.2 766.1,991.9 766.1,994.6 766.1,997.3 766.1,1000.0" fill="none" stroke="#6699dd" stroke-width="2" stroke-linecap="round"/>
<text x="855.0" y="865.4933433447344" font-size="10" fill="#6699dd" font-family="monospace" font-weight="bold">L2</text>
<polyline points="904.0,928.9 906.9,927.0 909.7,925.0 912.6,922.9 915.4,920.6 918.2,918.3 921.1,915.8 924.0,913.2 926.8,910.4 929.7,907.6 932.5,904.6 935.3,901.4 938.2,898.2 941.0,894.8 943.9,891.3 946.8,887.6 949.6,883.8 952.5,876.3 955.3,868.5 958.1,860.5 961.0,851.5 963.9,842.5 966.7,833.4 969.6,824.3 972.4,815.1 975.2,806.0 978.1,796.9 981.0,787.8 983.8,778.8 986.7,770.0 989.5,761.2 992.3,753.2 995.2,745.3 998.0,737.6 1000.9,730.0 1003.8,722.7 1006.6,715.5 1009.5,708.3 1012.3,701.5 1015.1,694.9 1018.0,688.6 1020.9,682.5 1023.7,676.7 1026.5,671.2 1029.4,665.9 1050.8,642.2 1046.0,645.1 1041.3,648.0 1036.8,650.8 1032.5,653.6 1028.4,656.5 1025.2,659.4 1022.0,662.2 1018.9,665.0 1015.8,667.9 1012.7,670.8 1009.6,673.6 1006.6,676.5 1003.6,679.3 1000.6,682.1 997.6,685.0 994.6,687.9 991.6,690.7 988.7,693.6 985.7,696.4 982.8,699.3 979.9,702.1 977.0,704.9 974.1,707.8 971.3,710.6 968.4,713.5 965.6,716.4 962.8,719.2 960.0,722.0 957.2,724.9 954.4,727.8 951.7,730.6 949.8,733.5 948.0,736.3 946.1,739.2 944.3,742.0 942.5,744.9 940.6,747.7 938.8,750.5 937.0,753.4 935.2,756.2 933.4,759.1 931.6,761.9 929.8,764.8 928.0,767.6 926.2,770.5 924.5,773.4 922.7,776.2 921.0,779.1 919.2,781.9 917.5,784.8 915.7,787.6 914.0,790.5 912.3,793.3 910.6,796.2 908.9,799.0 906.8,801.8 904.7,804.7 902.7,807.5 900.7,810.4 898.6,813.2 896.6,816.1 894.6,819.0 892.6,821.8 890.7,824.7 888.8,827.5 886.9,830.4 885.0,833.2 883.1,836.0 881.2,838.9 879.4,841.8 877.5,844.6 875.3,847.5 873.2,850.3 871.0,853.2 868.9,856.0 866.8,858.9 864.7,861.7 862.6,864.5 860.5,867.4 858.5,870.2 856.4,873.1 854.4,875.9 852.4,878.8 850.4,881.6 848.4,884.5 846.4,887.4 844.5,890.2 842.5,893.1 840.6,895.9 838.7,898.8 836.8,901.6 834.9,904.5 833.0,907.3 831.2,910.1 829.3,913.0 828.0,915.8 826.6,918.7 825.3,921.5 823.9,924.4 822.6,927.2 821.3,930.1 820.0,933.0 818.7,935.8 817.4,938.7 816.3,941.5 815.3,944.3 814.2,947.2 813.2,950.0 812.3,952.9 811.3,955.8 810.4,958.6 809.4,961.5 808.5,964.3 807.6,967.2 806.7,970.0 805.9,972.9 805.0,975.7 804.2,978.5 803.4,981.4 802.6,984.2 801.8,987.1 801.3,989.9 800.7,992.8 800.2,995.6 799.7,998.5 799.2,1001.3 798.7,1004.2 798.3,1007.0 797.8,1009.9 797.4,1012.8 797.0,1015.6 796.6,1018.5 796.2,1021.3 795.8,1024.2 795.5,1027.0 795.1,1029.8 794.8,1032.7 794.5,1035.5 794.2,1038.4 793.9,1041.2 793.6,1044.1 793.7,1047.0 793.8,1049.8 793.9,1052.7 794.0,1055.5 794.2,1058.3 794.2,1061.2 794.0,1064.0 793.8,1066.9 793.7,1069.8 793.5,1072.6 793.4,1075.5 793.2,1078.3 793.1,1081.2 793.0,1084.0" fill="none" stroke="#dd5555" stroke-width="2" stroke-linecap="round"/>
<text x="909.0" y="924.8694444975815" font-size="10" fill="#dd5555" font-family="monospace" font-weight="bold">L3</text>
<polyline points="958.0,960.0 963.0,955.1 968.0,949.8 972.9,944.3 977.9,938.5 982.9,932.4 987.9,926.1 992.9,919.4 997.8,912.5 1002.8,904.4 1007.8,895.1 1012.8,883.9 1017.8,872.7 1022.7,861.6 1027.7,850.5" fill="none" stroke="#ddcc22" stroke-width="2" stroke-linecap="round"/>
<polyline points="1229.5,642.7 1218.7,647.7 1207.9,652.7 1197.4,657.6 1187.0,662.6 1175.4,667.6 1164.5,672.6 1154.2,677.6 1144.4,682.5 1135.1,687.5 1126.3,692.5 1118.0,697.5 1110.2,702.5 1102.8,707.4 1095.9,712.4 1089.4,717.4 1083.2,722.4 1077.9,727.4 1073.1,732.3 1068.4,737.3 1063.9,742.3 1059.5,747.3 1055.5,752.3 1051.7,757.2 1047.9,762.2 1044.2,767.2 1040.6,772.2 1037.1,777.2 1033.6,782.1 1030.2,787.1 1026.9,792.1 1023.6,797.1 1020.4,802.1 1017.2,807.0 1014.0,812.0 1010.8,817.0 1007.6,822.0 1004.4,827.0 1001.1,831.9 998.0,836.9 994.8,841.9 991.7,846.9 989.0,851.9 986.3,856.8 983.7,861.8 981.1,866.8 978.5,871.8 975.9,876.8 973.4,881.7 970.9,886.7 968.4,891.7 965.9,896.7 963.5,901.7 961.1,906.6 958.7,911.6 956.4,916.6 954.1,921.6 951.8,926.6 949.5,931.5 947.2,936.5 945.0,941.5 942.8,946.5 941.0,951.5 939.3,956.4 937.5,961.4 935.8,966.4 934.2,971.4 932.5,976.4 930.9,981.3 929.4,986.3 927.8,991.3 926.3,996.3 924.9,1001.3 923.4,1006.2 922.0,1011.2 920.7,1016.2 919.3,1021.2 918.0,1026.2 916.7,1031.1 915.5,1036.1 914.3,1041.1 913.1,1046.1 912.2,1051.1 911.3,1056.0 910.4,1061.0 909.4,1066.0 908.4,1071.0 907.5,1076.0 906.6,1080.9 905.7,1085.9 904.8,1090.9 903.9,1095.9 903.1,1100.9 902.2,1105.8 901.4,1110.8 900.6,1115.8 899.4,1120.8 897.7,1125.8 896.0,1130.7 894.3,1135.7 892.6,1140.7 890.9,1145.7 889.1,1150.7 887.4,1155.6 885.6,1160.6 883.8,1165.6 882.0,1170.6 880.2,1175.6 878.4,1180.5 876.6,1185.5 875.5,1190.5 874.4,1195.5 873.3,1200.5 872.2,1205.4 871.0,1210.4 869.9,1215.4 868.8,1220.4 867.6,1225.4 866.5,1230.3 865.3,1235.3 864.2,1240.3 863.8,1245.3 863.3,1250.3 862.9,1255.2 862.5,1260.2 862.1,1265.2 861.7,1270.2 861.3,1275.2 860.9,1280.1 860.6,1285.1 860.7,1290.1 860.9,1295.1 861.1,1300.1 861.3,1305.0 861.5,1310.0 861.7,1315.0 861.9,1320.0 862.1,1325.0 862.3,1329.9 862.5,1334.9 862.7,1339.9 863.0,1344.9 863.2,1349.9 863.4,1354.8 863.6,1359.8 863.9,1364.8 864.2,1369.8 864.5,1374.8 864.8,1379.7 865.2,1384.7 865.6,1389.7 866.0,1394.7 866.4,1399.7 866.8,1404.6 867.2,1409.6 867.7,1414.6 868.1,1419.6 868.5,1424.6 868.9,1429.5 869.4,1434.5 869.8,1439.5 870.2,1444.5 870.7,1449.5 871.1,1454.4 871.6,1459.4 872.0,1464.4 872.4,1469.4 872.9,1474.4 873.3,1479.3 873.7,1484.3 874.1,1489.3 874.6,1494.3 875.0,1499.3 875.4,1504.2 875.8,1509.2 876.2,1514.2 876.7,1519.2 877.1,1524.2 877.5,1529.1 877.9,1534.1 878.4,1539.1 878.8,1544.1 879.2,1549.1 879.6,1554.0 880.1,1559.0 880.5,1564.0" fill="none" stroke="#ddcc22" stroke-width="2" stroke-linecap="round"/>
<text x="963.0" y="955.9712117681205" font-size="10" fill="#ddcc22" font-family="monospace" font-weight="bold">L4</text>
<polyline points="1006.0,968.5 1010.7,911.4 1015.5,844.0 1020.2,777.0 1025.0,718.7 1029.7,679.9 1039.6,644.4 1034.0,649.2 1028.6,653.9 1028.2,658.7 1027.7,663.4 1027.3,668.1 1026.9,672.9 1026.6,677.6 1026.2,682.4 1025.8,687.1 1025.5,691.8 1025.1,696.6 1024.7,701.3 1024.3,706.1 1024.0,710.8 1023.6,715.5 1023.2,720.3 1022.9,725.0 1022.6,729.8 1022.4,734.5 1022.2,739.2 1022.0,744.0 1021.7,748.7 1021.5,753.5 1021.3,758.2 1021.0,762.9 1020.8,767.7 1020.6,772.4 1020.3,777.2 1020.1,781.9 1019.9,786.6 1019.6,791.4 1019.4,796.1 1019.2,800.9 1018.9,805.6 1018.7,810.3 1018.5,815.1 1018.2,819.8 1017.9,824.6 1017.5,829.3 1017.1,834.0 1016.7,838.8 1016.4,843.5 1016.0,848.3 1015.6,853.0 1015.3,857.7 1014.9,862.5 1014.5,867.2 1014.1,872.0 1013.8,876.7 1013.4,881.4 1013.0,886.2 1012.6,890.9 1012.3,895.7 1011.9,900.4 1011.5,905.1 1011.2,909.9 1010.8,914.6 1010.4,919.4 1010.0,924.1 1009.7,928.8 1009.3,933.6 1008.9,938.3 1008.4,943.1 1007.9,947.8 1007.3,952.5 1006.8,957.3 1006.2,962.0 1005.6,966.8 1005.1,971.5 1004.5,976.2 1004.0,981.0 1003.4,985.7 1002.8,990.5 1002.3,995.2 1001.7,999.9 1001.0,1004.7 1000.4,1009.4 999.8,1014.2 999.2,1018.9 998.6,1023.6 998.0,1028.4 997.3,1033.1 996.7,1037.9 996.1,1042.6 995.5,1047.3 994.9,1052.1 994.3,1056.8 993.7,1061.6 993.3,1066.3 992.9,1071.0 992.5,1075.8 992.0,1080.5 991.6,1085.3 991.2,1090.0 990.8,1094.7 990.4,1099.5 989.9,1104.2 989.5,1109.0 989.1,1113.7 988.7,1118.4 988.7,1123.2 988.8,1127.9 988.9,1132.7 989.0,1137.4 989.2,1142.1 989.3,1146.9 989.4,1151.6 989.5,1156.4 989.7,1161.1 989.8,1165.8 989.9,1170.6 990.0,1175.3 990.2,1180.1 990.3,1184.8 990.3,1189.5 990.4,1194.3 990.4,1199.0 990.4,1203.8 990.5,1208.5 990.5,1213.2 990.5,1218.0 990.6,1222.7 990.6,1227.5 990.6,1232.2 990.7,1236.9 990.5,1241.7 990.2,1246.4 989.8,1251.2 989.4,1255.9 989.0,1260.6 988.6,1265.4 988.3,1270.1 987.9,1274.9 987.5,1279.6 987.1,1284.3 986.8,1289.1 986.4,1293.8 986.0,1298.6 985.7,1303.3 985.3,1308.0 984.9,1312.8 984.6,1317.5 984.2,1322.3 983.9,1327.0 983.5,1331.7 983.1,1336.5 982.8,1341.2 982.4,1346.0 982.1,1350.7 981.7,1355.4 981.4,1360.2 981.0,1364.9 980.6,1369.7 980.3,1374.4 979.8,1379.1 979.3,1383.9 978.8,1388.6 978.3,1393.4 977.8,1398.1 977.3,1402.8 976.9,1407.6 976.4,1412.3 975.9,1417.1 975.4,1421.8 975.0,1426.5 974.5,1431.3 974.1,1436.0 973.6,1440.8 973.2,1445.5 972.7,1450.2 972.3,1455.0 971.8,1459.7 971.4,1464.5 971.0,1469.2 970.6,1473.9 970.3,1478.7 970.0,1483.4 969.6,1488.2 969.3,1492.9 969.0,1497.6 968.7,1502.4 968.4,1507.1 968.1,1511.9 967.8,1516.6 967.5,1521.3 967.2,1526.1 966.9,1530.8 966.6,1535.6 966.3,1540.3 966.0,1545.0 965.7,1549.8 965.4,1554.5 965.1,1559.3 964.8,1564.0" fill="none" stroke="#00ee00" stroke-width="3" stroke-linecap="round"/>
<text x="1011.0" y="964.453511932813" font-size="10" fill="#00ee00" font-family="monospace" font-weight="bold">L5</text>
<polyline points="1333.0,664.0 1323.1,668.5 1313.3,673.0 1303.5,677.5 1293.8,682.0 1284.1,686.5 1274.5,691.0 1265.0,695.5 1255.6,700.0 1246.3,704.5 1237.2,709.0 1228.5,713.5 1220.0,718.0 1211.7,722.5 1206.0,727.0 1201.7,731.5 1197.4,736.0 1193.2,740.5 1189.0,745.0 1184.9,749.5 1180.8,754.0 1176.7,758.5 1172.8,763.0 1168.8,767.5 1164.9,772.0 1161.5,776.5 1158.0,781.0 1154.7,785.5 1151.3,790.0 1148.0,794.5 1144.8,799.0 1141.6,803.5 1138.5,808.0 1135.4,812.5 1132.4,817.0 1129.5,821.5 1126.9,826.0 1124.3,830.5 1121.8,835.0 1119.3,839.5 1116.8,844.0 1114.3,848.5 1111.9,853.0 1109.5,857.5 1107.1,862.0 1105.3,866.5 1103.5,871.0 1101.8,875.5 1100.0,880.0 1098.3,884.5 1096.6,889.0 1094.9,893.5 1093.2,898.0 1091.5,902.5 1089.9,907.0 1088.2,911.5 1086.6,916.0 1085.0,920.5 1083.4,925.0 1081.8,929.5 1080.3,934.0 1078.7,938.5 1077.1,943.0 1075.4,947.5 1073.8,952.0 1072.2,956.5 1070.6,961.0 1069.0,965.5 1067.4,970.0 1065.8,974.5 1064.2,979.0 1062.9,983.5 1061.5,988.0 1060.1,992.5 1058.8,997.0 1057.4,1001.5 1056.1,1006.0 1054.8,1010.5 1053.5,1015.0 1052.1,1019.5 1050.8,1024.0 1049.5,1028.5 1048.2,1033.0 1046.9,1037.5 1045.6,1042.0 1044.3,1046.5 1043.1,1051.0 1041.8,1055.5 1040.5,1060.0 1039.6,1064.5 1038.6,1069.0 1037.7,1073.5 1036.8,1078.0 1035.9,1082.5 1035.0,1087.0 1034.0,1091.5 1033.1,1096.0 1032.2,1100.5 1031.3,1105.0 1030.4,1109.5 1029.5,1114.0 1028.7,1118.5 1028.6,1123.0 1028.7,1127.5 1028.8,1132.0 1029.0,1136.5 1029.1,1141.0 1029.3,1145.5 1029.4,1150.0 1029.5,1154.5 1029.7,1159.0 1029.8,1163.5 1029.9,1168.0 1030.1,1172.5 1030.2,1177.0 1030.3,1181.5 1030.5,1186.0 1030.6,1190.5 1030.7,1195.0 1030.8,1199.5 1031.0,1204.0 1031.1,1208.5 1031.2,1213.0 1031.3,1217.5 1031.4,1222.0 1031.6,1226.5 1031.7,1231.0 1031.8,1235.5 1031.9,1240.0 1031.3,1244.5 1030.7,1249.0 1030.1,1253.5 1029.6,1258.0 1029.0,1262.5 1028.5,1267.0 1027.9,1271.5 1027.4,1276.0 1026.8,1280.5 1026.3,1285.0 1025.7,1289.5 1025.2,1294.0 1024.6,1298.5 1024.1,1303.0 1023.6,1307.5 1023.0,1312.0 1022.5,1316.5 1022.0,1321.0 1021.4,1325.5 1020.9,1330.0 1020.4,1334.5 1019.8,1339.0 1019.3,1343.5 1018.8,1348.0 1018.2,1352.5 1017.7,1357.0 1017.2,1361.5 1016.6,1366.0 1016.0,1370.5 1015.5,1375.0 1015.0,1379.5 1014.4,1384.0 1013.9,1388.5 1013.3,1393.0 1012.8,1397.5 1012.2,1402.0 1011.7,1406.5 1011.2,1411.0 1010.6,1415.5 1010.1,1420.0 1009.6,1424.5 1009.0,1429.0 1008.5,1433.5 1008.0,1438.0 1007.4,1442.5 1006.9,1447.0 1006.4,1451.5 1005.8,1456.0 1005.3,1460.5 1004.8,1465.0 1004.3,1469.5 1003.7,1474.0 1003.2,1478.5 1002.7,1483.0 1002.2,1487.5 1001.7,1492.0 1001.2,1496.5 1000.8,1501.0 1000.3,1505.5 999.8,1510.0 999.3,1514.5 998.8,1519.0 998.4,1523.5 997.9,1528.0 997.4,1532.5 996.9,1537.0 996.5,1541.5 996.0,1546.0 995.5,1550.5 995.1,1555.0 994.6,1559.5 994.1,1564.0" fill="none" stroke="#ee7788" stroke-width="2" stroke-linecap="round"/>
<text x="1338.0066114387355" y="660.0" font-size="10" fill="#ee7788" font-family="monospace" font-weight="bold">S1</text>
<polyline points="1277.0,700.0 1272.8,701.9 1268.6,703.8 1264.4,705.8 1260.2,707.7 1256.0,709.6 1251.9,711.5 1247.7,713.4 1243.6,715.4 1239.5,717.3 1235.4,719.2 1231.4,721.1 1227.3,723.0 1224.6,725.0 1222.8,726.9 1221.0,728.8 1219.3,730.7 1217.5,732.6 1215.7,734.6 1213.9,736.5 1212.2,738.4 1210.4,740.3 1208.7,742.2 1206.9,744.2 1205.2,746.1 1203.4,748.0 1201.7,749.9 1200.0,751.8 1198.3,753.8 1196.6,755.7 1194.8,757.6 1193.6,759.5 1192.5,761.4 1191.3,763.4 1190.1,765.3 1188.9,767.2 1187.7,769.1 1186.5,771.0 1185.4,773.0 1184.2,774.9 1183.0,776.8 1181.8,778.7 1180.7,780.6 1179.5,782.6 1178.4,784.5 1177.2,786.4 1176.0,788.3 1174.9,790.2 1173.7,792.2 1172.6,794.1 1171.5,796.0 1170.3,797.9 1169.2,799.8 1168.1,801.8 1166.9,803.7 1165.8,805.6 1164.7,807.5 1164.0,809.4 1163.3,811.4 1162.6,813.3 1162.0,815.2 1161.3,817.1 1160.6,819.0 1160.0,821.0 1159.6,822.9 1159.1,824.8 1158.7,826.7 1158.2,828.6 1157.8,830.6 1157.3,832.5 1156.9,834.4 1156.4,836.3 1156.0,838.2 1155.5,840.2 1155.1,842.1 1154.6,844.0 1154.1,845.9 1153.7,847.8 1153.2,849.8 1152.8,851.7 1152.3,853.6 1151.8,855.5 1151.3,857.4 1150.9,859.4 1150.4,861.3 1150.3,863.2 1150.2,865.1 1150.1,867.0 1150.0,869.0 1149.8,870.9 1149.7,872.8 1149.6,874.7 1149.5,876.6 1149.3,878.6 1149.2,880.5 1149.0,882.4 1148.9,884.3 1148.7,886.2 1148.5,888.2 1148.4,890.1 1148.2,892.0 1148.0,893.9 1147.8,895.8 1147.6,897.8 1147.5,899.7 1147.3,901.6 1147.1,903.5 1146.9,905.4 1146.6,907.4 1146.4,909.3 1146.2,911.2 1146.0,913.1 1145.8,915.0 1146.2,917.0 1146.6,918.9 1147.0,920.8 1147.4,922.7 1146.7,924.6 1145.9,926.6 1145.2,928.5 1144.4,930.4 1143.7,932.3 1143.0,934.2 1142.2,936.2 1141.5,938.1 1140.7,940.0 1140.1,941.9 1139.4,943.8 1138.7,945.8 1138.0,947.7 1137.3,949.6 1136.7,951.5 1136.0,953.4 1135.3,955.4 1134.6,957.3 1134.0,959.2 1133.3,961.1 1132.6,963.0 1131.9,965.0 1131.2,966.9 1130.6,968.8 1129.9,970.7 1129.2,972.6 1128.5,974.6 1127.8,976.5 1127.2,978.4 1126.5,980.3 1125.8,982.2 1125.1,984.2 1124.5,986.1 1123.8,988.0 1123.1,989.9 1122.4,991.8 1121.7,993.8 1121.1,995.7 1120.4,997.6 1119.7,999.5 1119.0,1001.4 1118.3,1003.4 1117.7,1005.3 1117.0,1007.2 1116.3,1009.1 1115.6,1011.0 1115.0,1013.0 1114.3,1014.9 1113.6,1016.8 1112.9,1018.7 1112.2,1020.6 1111.6,1022.6 1110.9,1024.5 1110.2,1026.4 1109.5,1028.3 1108.8,1030.2 1108.2,1032.2 1107.5,1034.1 1106.8,1036.0 1106.1,1037.9 1105.5,1039.8 1104.8,1041.8 1104.1,1043.7 1103.4,1045.6 1102.7,1047.5 1102.1,1049.4 1101.4,1051.4 1100.7,1053.3 1100.0,1055.2 1099.3,1057.1 1098.7,1059.0 1098.1,1061.0 1097.7,1062.9 1097.2,1064.8 1096.7,1066.7 1096.3,1068.6 1095.8,1070.6 1095.4,1072.5 1094.9,1074.4 1094.5,1076.3 1094.0,1078.2 1093.6,1080.2 1093.1,1082.1" fill="none" stroke="#4466cc" stroke-width="2" stroke-linecap="round"/>
<text x="1282.0234303517655" y="695.9999999999999" font-size="10" fill="#4466cc" font-family="monospace" font-weight="bold">S2</text>
<text x="350" y="1020" text-anchor="middle" font-size="11" fill="#aaaaaa" font-family="monospace">Lines fan from spine</text>
<text x="350" y="1036" text-anchor="middle" font-size="11" fill="#aaaaaa" font-family="monospace">T11/T12 = horizontal (WEFT)</text>
<text x="350" y="1052" text-anchor="middle" font-size="11" fill="#aaaaaa" font-family="monospace">L5 = vertical (WARP)</text>
<text x="1030" y="1020" text-anchor="middle" font-size="11" fill="#88ff88" font-family="monospace">Trunk folds 90° at hip</text>
<text x="1030" y="1036" text-anchor="middle" font-size="11" fill="#88ff88" font-family="monospace">T11/T12 rotate → become VERTICAL</text>
<text x="1030" y="1052" text-anchor="middle" font-size="11" fill="#88ff88" font-family="monospace">ALL lines ALIGN ↓</text>
<text x="690" y="640" text-anchor="middle" font-size="30" fill="#ffffff" font-family="monospace">→</text>
<text x="690" y="660" text-anchor="middle" font-size="10" fill="#888888" font-family="monospace">fold</text>
<rect x="10" y="1692" width="15" height="3" fill="#4466cc"/>
<text x="30" y="1697" font-size="9" fill="#4466cc" font-family="monospace">S2</text>
<rect x="10" y="1678" width="15" height="3" fill="#ee7788"/>
<text x="30" y="1683" font-size="9" fill="#ee7788" font-family="monospace">S1</text>
<rect x="10" y="1664" width="15" height="3" fill="#00ee00"/>
<text x="30" y="1669" font-size="9" fill="#00ee00" font-family="monospace">L5</text>
<rect x="10" y="1650" width="15" height="3" fill="#ddcc22"/>
<text x="30" y="1655" font-size="9" fill="#ddcc22" font-family="monospace">L4</text>
<rect x="10" y="1636" width="15" height="3" fill="#dd5555"/>
<text x="30" y="1641" font-size="9" fill="#dd5555" font-family="monospace">L3</text>
<rect x="10" y="1622" width="15" height="3" fill="#6699dd"/>
<text x="30" y="1627" font-size="9" fill="#6699dd" font-family="monospace">L2</text>
<rect x="10" y="1608" width="15" height="3" fill="#88bbee"/>
<text x="30" y="1613" font-size="9" fill="#88bbee" font-family="monospace">L1</text>
<rect x="10" y="1594" width="15" height="3" fill="#888888"/>
<text x="30" y="1599" font-size="9" fill="#888888" font-family="monospace">T12</text>
<rect x="10" y="1580" width="15" height="3" fill="#aaaaaa"/>
<text x="30" y="1585" font-size="9" fill="#aaaaaa" font-family="monospace">T11</text>
</svg>