<svg xmlns="http://www.w3.org/2000/svg" width="1651" height="1588">
<rect width="1651" height="1588" fill="#1a1a2e"/>
<polygon points="1478.8,134.0 1466.4,134.0 1454.0,134.2 1441.5,134.4 1429.1,134.8 1416.6,135.2 1404.2,135.7 1391.7,136.3 1379.2,137.0 1366.7,137.8 1354.3,138.7 1341.8,139.7 1329.3,140.8 1316.9,141.9 1304.5,143.2 1292.0,144.5 1279.7,146.0 1267.3,147.5 1255.0,149.2 1242.7,150.9 1230.4,152.8 1218.2,154.7 1206.1,156.7 1193.9,158.8 1181.9,161.0 1169.9,163.3 1157.9,165.7 1146.0,168.2 1134.2,170.8 1122.4,173.4 1110.8,176.2 1099.2,179.0 1087.6,182.0 1076.7,201.1 1065.9,220.3 1054.4,239.4 1041.8,258.5 1029.1,277.6 1015.0,296.8 1000.0,315.9 984.5,335.0 974.6,354.1 966.1,373.2 958.1,392.4 951.0,411.5 944.4,430.6 938.3,449.8 932.6,468.9 927.4,488.0 1437.2,486.6 1439.9,482.5 1444.4,475.6 1450.6,465.9 1458.5,453.4 1467.9,438.2 1477.1,420.2 1486.4,399.5 1493.7,376.0 1498.8,349.7 1493.1,320.7 1478.1,288.9 1468.9,254.3 1463.5,217.0 1466.1,176.9 1478.8,134.0 1488.6,1388.0 1488.6,1388.0 1488.6,1388.0 1488.6,1388.0 1488.6,1388.0 1488.6,1388.0 1488.6,1388.0 1488.6,1388.0 1488.6,1388.0 1488.6,1388.0 1488.6,1388.0 1488.6,1388.0 1488.6,1388.0 1488.6,1388.0 1488.6,1388.0 1488.6,1388.0 1290.7,1388.0 1294.8,1388.0 1298.9,1388.0 1303.1,1388.0 1307.2,1388.0 1311.3,1388.0 1315.4,1388.0 1319.6,1388.0 1323.7,1388.0 1327.8,1388.0 1331.9,1388.0 1336.1,1388.0 1340.2,1388.0 1344.3,1388.0 1348.4,1388.0 1352.6,1388.0 1356.7,1388.0 1360.8,1388.0 1364.9,1388.0 1369.0,1388.0 1373.2,1388.0 1377.3,1388.0 1381.4,1388.0 1385.5,1388.0 1389.7,1388.0 1393.8,1388.0 1397.9,1388.0 1402.0,1388.0 1406.2,1388.0 1410.3,1388.0 1414.4,1388.0 1418.5,1388.0 1422.6,1388.0 1426.8,1388.0 1430.9,1388.0 1435.0,1388.0 1439.1,1388.0 1443.3,1388.0 1447.4,1388.0 1451.5,1388.0 1455.6,1388.0 1459.8,1388.0 1463.9,1388.0 1468.0,1388.0 1472.1,1388.0 1476.3,1388.0 1480.4,1388.0 1484.5,1388.0 1488.6,1388.0" fill="#d4b896" stroke="none" opacity="0.7"/>
<polygon points="171.2,134.0 183.6,134.0 196.0,134.2 208.5,134.4 220.9,134.8 233.4,135.2 245.8,135.7 258.3,136.3 270.8,137.0 283.3,137.8 295.7,138.7 308.2,139.7 320.7,140.8 333.1,141.9 345.5,143.2 358.0,144.5 370.3,146.0 382.7,147.5 395.0,149.2 407.3,150.9 419.6,152.8 431.8,154.7 443.9,156.7 456.1,158.8 468.1,161.0 480.1,163.3 492.1,165.7 504.0,168.2 515.8,170.8 527.6,173.4 539.2,176.2 550.8,179.0 562.4,182.0 573.3,201.1 584.1,220.3 595.6,239.4 608.2,258.5 620.9,277.6 635.0,296.8 650.0,315.9 665.5,335.0 675.4,354.1 683.9,373.2 691.9,392.4 699.0,411.5 705.6,430.6 711.7,449.8 717.4,468.9 722.6,488.0 212.8,486.6 210.1,482.5 205.6,475.6 199.4,465.9 191.5,453.4 182.1,438.2 172.9,420.2 163.6,399.5 156.3,376.0 151.2,349.7 156.9,320.7 171.9,288.9 181.1,254.3 186.5,217.0 183.9,176.9 171.2,134.0 161.4,1388.0 161.4,1388.0 161.4,1388.0 161.4,1388.0 161.4,1388.0 161.4,1388.0 161.4,1388.0 161.4,1388.0 161.4,1388.0 161.4,1388.0 161.4,1388.0 161.4,1388.0 161.4,1388.0 161.4,1388.0 161.4,1388.0 161.4,1388.0 359.3,1388.0 355.2,1388.0 351.1,1388.0 346.9,1388.0 342.8,1388.0 338.7,1388.0 334.6,1388.0 330.4,1388.0 326.3,1388.0 322.2,1388.0 318.1,1388.0 313.9,1388.0 309.8,1388.0 305.7,1388.0 301.6,1388.0 297.4,1388.0 293.3,1388.0 289.2,1388.0 285.1,1388.0 281.0,1388.0 276.8,1388.0 272.7,1388.0 268.6,1388.0 264.5,1388.0 260.3,1388.0 256.2,1388.0 252.1,1388.0 248.0,1388.0 243.8,1388.0 239.7,1388.0 235.6,1388.0 231.5,1388.0 227.4,1388.0 223.2,1388.0 219.1,1388.0 215.0,1388.0 210.9,1388.0 206.7,1388.0 202.6,1388.0 198.5,1388.0 194.4,1388.0 190.2,1388.0 186.1,1388.0 182.0,1388.0 177.9,1388.0 173.7,1388.0 169.6,1388.0 165.5,1388.0 161.4,1388.0" fill="#d4b896" stroke="none" opacity="0.7"/>
<polyline points="1478.8,134.0 1464.6,182.0 1463.2,230.0 1477.3,284.0 1508.4,338.0 1511.3,392.0 1505.6,440.0 1487.2,488.0 1469.3,524.0 1457.3,548.0 1456.1,566.0 1455.3,578.0 1454.5,590.0" fill="none" stroke="#00cc00" stroke-width="2"/>
<polygon points="1474.7610115284708,134.0 1478.7610115284708,130.0 1482.7610115284708,134.0 1478.7610115284708,138.0" fill="#00cc00"/>
<text x="1486.7610115284708" y="137.0" font-size="9" fill="#00cc00" font-family="monospace">T11</text>
<polygon points="1460.6238445873169,182.0 1464.6238445873169,178.0 1468.6238445873169,182.0 1464.6238445873169,186.0" fill="#00cc00"/>
<text x="1472.6238445873169" y="185.0" font-size="9" fill="#00cc00" font-family="monospace">T12</text>
<polygon points="1459.2101278932014,230.0 1463.2101278932014,226.0 1467.2101278932014,230.0 1463.2101278932014,234.0" fill="#00cc00"/>
<text x="1471.2101278932014" y="233.0" font-size="9" fill="#00cc00" font-family="monospace">L1</text>
<polygon points="1473.3472948343556,284.0 1477.3472948343556,280.0 1481.3472948343556,284.0 1477.3472948343556,288.0" fill="#00cc00"/>
<text x="1485.3472948343556" y="287.0" font-size="9" fill="#00cc00" font-family="monospace">L2</text>
<polygon points="1504.4490621048944,338.0 1508.4490621048944,334.0 1512.4490621048944,338.0 1508.4490621048944,342.0" fill="#00cc00"/>
<text x="1516.4490621048944" y="341.0" font-size="9" fill="#00cc00" font-family="monospace">L3</text>
<polygon points="1507.2764954931254,392.0 1511.2764954931254,388.0 1515.2764954931254,392.0 1511.2764954931254,396.0" fill="#00cc00"/>
<text x="1519.2764954931254" y="395.0" font-size="9" fill="#00cc00" font-family="monospace">L4</text>
<polygon points="1501.6216287166637,440.0 1505.6216287166637,436.0 1509.6216287166637,440.0 1505.6216287166637,444.0" fill="#00cc00"/>
<text x="1513.6216287166637" y="443.0" font-size="9" fill="#00cc00" font-family="monospace">L5</text>
<polygon points="1483.2433116931634,488.0 1487.2433116931634,484.0 1491.2433116931634,488.0 1487.2433116931634,492.0" fill="#00cc00"/>
<text x="1495.2433116931634" y="491.0" font-size="9" fill="#00cc00" font-family="monospace">S1</text>
<polygon points="1465.259436063137,524.0 1469.259436063137,520.0 1473.259436063137,524.0 1469.259436063137,528.0" fill="#00cc00"/>
<text x="1477.259436063137" y="527.0" font-size="9" fill="#00cc00" font-family="monospace">S2</text>
<polygon points="1453.2701856431195,548.0 1457.2701856431195,544.0 1461.2701856431195,548.0 1457.2701856431195,552.0" fill="#00cc00"/>
<text x="1465.2701856431195" y="551.0" font-size="9" fill="#00cc00" font-family="monospace">S3</text>
<polygon points="1452.0713611044175,566.0 1456.0713611044175,562.0 1460.0713611044175,566.0 1456.0713611044175,570.0" fill="#00cc00"/>
<text x="1464.0713611044175" y="569.0" font-size="9" fill="#00cc00" font-family="monospace">S4</text>
<polygon points="1451.272144745283,578.0 1455.272144745283,574.0 1459.272144745283,578.0 1455.272144745283,582.0" fill="#00cc00"/>
<text x="1463.272144745283" y="581.0" font-size="9" fill="#00cc00" font-family="monospace">S5</text>
<polygon points="1450.4729283861484,590.0 1454.4729283861484,586.0 1458.4729283861484,590.0 1454.4729283861484,594.0" fill="#00cc00"/>
<text x="1462.4729283861484" y="593.0" font-size="9" fill="#00cc00" font-family="monospace">Co</text>
<polyline points="171.2,134.0 185.4,182.0 186.8,230.0 172.7,284.0 141.6,338.0 138.7,392.0 144.4,440.0 162.8,488.0 180.7,524.0 192.7,548.0 193.9,566.0 194.7,578.0 195.5,590.0" fill="none" stroke="#00cc00" stroke-width="2"/>
<polygon points="167.23898847152918,134.0 171.23898847152918,130.0 175.23898847152918,134.0 171.23898847152918,138.0" fill="#00cc00"/>
<text x="121.23898847152918" y="137.0" font-size="9" fill="#00cc00" font-family="monospace">T11</text>
<polygon points="181.37615541268315,182.0 185.37615541268315,178.0 189.37615541268315,182.0 185.37615541268315,186.0" fill="#00cc00"/>
<text x="135.37615541268315" y="185.0" font-size="9" fill="#00cc00" font-family="monospace">T12</text>
<polygon points="182.7898721067986,230.0 186.7898721067986,226.0 190.7898721067986,230.0 186.7898721067986,234.0" fill="#00cc00"/>
<text x="136.7898721067986" y="233.0" font-size="9" fill="#00cc00" font-family="monospace">L1</text>
<polygon points="168.65270516564453,284.0 172.65270516564453,280.0 176.65270516564453,284.0 172.65270516564453,288.0" fill="#00cc00"/>
<text x="122.65270516564453" y="287.0" font-size="9" fill="#00cc00" font-family="monospace">L2</text>
<polygon points="137.55093789510568,338.0 141.55093789510568,334.0 145.55093789510568,338.0 141.55093789510568,342.0" fill="#00cc00"/>
<text x="91.55093789510568" y="341.0" font-size="9" fill="#00cc00" font-family="monospace">L3</text>
<polygon points="134.72350450687475,392.0 138.72350450687475,388.0 142.72350450687475,392.0 138.72350450687475,396.0" fill="#00cc00"/>
<text x="88.72350450687475" y="395.0" font-size="9" fill="#00cc00" font-family="monospace">L4</text>
<polygon points="140.37837128333626,440.0 144.37837128333626,436.0 148.37837128333626,440.0 144.37837128333626,444.0" fill="#00cc00"/>
<text x="94.37837128333626" y="443.0" font-size="9" fill="#00cc00" font-family="monospace">L5</text>
<polygon points="158.75668830683674,488.0 162.75668830683674,484.0 166.75668830683674,488.0 162.75668830683674,492.0" fill="#00cc00"/>
<text x="112.75668830683674" y="491.0" font-size="9" fill="#00cc00" font-family="monospace">S1</text>
<polygon points="176.74056393686294,524.0 180.74056393686294,520.0 184.74056393686294,524.0 180.74056393686294,528.0" fill="#00cc00"/>
<text x="130.74056393686294" y="527.0" font-size="9" fill="#00cc00" font-family="monospace">S2</text>
<polygon points="188.72981435688064,548.0 192.72981435688064,544.0 196.72981435688064,548.0 192.72981435688064,552.0" fill="#00cc00"/>
<text x="142.72981435688064" y="551.0" font-size="9" fill="#00cc00" font-family="monospace">S3</text>
<polygon points="189.92863889558248,566.0 193.92863889558248,562.0 197.92863889558248,566.0 193.92863889558248,570.0" fill="#00cc00"/>
<text x="143.92863889558248" y="569.0" font-size="9" fill="#00cc00" font-family="monospace">S4</text>
<polygon points="190.72785525471704,578.0 194.72785525471704,574.0 198.72785525471704,578.0 194.72785525471704,582.0" fill="#00cc00"/>
<text x="144.72785525471704" y="581.0" font-size="9" fill="#00cc00" font-family="monospace">S5</text>
<polygon points="191.52707161385172,590.0 195.52707161385172,586.0 199.52707161385172,590.0 195.52707161385172,594.0" fill="#00cc00"/>
<text x="145.52707161385172" y="593.0" font-size="9" fill="#00cc00" font-family="monospace">Co</text>
<polyline points="1478.8,134.0 1466.4,134.0 1454.0,134.2 1441.5,134.4 1429.1,134.8 1416.6,135.2 1404.2,135.7 1391.7,136.3 1379.2,137.0 1366.7,137.8 1354.3,138.7 1341.8,139.7 1329.3,140.8 1316.9,141.9 1304.5,143.2 1292.0,144.5 1279.7,146.0 1267.3,147.5 1255.0,149.2 1242.7,150.9 1230.4,152.8 1218.2,154.7 1206.1,156.7 1193.9,158.8 1181.9,161.0 1169.9,163.3 1157.9,165.7 1146.0,168.2 1134.2,170.8 1122.4,173.4 1110.8,176.2 1099.2,179.0 1087.6,182.0 1076.7,201.1 1065.9,220.3 1054.4,239.4 1041.8,258.5 1029.1,277.6 1015.0,296.8 1000.0,315.9 984.5,335.0 974.6,354.1 966.1,373.2 958.1,392.4 951.0,411.5 944.4,430.6 938.3,449.8 932.6,468.9 927.4,488.0 1437.2,486.6 1439.9,482.5 1444.4,475.6 1450.6,465.9 1458.5,453.4 1467.9,438.2 1477.1,420.2 1486.4,399.5 1493.7,376.0 1498.8,349.7 1493.1,320.7 1478.1,288.9 1468.9,254.3 1463.5,217.0 1466.1,176.9 1478.8,134.0" fill="none" stroke="#cccc00" stroke-width="1.5"/>
<polyline points="171.2,134.0 183.6,134.0 196.0,134.2 208.5,134.4 220.9,134.8 233.4,135.2 245.8,135.7 258.3,136.3 270.8,137.0 283.3,137.8 295.7,138.7 308.2,139.7 320.7,140.8 333.1,141.9 345.5,143.2 358.0,144.5 370.3,146.0 382.7,147.5 395.0,149.2 407.3,150.9 419.6,152.8 431.8,154.7 443.9,156.7 456.1,158.8 468.1,161.0 480.1,163.3 492.1,165.7 504.0,168.2 515.8,170.8 527.6,173.4 539.2,176.2 550.8,179.0 562.4,182.0 573.3,201.1 584.1,220.3 595.6,239.4 608.2,258.5 620.9,277.6 635.0,296.8 650.0,315.9 665.5,335.0 675.4,354.1 683.9,373.2 691.9,392.4 699.0,411.5 705.6,430.6 711.7,449.8 717.4,468.9 722.6,488.0 212.8,486.6 210.1,482.5 205.6,475.6 199.4,465.9 191.5,453.4 182.1,438.2 172.9,420.2 163.6,399.5 156.3,376.0 151.2,349.7 156.9,320.7 171.9,288.9 181.1,254.3 186.5,217.0 183.9,176.9 171.2,134.0" fill="none" stroke="#cccc00" stroke-width="1.5"/>
<circle cx="1478.7610115284708" cy="134.0" r="5" fill="#ff4444"/>
<text x="1486.7610115284708" y="138.0" font-size="11" fill="#ff4444" font-family="monospace" font-weight="bold">T11</text>
<circle cx="1087.6327261565416" cy="182.0" r="5" fill="#ff8800"/>
<text x="1095.6327261565416" y="186.0" font-size="11" fill="#ff8800" font-family="monospace">BB</text>
<circle cx="927.4115008234621" cy="488.0" r="5" fill="#cc00cc"/>
<text x="935.4115008234621" y="492.0" font-size="11" fill="#cc00cc" font-family="monospace">PB</text>
<circle cx="171.23898847152918" cy="134.0" r="5" fill="#ff4444"/>
<text x="179.23898847152918" y="138.0" font-size="11" fill="#ff4444" font-family="monospace" font-weight="bold">T11</text>
<circle cx="562.3672738434584" cy="182.0" r="5" fill="#ff8800"/>
<text x="570.3672738434584" y="186.0" font-size="11" fill="#ff8800" font-family="monospace">BB</text>
<circle cx="722.5884991765379" cy="488.0" r="5" fill="#cc00cc"/>
<text x="730.5884991765379" y="492.0" font-size="11" fill="#cc00cc" font-family="monospace">PB</text>
<polyline points="1463.2,230.0 1462.5,231.6 1461.8,233.2 1461.1,234.8 1460.4,236.4 1459.7,238.0 1458.9,239.5 1458.2,241.1 1457.5,242.7 1456.7,244.3 1456.0,245.9 1455.2,247.5 1454.5,249.1 1453.7,250.7 1453.0,252.3 1452.2,253.9 1451.4,255.4 1450.6,257.0 1449.8,258.6 1449.1,260.2 1448.3,261.8 1447.4,263.4 1446.6,265.0 1445.8,266.6 1445.0,268.2 1444.2,269.8 1443.3,271.3 1442.5,272.9 1441.6,274.5 1440.1,276.1 1438.6,277.7 1437.0,279.3 1435.5,280.9 1433.9,282.5 1432.3,284.1 1431.1,285.7 1429.9,287.2 1428.7,288.8 1427.4,290.4 1426.1,292.0 1424.8,293.6 1423.5,295.2 1422.2,296.8 1420.8,298.4 1419.4,300.0 1418.0,301.5 1416.6,303.1 1415.2,304.7 1413.7,306.3 1412.2,307.9 1410.7,309.5 1409.2,311.1 1407.7,312.7 1406.1,314.3 1404.6,315.9 1403.0,317.5 1401.4,319.0 1399.7,320.6 1398.1,322.2 1394.9,323.8 1391.7,325.4 1388.5,327.0 1385.2,328.6 1382.0,330.2 1378.7,331.8 1375.4,333.4 1372.1,334.9 1368.8,336.5 1365.4,338.1 1361.6,339.7 1357.8,341.3 1354.0,342.9 1350.3,344.5 1346.5,346.1 1342.8,347.7 1339.1,349.2 1335.5,350.8 1331.8,352.4 1328.2,354.0 1324.6,355.6 1321.0,357.2 1317.5,358.8 1314.0,360.4 1310.5,362.0 1307.0,363.6 1303.6,365.2 1300.2,366.7 1296.1,368.3 1292.0,369.9 1287.9,371.5 1283.9,373.1 1279.9,374.7 1276.0,376.3 1272.1,377.9 1268.1,379.5 1264.2,381.0 1260.3,382.6 1256.5,384.2 1252.6,385.8 1248.7,387.4 1244.9,389.0 1241.0,390.6 1237.2,392.2 1233.4,393.8 1229.6,395.4 1225.8,397.0 1222.0,398.5 1218.2,400.1 1214.5,401.7 1210.7,403.3 1207.0,404.9 1203.2,406.5 1199.5,408.1 1195.8,409.7 1192.1,411.3 1188.8,412.8 1185.5,414.4 1182.2,416.0 1179.0,417.6 1175.7,419.2 1172.4,420.8 1169.2,422.4 1166.0,424.0 1162.8,425.6 1159.5,427.2 1156.3,428.8 1153.2,430.3 1150.0,431.9 1146.8,433.5 1143.7,435.1 1140.5,436.7 1137.4,438.3 1134.3,439.9 1131.2,441.5 1128.1,443.1 1125.0,444.6 1121.9,446.2 1118.8,447.8 1115.8,449.4 1112.7,451.0 1109.7,452.6 1106.7,454.2 1103.7,455.8 1100.9,457.4 1098.1,459.0 1095.3,460.5 1092.6,462.1 1089.8,463.7 1087.1,465.3 1084.4,466.9 1081.7,468.5 1078.9,470.1 1076.2,471.7 1073.6,473.3 1070.9,474.9 1068.2,476.4 1065.6,478.0 1062.9,479.6 1060.3,481.2 1057.7,482.8 1055.1,484.4 1052.5,486.0 1049.9,487.6 1047.5,489.2 1045.3,490.8 1043.0,492.3 1040.8,493.9 1038.6,495.5 1036.3,497.1 1034.1,498.7 1031.9,500.3 1029.7,501.9 1027.5,503.5 1024.2,505.1 1020.8,506.7 1017.4,508.2 1014.1,509.8 1010.8,511.4 1007.5,513.0 1004.2,514.6 1000.9,516.2 997.6,517.8 994.3,519.4 991.1,521.0 987.8,522.6 984.6,524.1 981.4,525.7 979.5,527.3 977.6,528.9 975.7,530.5 973.8,532.1 971.9,533.7 970.1,535.3 968.2,536.9 966.4,538.5 964.5,540.0 962.7,541.6 960.8,543.2 959.0,544.8 957.2,546.4 955.4,548.0" fill="none" stroke="#88bbee" stroke-width="2" stroke-linecap="round"/>
<text x="1468.2101278932014" y="225.0" font-size="10" fill="#88bbee" font-family="monospace" font-weight="bold">L1</text>
<polyline points="186.8,230.0 187.5,231.6 188.2,233.2 188.9,234.8 189.6,236.4 190.3,238.0 191.1,239.5 191.8,241.1 192.5,242.7 193.3,244.3 194.0,245.9 194.8,247.5 195.5,249.1 196.3,250.7 197.0,252.3 197.8,253.9 198.6,255.4 199.4,257.0 200.2,258.6 200.9,260.2 201.7,261.8 202.6,263.4 203.4,265.0 204.2,266.6 205.0,268.2 205.8,269.8 206.7,271.3 207.5,272.9 208.4,274.5 209.9,276.1 211.4,277.7 213.0,279.3 214.5,280.9 216.1,282.5 217.7,284.1 218.9,285.7 220.1,287.2 221.3,288.8 222.6,290.4 223.9,292.0 225.2,293.6 226.5,295.2 227.8,296.8 229.2,298.4 230.6,300.0 232.0,301.5 233.4,303.1 234.8,304.7 236.3,306.3 237.8,307.9 239.3,309.5 240.8,311.1 242.3,312.7 243.9,314.3 245.4,315.9 247.0,317.5 248.6,319.0 250.3,320.6 251.9,322.2 255.1,323.8 258.3,325.4 261.5,327.0 264.8,328.6 268.0,330.2 271.3,331.8 274.6,333.4 277.9,334.9 281.2,336.5 284.6,338.1 288.4,339.7 292.2,341.3 296.0,342.9 299.7,344.5 303.5,346.1 307.2,347.7 310.9,349.2 314.5,350.8 318.2,352.4 321.8,354.0 325.4,355.6 329.0,357.2 332.5,358.8 336.0,360.4 339.5,362.0 343.0,363.6 346.4,365.2 349.8,366.7 353.9,368.3 358.0,369.9 362.1,371.5 366.1,373.1 370.1,374.7 374.0,376.3 377.9,377.9 381.9,379.5 385.8,381.0 389.7,382.6 393.5,384.2 397.4,385.8 401.3,387.4 405.1,389.0 409.0,390.6 412.8,392.2 416.6,393.8 420.4,395.4 424.2,397.0 428.0,398.5 431.8,400.1 435.5,401.7 439.3,403.3 443.0,404.9 446.8,406.5 450.5,408.1 454.2,409.7 457.9,411.3 461.2,412.8 464.5,414.4 467.8,416.0 471.0,417.6 474.3,419.2 477.6,420.8 480.8,422.4 484.0,424.0 487.2,425.6 490.5,427.2 493.7,428.8 496.8,430.3 500.0,431.9 503.2,433.5 506.3,435.1 509.5,436.7 512.6,438.3 515.7,439.9 518.8,441.5 521.9,443.1 525.0,444.6 528.1,446.2 531.2,447.8 534.2,449.4 537.3,451.0 540.3,452.6 543.3,454.2 546.3,455.8 549.1,457.4 551.9,459.0 554.7,460.5 557.4,462.1 560.2,463.7 562.9,465.3 565.6,466.9 568.3,468.5 571.1,470.1 573.8,471.7 576.4,473.3 579.1,474.9 581.8,476.4 584.4,478.0 587.1,479.6 589.7,481.2 592.3,482.8 594.9,484.4 597.5,486.0 600.1,487.6 602.5,489.2 604.7,490.8 607.0,492.3 609.2,493.9 611.4,495.5 613.7,497.1 615.9,498.7 618.1,500.3 620.3,501.9 622.5,503.5 625.8,505.1 629.2,506.7 632.6,508.2 635.9,509.8 639.2,511.4 642.5,513.0 645.8,514.6 649.1,516.2 652.4,517.8 655.7,519.4 658.9,521.0 662.2,522.6 665.4,524.1 668.6,525.7 670.5,527.3 672.4,528.9 674.3,530.5 676.2,532.1 678.1,533.7 679.9,535.3 681.8,536.9 683.6,538.5 685.5,540.0 687.3,541.6 689.2,543.2 691.0,544.8 692.8,546.4 694.6,548.0" fill="none" stroke="#88bbee" stroke-width="2" stroke-linecap="round"/>
<text x="191.7898721067986" y="225.0" font-size="10" fill="#88bbee" font-family="monospace" font-weight="bold">L1</text>
<polyline points="1477.3,284.0 1476.1,286.7 1474.9,289.4 1473.6,292.1 1472.3,294.8 1470.9,297.5 1469.5,300.2 1468.0,302.9 1466.4,305.6 1464.8,308.3 1463.2,311.0 1461.5,313.7 1459.7,316.4 1457.1,319.1 1454.5,321.8 1451.7,324.5 1448.9,327.2 1446.0,329.9 1443.0,332.6 1440.0,335.3 1436.9,338.0 1432.6,340.7 1428.3,343.4 1423.9,346.1 1419.6,348.8 1415.2,351.5 1410.8,354.2 1406.3,356.9 1401.9,359.6 1395.6,362.3 1389.3,365.0 1383.1,367.7 1376.8,370.4 1370.6,373.1 1364.5,375.8 1358.3,378.5 1352.3,381.2 1346.3,383.9 1340.3,386.6 1334.5,389.3 1328.7,392.0 1322.9,394.7 1317.3,397.4 1311.8,400.1 1306.3,402.8 1301.0,405.5 1295.7,408.2 1290.5,410.9 1285.3,413.6 1280.3,416.3 1275.3,419.0 1270.4,421.7 1265.6,424.4 1260.8,427.1 1256.0,429.8 1251.2,432.5 1246.4,435.2 1241.7,437.9 1237.0,440.6 1232.3,443.3 1227.7,446.0 1223.1,448.7 1218.5,451.4 1213.9,454.1 1209.4,456.8 1204.9,459.5 1200.4,462.2 1196.0,464.9 1191.5,467.6 1188.9,470.3 1186.4,473.0 1183.8,475.7 1181.2,478.4 1178.7,481.1 1176.2,483.8 1173.7,486.5 1171.5,489.2 1169.6,491.9 1167.8,494.6 1166.0,497.3 1164.1,500.0 1162.3,502.7 1160.6,505.4 1158.8,508.1 1157.0,510.8 1155.3,513.5 1153.5,516.2 1151.8,518.9 1150.1,521.6 1148.4,524.3 1146.7,527.0 1145.0,529.7 1143.3,532.4 1141.7,535.1 1140.0,537.8 1138.4,540.5 1136.8,543.2 1135.2,545.9 1133.6,548.6 1131.5,551.3 1129.5,554.0 1127.5,556.7 1125.4,559.4 1123.4,562.1 1121.4,564.8 1119.4,567.5 1117.4,570.2 1115.5,572.9 1113.5,575.6 1111.5,578.3 1109.6,581.0 1107.7,583.7 1105.7,586.4 1103.8,589.1 1101.9,591.8 1101.2,594.5 1100.4,597.2 1099.7,599.9 1099.0,602.6 1098.2,605.3 1097.5,608.0 1096.8,610.7 1096.1,613.4 1095.4,616.1 1094.7,618.8 1094.0,621.5 1093.3,624.2 1092.6,626.9 1092.0,629.6 1091.3,632.3 1090.6,635.0 1090.0,637.7 1089.3,640.4 1088.7,643.1 1088.1,645.8 1087.6,648.5 1087.1,651.2 1086.6,653.9 1086.2,656.6 1085.7,659.3 1085.2,662.0 1084.8,664.7 1084.4,667.4 1083.7,670.1 1083.1,672.8 1082.6,675.5 1082.0,678.2 1081.4,680.9 1080.9,683.6 1080.3,686.3 1079.8,689.0 1079.2,691.7 1078.7,694.4 1078.2,697.1 1077.7,699.8 1077.2,702.5 1076.7,705.2 1076.2,707.9 1075.8,710.6 1075.3,713.3 1074.9,716.0 1074.4,718.7 1074.0,721.4 1073.6,724.1 1073.2,726.8 1072.8,729.5 1072.4,732.2 1072.0,734.9 1071.7,737.6 1071.3,740.3 1070.9,743.0 1070.6,745.7 1070.3,748.4 1070.4,751.1 1070.5,753.8 1070.6,756.5 1070.7,759.2 1070.8,761.9 1071.0,764.6 1071.5,767.3 1071.9,770.0 1072.4,772.7 1072.8,775.4 1073.3,778.1 1073.7,780.8 1074.2,783.5 1074.7,786.2 1075.2,788.9 1075.8,791.6 1076.3,794.3 1076.8,797.0 1077.4,799.7 1077.9,802.4 1078.5,805.1 1079.1,807.8 1079.7,810.5 1080.2,813.2 1080.9,815.9 1081.5,818.6 1082.1,821.3 1082.7,824.0" fill="none" stroke="#6699dd" stroke-width="2" stroke-linecap="round"/>
<text x="1482.3472948343556" y="279.0" font-size="10" fill="#6699dd" font-family="monospace" font-weight="bold">L2</text>
<polyline points="172.7,284.0 173.9,286.7 175.1,289.4 176.4,292.1 177.7,294.8 179.1,297.5 180.5,300.2 182.0,302.9 183.6,305.6 185.2,308.3 186.8,311.0 188.5,313.7 190.3,316.4 192.9,319.1 195.5,321.8 198.3,324.5 201.1,327.2 204.0,329.9 207.0,332.6 210.0,335.3 213.1,338.0 217.4,340.7 221.7,343.4 226.1,346.1 230.4,348.8 234.8,351.5 239.2,354.2 243.7,356.9 248.1,359.6 254.4,362.3 260.7,365.0 266.9,367.7 273.2,370.4 279.4,373.1 285.5,375.8 291.7,378.5 297.7,381.2 303.7,383.9 309.7,386.6 315.5,389.3 321.3,392.0 327.1,394.7 332.7,397.4 338.2,400.1 343.7,402.8 349.0,405.5 354.3,408.2 359.5,410.9 364.7,413.6 369.7,416.3 374.7,419.0 379.6,421.7 384.4,424.4 389.2,427.1 394.0,429.8 398.8,432.5 403.6,435.2 408.3,437.9 413.0,440.6 417.7,443.3 422.3,446.0 426.9,448.7 431.5,451.4 436.1,454.1 440.6,456.8 445.1,459.5 449.6,462.2 454.0,464.9 458.5,467.6 461.1,470.3 463.6,473.0 466.2,475.7 468.8,478.4 471.3,481.1 473.8,483.8 476.3,486.5 478.5,489.2 480.4,491.9 482.2,494.6 484.0,497.3 485.9,500.0 487.7,502.7 489.4,505.4 491.2,508.1 493.0,510.8 494.7,513.5 496.5,516.2 498.2,518.9 499.9,521.6 501.6,524.3 503.3,527.0 505.0,529.7 506.7,532.4 508.3,535.1 510.0,537.8 511.6,540.5 513.2,543.2 514.8,545.9 516.4,548.6 518.5,551.3 520.5,554.0 522.5,556.7 524.6,559.4 526.6,562.1 528.6,564.8 530.6,567.5 532.6,570.2 534.5,572.9 536.5,575.6 538.5,578.3 540.4,581.0 542.3,583.7 544.3,586.4 546.2,589.1 548.1,591.8 548.8,594.5 549.6,597.2 550.3,599.9 551.0,602.6 551.8,605.3 552.5,608.0 553.2,610.7 553.9,613.4 554.6,616.1 555.3,618.8 556.0,621.5 556.7,624.2 557.4,626.9 558.0,629.6 558.7,632.3 559.4,635.0 560.0,637.7 560.7,640.4 561.3,643.1 561.9,645.8 562.4,648.5 562.9,651.2 563.4,653.9 563.8,656.6 564.3,659.3 564.8,662.0 565.2,664.7 565.6,667.4 566.3,670.1 566.9,672.8 567.4,675.5 568.0,678.2 568.6,680.9 569.1,683.6 569.7,686.3 570.2,689.0 570.8,691.7 571.3,694.4 571.8,697.1 572.3,699.8 572.8,702.5 573.3,705.2 573.8,707.9 574.2,710.6 574.7,713.3 575.1,716.0 575.6,718.7 576.0,721.4 576.4,724.1 576.8,726.8 577.2,729.5 577.6,732.2 578.0,734.9 578.3,737.6 578.7,740.3 579.1,743.0 579.4,745.7 579.7,748.4 579.6,751.1 579.5,753.8 579.4,756.5 579.3,759.2 579.2,761.9 579.0,764.6 578.5,767.3 578.1,770.0 577.6,772.7 577.2,775.4 576.7,778.1 576.3,780.8 575.8,783.5 575.3,786.2 574.8,788.9 574.2,791.6 573.7,794.3 573.2,797.0 572.6,799.7 572.1,802.4 571.5,805.1 570.9,807.8 570.3,810.5 569.8,813.2 569.1,815.9 568.5,818.6 567.9,821.3 567.3,824.0" fill="none" stroke="#6699dd" stroke-width="2" stroke-linecap="round"/>
<text x="177.65270516564453" y="279.0" font-size="10" fill="#6699dd" font-family="monospace" font-weight="bold">L2</text>
<polyline points="1508.4,338.0 1505.6,340.9 1502.6,343.7 1499.7,346.6 1496.7,349.4 1493.7,352.2 1490.6,355.1 1487.5,358.0 1484.3,360.8 1481.1,363.7 1477.9,366.5 1474.7,369.3 1471.3,372.2 1468.0,375.0 1464.6,377.9 1461.2,380.8 1457.7,383.6 1451.7,386.5 1445.5,389.3 1439.3,392.2 1432.8,395.0 1426.2,397.9 1419.6,400.7 1413.0,403.6 1406.4,406.4 1399.9,409.2 1393.3,412.1 1386.8,415.0 1380.4,417.8 1374.0,420.7 1367.6,423.5 1361.8,426.3 1356.0,429.2 1350.3,432.0 1344.6,434.9 1339.1,437.8 1333.6,440.6 1328.2,443.5 1322.8,446.3 1317.6,449.2 1312.6,452.0 1307.6,454.9 1302.7,457.7 1298.0,460.6 1293.4,463.4 1288.8,466.2 1284.4,469.1 1280.0,472.0 1275.7,474.8 1271.6,477.7 1267.4,480.5 1264.2,483.4 1261.1,486.2 1258.2,489.0 1255.7,491.9 1253.3,494.8 1250.9,497.6 1248.5,500.5 1246.2,503.3 1243.8,506.1 1241.5,509.0 1239.1,511.9 1236.8,514.7 1234.5,517.6 1232.3,520.4 1230.0,523.3 1227.7,526.1 1225.5,529.0 1223.3,531.8 1221.1,534.7 1218.9,537.5 1216.7,540.4 1214.6,543.2 1212.4,546.0 1210.3,548.9 1208.2,551.8 1206.1,554.6 1204.9,557.5 1203.7,560.3 1202.5,563.2 1201.4,566.0 1200.2,568.9 1199.0,571.7 1197.8,574.6 1196.7,577.4 1195.5,580.3 1194.4,583.1 1193.3,585.9 1192.1,588.8 1191.0,591.6 1189.9,594.5 1188.8,597.4 1187.7,600.2 1186.6,603.1 1185.5,605.9 1184.4,608.8 1183.3,611.6 1182.3,614.5 1181.2,617.3 1180.1,620.2 1179.1,623.0 1177.7,625.9 1176.3,628.7 1174.9,631.6 1173.5,634.4 1172.2,637.3 1170.8,640.1 1169.4,643.0 1168.1,645.8 1166.9,648.7 1165.6,651.5 1164.3,654.4 1163.1,657.2 1161.9,660.0 1160.7,662.9 1159.5,665.8 1158.3,668.6 1156.8,671.5 1155.3,674.3 1153.8,677.2 1152.3,680.0 1150.8,682.9 1149.4,685.7 1148.0,688.5 1146.5,691.4 1145.1,694.2 1143.8,697.1 1142.4,699.9 1141.0,702.8 1139.7,705.6 1138.4,708.5 1137.0,711.4 1135.7,714.2 1134.5,717.1 1133.2,719.9 1131.9,722.8 1130.7,725.6 1129.5,728.5 1128.3,731.3 1127.1,734.1 1125.9,737.0 1125.2,739.8 1124.5,742.7 1123.8,745.5 1123.1,748.4 1122.4,751.2 1121.8,754.1 1121.2,757.0 1120.5,759.8 1119.9,762.7 1119.4,765.5 1119.0,768.4 1118.7,771.2 1118.3,774.1 1118.0,776.9 1117.7,779.8 1117.4,782.6 1117.2,785.5 1116.9,788.3 1116.7,791.2 1116.4,794.0 1116.2,796.9 1116.1,799.7 1115.9,802.5 1115.7,805.4 1115.6,808.2 1115.5,811.1 1115.6,813.9 1115.7,816.8 1115.8,819.6 1116.0,822.5 1116.2,825.4 1116.3,828.2 1116.5,831.1 1116.7,833.9 1117.0,836.8 1117.2,839.6 1117.5,842.5 1117.7,845.3 1118.0,848.1 1118.3,851.0 1118.6,853.9 1119.0,856.7 1119.3,859.5 1119.7,862.4 1120.1,865.2 1120.4,868.1 1121.2,871.0 1121.9,873.8 1122.7,876.7 1123.5,879.5 1124.3,882.4 1124.9,885.2 1125.4,888.1 1125.9,890.9 1126.4,893.8 1126.9,896.6 1127.4,899.5 1127.9,902.3 1128.5,905.1 1129.0,908.0" fill="none" stroke="#dd5555" stroke-width="2" stroke-linecap="round"/>
<text x="1513.4490621048944" y="333.0" font-size="10" fill="#dd5555" font-family="monospace" font-weight="bold">L3</text>
<polyline points="141.6,338.0 144.4,340.9 147.4,343.7 150.3,346.6 153.3,349.4 156.3,352.2 159.4,355.1 162.5,358.0 165.7,360.8 168.9,363.7 172.1,366.5 175.3,369.3 178.7,372.2 182.0,375.0 185.4,377.9 188.8,380.8 192.3,383.6 198.3,386.5 204.5,389.3 210.7,392.2 217.2,395.0 223.8,397.9 230.4,400.7 237.0,403.6 243.6,406.4 250.1,409.2 256.7,412.1 263.2,415.0 269.6,417.8 276.0,420.7 282.4,423.5 288.2,426.3 294.0,429.2 299.7,432.0 305.4,434.9 310.9,437.8 316.4,440.6 321.8,443.5 327.2,446.3 332.4,449.2 337.4,452.0 342.4,454.9 347.3,457.7 352.0,460.6 356.6,463.4 361.2,466.2 365.6,469.1 370.0,472.0 374.3,474.8 378.4,477.7 382.6,480.5 385.8,483.4 388.9,486.2 391.8,489.0 394.3,491.9 396.7,494.8 399.1,497.6 401.5,500.5 403.8,503.3 406.2,506.1 408.5,509.0 410.9,511.9 413.2,514.7 415.5,517.6 417.7,520.4 420.0,523.3 422.3,526.1 424.5,529.0 426.7,531.8 428.9,534.7 431.1,537.5 433.3,540.4 435.4,543.2 437.6,546.0 439.7,548.9 441.8,551.8 443.9,554.6 445.1,557.5 446.3,560.3 447.5,563.2 448.6,566.0 449.8,568.9 451.0,571.7 452.2,574.6 453.3,577.4 454.5,580.3 455.6,583.1 456.7,585.9 457.9,588.8 459.0,591.6 460.1,594.5 461.2,597.4 462.3,600.2 463.4,603.1 464.5,605.9 465.6,608.8 466.7,611.6 467.7,614.5 468.8,617.3 469.9,620.2 470.9,623.0 472.3,625.9 473.7,628.7 475.1,631.6 476.5,634.4 477.8,637.3 479.2,640.1 480.6,643.0 481.9,645.8 483.1,648.7 484.4,651.5 485.7,654.4 486.9,657.2 488.1,660.0 489.3,662.9 490.5,665.8 491.7,668.6 493.2,671.5 494.7,674.3 496.2,677.2 497.7,680.0 499.2,682.9 500.6,685.7 502.0,688.5 503.5,691.4 504.9,694.2 506.2,697.1 507.6,699.9 509.0,702.8 510.3,705.6 511.6,708.5 513.0,711.4 514.3,714.2 515.5,717.1 516.8,719.9 518.1,722.8 519.3,725.6 520.5,728.5 521.7,731.3 522.9,734.1 524.1,737.0 524.8,739.8 525.5,742.7 526.2,745.5 526.9,748.4 527.6,751.2 528.2,754.1 528.8,757.0 529.5,759.8 530.1,762.7 530.6,765.5 531.0,768.4 531.3,771.2 531.7,774.1 532.0,776.9 532.3,779.8 532.6,782.6 532.8,785.5 533.1,788.3 533.3,791.2 533.6,794.0 533.8,796.9 533.9,799.7 534.1,802.5 534.3,805.4 534.4,808.2 534.5,811.1 534.4,813.9 534.3,816.8 534.2,819.6 534.0,822.5 533.8,825.4 533.7,828.2 533.5,831.1 533.3,833.9 533.0,836.8 532.8,839.6 532.5,842.5 532.3,845.3 532.0,848.1 531.7,851.0 531.4,853.9 531.0,856.7 530.7,859.5 530.3,862.4 529.9,865.2 529.6,868.1 528.8,871.0 528.1,873.8 527.3,876.7 526.5,879.5 525.7,882.4 525.1,885.2 524.6,888.1 524.1,890.9 523.6,893.8 523.1,896.6 522.6,899.5 522.1,902.3 521.5,905.1 521.0,908.0" fill="none" stroke="#dd5555" stroke-width="2" stroke-linecap="round"/>
<text x="146.55093789510568" y="333.0" font-size="10" fill="#dd5555" font-family="monospace" font-weight="bold">L3</text>
<polyline points="1511.3,392.0 1506.1,397.0 1500.8,402.0 1495.4,406.9 1490.0,411.9 1484.4,416.9 1478.8,421.9 1473.1,426.9 1467.3,431.8 1460.9,436.8 1454.0,441.8 1446.4,446.8 1438.9,451.8 1431.4,456.7 1424.0,461.7 1416.7,466.7 1409.4,471.7 1402.1,476.7 1395.0,481.6 1388.0,486.6 1381.5,491.6 1375.8,496.6 1370.4,501.6 1365.2,506.5 1360.3,511.5 1355.5,516.5 1350.9,521.5 1346.6,526.5 1342.4,531.4 1338.4,536.4 1334.5,541.4 1330.9,546.4 1327.7,551.4 1324.7,556.3 1321.8,561.3 1318.9,566.3 1316.2,571.3 1313.7,576.3 1311.3,581.2 1308.9,586.2 1306.5,591.2 1304.3,596.2 1302.0,601.2 1299.8,606.1 1297.6,611.1 1295.5,616.1 1293.4,621.1 1291.3,626.1 1289.2,631.0 1287.2,636.0 1285.2,641.0 1283.1,646.0 1281.0,651.0 1279.0,655.9 1276.9,660.9 1274.9,665.9 1273.0,670.9 1271.4,675.9 1269.9,680.8 1268.4,685.8 1267.0,690.8 1265.5,695.8 1264.1,700.8 1262.7,705.7 1261.4,710.7 1260.0,715.7 1258.7,720.7 1257.4,725.7 1256.2,730.6 1255.0,735.6 1253.8,740.6 1252.6,745.6 1251.4,750.6 1250.3,755.5 1249.2,760.5 1248.1,765.5 1247.1,770.5 1246.5,775.5 1245.8,780.4 1245.3,785.4 1244.7,790.4 1244.2,795.4 1243.7,800.4 1243.3,805.3 1242.8,810.3 1242.5,815.3 1242.1,820.3 1241.8,825.3 1241.5,830.2 1241.2,835.2 1241.0,840.2 1240.8,845.2 1240.7,850.2 1240.6,855.1 1240.5,860.1 1240.4,865.1 1240.4,870.1 1240.6,875.1 1240.8,880.0 1241.1,885.0 1241.3,890.0 1241.5,895.0 1241.7,900.0 1241.9,904.9 1242.1,909.9 1242.4,914.9 1242.7,919.9 1243.0,924.9 1243.3,929.8 1243.6,934.8 1244.0,939.8 1243.9,944.8 1243.4,949.8 1242.8,954.7 1242.3,959.7 1241.7,964.7 1241.1,969.7 1240.5,974.7 1239.9,979.6 1239.3,984.6 1238.7,989.6 1238.0,994.6 1237.4,999.6 1236.7,1004.5 1236.0,1009.5 1236.1,1014.5 1236.1,1019.5 1236.2,1024.5 1236.2,1029.4 1236.2,1034.4 1236.3,1039.4 1236.3,1044.4 1236.3,1049.4 1236.3,1054.3 1236.3,1059.3 1236.3,1064.3 1237.0,1069.3 1237.8,1074.3 1238.5,1079.2 1239.2,1084.2 1240.0,1089.2 1240.7,1094.2 1241.5,1099.2 1242.2,1104.1 1243.0,1109.1 1244.4,1114.1 1245.7,1119.1 1247.0,1124.1 1248.4,1129.0 1249.7,1134.0 1251.1,1139.0 1252.4,1144.0 1253.8,1149.0 1255.1,1153.9 1256.5,1158.9 1257.9,1163.9 1259.2,1168.9 1260.6,1173.9 1262.0,1178.8 1263.3,1183.8 1264.8,1188.8 1266.2,1193.8 1267.7,1198.8 1269.1,1203.7 1270.6,1208.7 1272.2,1213.7 1273.7,1218.7 1275.3,1223.7 1276.9,1228.6 1278.4,1233.6 1280.0,1238.6 1281.6,1243.6 1283.2,1248.6 1284.7,1253.5 1286.3,1258.5 1287.9,1263.5 1289.5,1268.5 1291.1,1273.5 1292.7,1278.4 1294.2,1283.4 1295.8,1288.4 1297.4,1293.4 1299.0,1298.4 1300.6,1303.3 1302.2,1308.3 1303.7,1313.3 1305.3,1318.3 1306.9,1323.3 1308.4,1328.2 1310.0,1333.2 1311.6,1338.2 1313.1,1343.2 1314.7,1348.2 1316.3,1353.1 1317.9,1358.1 1319.4,1363.1 1321.0,1368.1 1322.6,1373.1 1324.2,1378.0 1325.8,1383.0 1327.4,1388.0" fill="none" stroke="#ddcc22" stroke-width="2" stroke-linecap="round"/>
<text x="1516.2764954931254" y="387.0" font-size="10" fill="#ddcc22" font-family="monospace" font-weight="bold">L4</text>
<polyline points="138.7,392.0 143.9,397.0 149.2,402.0 154.6,406.9 160.0,411.9 165.6,416.9 171.2,421.9 176.9,426.9 182.7,431.8 189.1,436.8 196.0,441.8 203.6,446.8 211.1,451.8 218.6,456.7 226.0,461.7 233.3,466.7 240.6,471.7 247.9,476.7 255.0,481.6 262.0,486.6 268.5,491.6 274.2,496.6 279.6,501.6 284.8,506.5 289.7,511.5 294.5,516.5 299.1,521.5 303.4,526.5 307.6,531.4 311.6,536.4 315.5,541.4 319.1,546.4 322.3,551.4 325.3,556.3 328.2,561.3 331.1,566.3 333.8,571.3 336.3,576.3 338.7,581.2 341.1,586.2 343.5,591.2 345.7,596.2 348.0,601.2 350.2,606.1 352.4,611.1 354.5,616.1 356.6,621.1 358.7,626.1 360.8,631.0 362.8,636.0 364.8,641.0 366.9,646.0 369.0,651.0 371.0,655.9 373.1,660.9 375.1,665.9 377.0,670.9 378.6,675.9 380.1,680.8 381.6,685.8 383.0,690.8 384.5,695.8 385.9,700.8 387.3,705.7 388.6,710.7 390.0,715.7 391.3,720.7 392.6,725.7 393.8,730.6 395.0,735.6 396.2,740.6 397.4,745.6 398.6,750.6 399.7,755.5 400.8,760.5 401.9,765.5 402.9,770.5 403.5,775.5 404.2,780.4 404.7,785.4 405.3,790.4 405.8,795.4 406.3,800.4 406.7,805.3 407.2,810.3 407.5,815.3 407.9,820.3 408.2,825.3 408.5,830.2 408.8,835.2 409.0,840.2 409.2,845.2 409.3,850.2 409.4,855.1 409.5,860.1 409.6,865.1 409.6,870.1 409.4,875.1 409.2,880.0 408.9,885.0 408.7,890.0 408.5,895.0 408.3,900.0 408.1,904.9 407.9,909.9 407.6,914.9 407.3,919.9 407.0,924.9 406.7,929.8 406.4,934.8 406.0,939.8 406.1,944.8 406.6,949.8 407.2,954.7 407.7,959.7 408.3,964.7 408.9,969.7 409.5,974.7 410.1,979.6 410.7,984.6 411.3,989.6 412.0,994.6 412.6,999.6 413.3,1004.5 414.0,1009.5 413.9,1014.5 413.9,1019.5 413.8,1024.5 413.8,1029.4 413.8,1034.4 413.7,1039.4 413.7,1044.4 413.7,1049.4 413.7,1054.3 413.7,1059.3 413.7,1064.3 413.0,1069.3 412.2,1074.3 411.5,1079.2 410.8,1084.2 410.0,1089.2 409.3,1094.2 408.5,1099.2 407.8,1104.1 407.0,1109.1 405.6,1114.1 404.3,1119.1 403.0,1124.1 401.6,1129.0 400.3,1134.0 398.9,1139.0 397.6,1144.0 396.2,1149.0 394.9,1153.9 393.5,1158.9 392.1,1163.9 390.8,1168.9 389.4,1173.9 388.0,1178.8 386.7,1183.8 385.2,1188.8 383.8,1193.8 382.3,1198.8 380.9,1203.7 379.4,1208.7 377.8,1213.7 376.3,1218.7 374.7,1223.7 373.1,1228.6 371.6,1233.6 370.0,1238.6 368.4,1243.6 366.8,1248.6 365.3,1253.5 363.7,1258.5 362.1,1263.5 360.5,1268.5 358.9,1273.5 357.3,1278.4 355.8,1283.4 354.2,1288.4 352.6,1293.4 351.0,1298.4 349.4,1303.3 347.8,1308.3 346.3,1313.3 344.7,1318.3 343.1,1323.3 341.6,1328.2 340.0,1333.2 338.4,1338.2 336.9,1343.2 335.3,1348.2 333.7,1353.1 332.1,1358.1 330.6,1363.1 329.0,1368.1 327.4,1373.1 325.8,1378.0 324.2,1383.0 322.6,1388.0" fill="none" stroke="#ddcc22" stroke-width="2" stroke-linecap="round"/>
<text x="143.72350450687475" y="387.0" font-size="10" fill="#ddcc22" font-family="monospace" font-weight="bold">L4</text>
<polyline points="1505.6,440.0 1500.9,444.7 1496.2,449.5 1491.5,454.2 1486.7,459.0 1482.0,463.7 1477.3,468.4 1472.5,473.2 1467.8,477.9 1463.0,482.7 1458.3,487.4 1453.1,492.1 1447.9,496.9 1442.8,501.6 1437.8,506.4 1432.9,511.1 1428.1,515.8 1423.4,520.6 1418.8,525.3 1414.3,530.1 1409.9,534.8 1405.7,539.5 1401.5,544.3 1397.8,549.0 1395.2,553.8 1393.2,558.5 1391.3,563.2 1389.4,568.0 1387.5,572.7 1385.7,577.5 1383.9,582.2 1382.1,586.9 1380.4,591.7 1378.7,596.4 1377.1,601.2 1375.5,605.9 1373.9,610.6 1372.3,615.4 1370.8,620.1 1369.4,624.9 1367.9,629.6 1366.5,634.3 1365.2,639.1 1363.8,643.8 1362.4,648.6 1361.5,653.3 1360.6,658.0 1359.8,662.8 1358.9,667.5 1358.1,672.3 1357.3,677.0 1356.5,681.7 1355.8,686.5 1355.0,691.2 1354.3,696.0 1353.6,700.7 1352.9,705.4 1352.2,710.2 1351.5,714.9 1350.9,719.7 1350.2,724.4 1349.6,729.1 1349.0,733.9 1348.4,738.6 1347.8,743.4 1347.3,748.1 1346.7,752.8 1346.2,757.6 1345.7,762.3 1345.0,767.1 1344.3,771.8 1343.9,776.5 1343.5,781.3 1343.1,786.0 1342.7,790.8 1342.3,795.5 1342.0,800.2 1341.7,805.0 1341.3,809.7 1341.0,814.5 1340.7,819.2 1340.4,823.9 1340.2,828.7 1339.9,833.4 1339.6,838.2 1339.4,842.9 1339.2,847.6 1338.9,852.4 1338.7,857.1 1338.5,861.9 1338.3,866.6 1338.2,871.3 1338.0,876.1 1337.9,880.8 1337.8,885.6 1337.9,890.3 1338.0,895.0 1338.1,899.8 1338.2,904.5 1338.4,909.3 1338.5,914.0 1338.9,918.7 1339.2,923.5 1339.6,928.2 1340.0,933.0 1340.4,937.7 1340.8,942.4 1341.6,947.2 1342.6,951.9 1343.6,956.7 1344.6,961.4 1345.7,966.1 1346.7,970.9 1347.7,975.6 1348.7,980.4 1349.7,985.1 1350.7,989.8 1351.7,994.6 1352.7,999.3 1353.7,1004.1 1354.7,1008.8 1355.7,1013.5 1356.7,1018.3 1357.7,1023.0 1358.7,1027.8 1359.7,1032.5 1360.7,1037.2 1361.7,1042.0 1362.6,1046.7 1363.6,1051.5 1364.6,1056.2 1365.6,1060.9 1366.4,1065.7 1366.9,1070.4 1367.4,1075.2 1368.0,1079.9 1368.5,1084.6 1369.0,1089.4 1369.6,1094.1 1370.1,1098.9 1370.7,1103.6 1371.2,1108.3 1371.8,1113.1 1372.4,1117.8 1372.9,1122.6 1373.5,1127.3 1374.1,1132.0 1374.6,1136.8 1375.2,1141.5 1375.8,1146.3 1376.4,1151.0 1377.0,1155.7 1377.5,1160.5 1378.1,1165.2 1378.7,1170.0 1379.3,1174.7 1379.9,1179.4 1380.6,1184.2 1381.2,1188.9 1381.9,1193.7 1382.5,1198.4 1383.2,1203.1 1383.8,1207.9 1384.4,1212.6 1385.1,1217.4 1385.8,1222.1 1386.4,1226.8 1387.1,1231.6 1387.7,1236.3 1388.4,1241.1 1389.1,1245.8 1389.7,1250.5 1390.4,1255.3 1391.1,1260.0 1391.8,1264.8 1392.5,1269.5 1393.1,1274.2 1393.8,1279.0 1394.5,1283.7 1395.2,1288.5 1395.9,1293.2 1396.7,1297.9 1397.4,1302.7 1398.2,1307.4 1399.0,1312.2 1399.7,1316.9 1400.5,1321.6 1401.3,1326.4 1402.1,1331.1 1402.9,1335.9 1403.7,1340.6 1404.5,1345.3 1405.3,1350.1 1406.0,1354.8 1406.8,1359.6 1407.6,1364.3 1408.4,1369.0 1409.2,1373.8 1410.0,1378.5 1410.8,1383.3 1411.7,1388.0" fill="none" stroke="#00cc00" stroke-width="3" stroke-linecap="round"/>
<text x="1510.6216287166637" y="435.0" font-size="10" fill="#00cc00" font-family="monospace" font-weight="bold">L5</text>
<polyline points="144.4,440.0 149.1,444.7 153.8,449.5 158.5,454.2 163.3,459.0 168.0,463.7 172.7,468.4 177.5,473.2 182.2,477.9 187.0,482.7 191.7,487.4 196.9,492.1 202.1,496.9 207.2,501.6 212.2,506.4 217.1,511.1 221.9,515.8 226.6,520.6 231.2,525.3 235.7,530.1 240.1,534.8 244.3,539.5 248.5,544.3 252.2,549.0 254.8,553.8 256.8,558.5 258.7,563.2 260.6,568.0 262.5,572.7 264.3,577.5 266.1,582.2 267.9,586.9 269.6,591.7 271.3,596.4 272.9,601.2 274.5,605.9 276.1,610.6 277.7,615.4 279.2,620.1 280.6,624.9 282.1,629.6 283.5,634.3 284.8,639.1 286.2,643.8 287.6,648.6 288.5,653.3 289.4,658.0 290.2,662.8 291.1,667.5 291.9,672.3 292.7,677.0 293.5,681.7 294.2,686.5 295.0,691.2 295.7,696.0 296.4,700.7 297.1,705.4 297.8,710.2 298.5,714.9 299.1,719.7 299.8,724.4 300.4,729.1 301.0,733.9 301.6,738.6 302.2,743.4 302.7,748.1 303.3,752.8 303.8,757.6 304.3,762.3 305.0,767.1 305.7,771.8 306.1,776.5 306.5,781.3 306.9,786.0 307.3,790.8 307.7,795.5 308.0,800.2 308.3,805.0 308.7,809.7 309.0,814.5 309.3,819.2 309.6,823.9 309.8,828.7 310.1,833.4 310.4,838.2 310.6,842.9 310.8,847.6 311.1,852.4 311.3,857.1 311.5,861.9 311.7,866.6 311.8,871.3 312.0,876.1 312.1,880.8 312.2,885.6 312.1,890.3 312.0,895.0 311.9,899.8 311.8,904.5 311.6,909.3 311.5,914.0 311.1,918.7 310.8,923.5 310.4,928.2 310.0,933.0 309.6,937.7 309.2,942.4 308.4,947.2 307.4,951.9 306.4,956.7 305.4,961.4 304.3,966.1 303.3,970.9 302.3,975.6 301.3,980.4 300.3,985.1 299.3,989.8 298.3,994.6 297.3,999.3 296.3,1004.1 295.3,1008.8 294.3,1013.5 293.3,1018.3 292.3,1023.0 291.3,1027.8 290.3,1032.5 289.3,1037.2 288.3,1042.0 287.4,1046.7 286.4,1051.5 285.4,1056.2 284.4,1060.9 283.6,1065.7 283.1,1070.4 282.6,1075.2 282.0,1079.9 281.5,1084.6 281.0,1089.4 280.4,1094.1 279.9,1098.9 279.3,1103.6 278.8,1108.3 278.2,1113.1 277.6,1117.8 277.1,1122.6 276.5,1127.3 275.9,1132.0 275.4,1136.8 274.8,1141.5 274.2,1146.3 273.6,1151.0 273.0,1155.7 272.5,1160.5 271.9,1165.2 271.3,1170.0 270.7,1174.7 270.1,1179.4 269.4,1184.2 268.8,1188.9 268.1,1193.7 267.5,1198.4 266.8,1203.1 266.2,1207.9 265.6,1212.6 264.9,1217.4 264.2,1222.1 263.6,1226.8 262.9,1231.6 262.3,1236.3 261.6,1241.1 260.9,1245.8 260.3,1250.5 259.6,1255.3 258.9,1260.0 258.2,1264.8 257.5,1269.5 256.9,1274.2 256.2,1279.0 255.5,1283.7 254.8,1288.5 254.1,1293.2 253.3,1297.9 252.6,1302.7 251.8,1307.4 251.0,1312.2 250.3,1316.9 249.5,1321.6 248.7,1326.4 247.9,1331.1 247.1,1335.9 246.3,1340.6 245.5,1345.3 244.7,1350.1 244.0,1354.8 243.2,1359.6 242.4,1364.3 241.6,1369.0 240.8,1373.8 240.0,1378.5 239.2,1383.3 238.3,1388.0" fill="none" stroke="#00cc00" stroke-width="3" stroke-linecap="round"/>
<text x="149.37837128333626" y="435.0" font-size="10" fill="#00cc00" font-family="monospace" font-weight="bold">L5</text>
<polyline points="1487.2,488.0 1482.7,492.5 1478.3,497.0 1473.8,501.5 1469.4,506.0 1465.0,510.5 1460.7,515.0 1456.4,519.5 1452.1,524.0 1447.9,528.5 1443.8,533.0 1440.0,537.5 1436.3,542.0 1432.6,546.5 1430.1,551.0 1428.2,555.5 1426.4,560.0 1424.5,564.5 1422.7,569.0 1420.9,573.5 1419.1,578.0 1417.3,582.5 1415.5,587.0 1413.8,591.5 1412.1,596.0 1410.8,600.5 1409.4,605.0 1408.1,609.5 1406.8,614.0 1405.5,618.5 1404.3,623.0 1403.1,627.5 1401.8,632.0 1400.7,636.5 1399.5,641.0 1398.3,645.5 1397.2,650.0 1396.0,654.5 1394.8,659.0 1393.7,663.5 1392.6,668.0 1391.5,672.5 1390.4,677.0 1389.4,681.5 1388.3,686.0 1387.8,690.5 1387.3,695.0 1386.9,699.5 1386.4,704.0 1385.9,708.5 1385.5,713.0 1385.0,717.5 1384.6,722.0 1384.2,726.5 1383.7,731.0 1383.3,735.5 1382.9,740.0 1382.5,744.5 1382.2,749.0 1381.8,753.5 1381.4,758.0 1381.1,762.5 1380.6,767.0 1380.0,771.5 1379.4,776.0 1378.8,780.5 1378.2,785.0 1377.6,789.5 1377.1,794.0 1376.5,798.5 1376.0,803.0 1375.7,807.5 1375.4,812.0 1375.0,816.5 1374.7,821.0 1374.4,825.5 1374.1,830.0 1373.8,834.5 1373.6,839.0 1373.3,843.5 1373.0,848.0 1372.7,852.5 1372.5,857.0 1372.2,861.5 1371.9,866.0 1371.7,870.5 1371.5,875.0 1371.2,879.5 1371.0,884.0 1371.1,888.5 1371.2,893.0 1371.3,897.5 1371.4,902.0 1371.6,906.5 1371.7,911.0 1371.8,915.5 1371.9,920.0 1372.1,924.5 1372.2,929.0 1372.4,933.5 1372.5,938.0 1372.7,942.5 1373.6,947.0 1374.8,951.5 1376.0,956.0 1377.1,960.5 1378.3,965.0 1379.5,969.5 1380.7,974.0 1381.8,978.5 1383.0,983.0 1384.2,987.5 1385.4,992.0 1386.5,996.5 1387.7,1001.0 1388.9,1005.5 1390.0,1010.0 1391.2,1014.5 1392.4,1019.0 1393.5,1023.5 1394.7,1028.0 1395.9,1032.5 1397.0,1037.0 1398.2,1041.5 1399.3,1046.0 1400.5,1050.5 1401.6,1055.0 1402.8,1059.5 1403.9,1064.0 1404.4,1068.5 1404.8,1073.0 1405.3,1077.5 1405.8,1082.0 1406.2,1086.5 1406.7,1091.0 1407.2,1095.5 1407.7,1100.0 1408.2,1104.5 1408.7,1109.0 1409.2,1113.5 1409.7,1118.0 1410.2,1122.5 1410.7,1127.0 1411.2,1131.5 1411.7,1136.0 1412.2,1140.5 1412.7,1145.0 1413.2,1149.5 1413.7,1154.0 1414.2,1158.5 1414.7,1163.0 1415.2,1167.5 1415.7,1172.0 1416.3,1176.5 1416.8,1181.0 1417.3,1185.5 1417.7,1190.0 1418.2,1194.5 1418.7,1199.0 1419.2,1203.5 1419.7,1208.0 1420.2,1212.5 1420.7,1217.0 1421.2,1221.5 1421.7,1226.0 1422.2,1230.5 1422.7,1235.0 1423.2,1239.5 1423.7,1244.0 1424.2,1248.5 1424.7,1253.0 1425.2,1257.5 1425.7,1262.0 1426.2,1266.5 1426.7,1271.0 1427.2,1275.5 1427.7,1280.0 1428.3,1284.5 1428.8,1289.0 1429.3,1293.5 1429.8,1298.0 1430.3,1302.5 1430.8,1307.0 1431.4,1311.5 1432.0,1316.0 1432.5,1320.5 1433.1,1325.0 1433.6,1329.5 1434.2,1334.0 1434.7,1338.5 1435.3,1343.0 1435.9,1347.5 1436.4,1352.0 1437.0,1356.5 1437.6,1361.0 1438.1,1365.5 1438.7,1370.0 1439.3,1374.5 1439.8,1379.0 1440.4,1383.5 1441.0,1388.0" fill="none" stroke="#ee7788" stroke-width="2" stroke-linecap="round"/>
<text x="1492.2433116931634" y="483.0" font-size="10" fill="#ee7788" font-family="monospace" font-weight="bold">S1</text>
<polyline points="162.8,488.0 167.3,492.5 171.7,497.0 176.2,501.5 180.6,506.0 185.0,510.5 189.3,515.0 193.6,519.5 197.9,524.0 202.1,528.5 206.2,533.0 210.0,537.5 213.7,542.0 217.4,546.5 219.9,551.0 221.8,555.5 223.6,560.0 225.5,564.5 227.3,569.0 229.1,573.5 230.9,578.0 232.7,582.5 234.5,587.0 236.2,591.5 237.9,596.0 239.2,600.5 240.6,605.0 241.9,609.5 243.2,614.0 244.5,618.5 245.7,623.0 246.9,627.5 248.2,632.0 249.3,636.5 250.5,641.0 251.7,645.5 252.8,650.0 254.0,654.5 255.2,659.0 256.3,663.5 257.4,668.0 258.5,672.5 259.6,677.0 260.6,681.5 261.7,686.0 262.2,690.5 262.7,695.0 263.1,699.5 263.6,704.0 264.1,708.5 264.5,713.0 265.0,717.5 265.4,722.0 265.8,726.5 266.3,731.0 266.7,735.5 267.1,740.0 267.5,744.5 267.8,749.0 268.2,753.5 268.6,758.0 268.9,762.5 269.4,767.0 270.0,771.5 270.6,776.0 271.2,780.5 271.8,785.0 272.4,789.5 272.9,794.0 273.5,798.5 274.0,803.0 274.3,807.5 274.6,812.0 275.0,816.5 275.3,821.0 275.6,825.5 275.9,830.0 276.2,834.5 276.4,839.0 276.7,843.5 277.0,848.0 277.3,852.5 277.5,857.0 277.8,861.5 278.1,866.0 278.3,870.5 278.5,875.0 278.8,879.5 279.0,884.0 278.9,888.5 278.8,893.0 278.7,897.5 278.6,902.0 278.4,906.5 278.3,911.0 278.2,915.5 278.1,920.0 277.9,924.5 277.8,929.0 277.6,933.5 277.5,938.0 277.3,942.5 276.4,947.0 275.2,951.5 274.0,956.0 272.9,960.5 271.7,965.0 270.5,969.5 269.3,974.0 268.2,978.5 267.0,983.0 265.8,987.5 264.6,992.0 263.5,996.5 262.3,1001.0 261.1,1005.5 260.0,1010.0 258.8,1014.5 257.6,1019.0 256.5,1023.5 255.3,1028.0 254.1,1032.5 253.0,1037.0 251.8,1041.5 250.7,1046.0 249.5,1050.5 248.4,1055.0 247.2,1059.5 246.1,1064.0 245.6,1068.5 245.2,1073.0 244.7,1077.5 244.2,1082.0 243.8,1086.5 243.3,1091.0 242.8,1095.5 242.3,1100.0 241.8,1104.5 241.3,1109.0 240.8,1113.5 240.3,1118.0 239.8,1122.5 239.3,1127.0 238.8,1131.5 238.3,1136.0 237.8,1140.5 237.3,1145.0 236.8,1149.5 236.3,1154.0 235.8,1158.5 235.3,1163.0 234.8,1167.5 234.3,1172.0 233.7,1176.5 233.2,1181.0 232.7,1185.5 232.3,1190.0 231.8,1194.5 231.3,1199.0 230.8,1203.5 230.3,1208.0 229.8,1212.5 229.3,1217.0 228.8,1221.5 228.3,1226.0 227.8,1230.5 227.3,1235.0 226.8,1239.5 226.3,1244.0 225.8,1248.5 225.3,1253.0 224.8,1257.5 224.3,1262.0 223.8,1266.5 223.3,1271.0 222.8,1275.5 222.3,1280.0 221.7,1284.5 221.2,1289.0 220.7,1293.5 220.2,1298.0 219.7,1302.5 219.2,1307.0 218.6,1311.5 218.0,1316.0 217.5,1320.5 216.9,1325.0 216.4,1329.5 215.8,1334.0 215.3,1338.5 214.7,1343.0 214.1,1347.5 213.6,1352.0 213.0,1356.5 212.4,1361.0 211.9,1365.5 211.3,1370.0 210.7,1374.5 210.2,1379.0 209.6,1383.5 209.0,1388.0" fill="none" stroke="#ee7788" stroke-width="2" stroke-linecap="round"/>
<text x="167.75668830683674" y="483.0" font-size="10" fill="#ee7788" font-family="monospace" font-weight="bold">S1</text>
<polyline points="1469.3,524.0 1467.3,525.9 1465.3,527.8 1463.3,529.8 1461.3,531.7 1459.4,533.6 1457.4,535.5 1455.5,537.4 1453.5,539.4 1451.6,541.3 1449.7,543.2 1447.8,545.1 1445.9,547.0 1444.7,549.0 1443.9,550.9 1443.2,552.8 1442.4,554.7 1441.7,556.6 1440.9,558.6 1440.1,560.5 1439.4,562.4 1438.6,564.3 1437.9,566.2 1437.2,568.2 1436.4,570.1 1435.7,572.0 1434.9,573.9 1434.2,575.8 1433.5,577.8 1432.8,579.7 1432.0,581.6 1431.7,583.5 1431.5,585.4 1431.2,587.4 1430.9,589.3 1430.6,591.2 1430.3,593.1 1430.0,595.0 1429.7,597.0 1429.5,598.9 1429.2,600.8 1428.9,602.7 1428.6,604.6 1428.3,606.6 1428.1,608.5 1427.8,610.4 1427.5,612.3 1427.3,614.2 1427.0,616.2 1426.7,618.1 1426.5,620.0 1426.2,621.9 1425.9,623.8 1425.7,625.8 1425.4,627.7 1425.2,629.6 1424.9,631.5 1425.0,633.4 1425.2,635.4 1425.3,637.3 1425.5,639.2 1425.6,641.1 1425.8,643.0 1425.9,645.0 1426.0,646.9 1426.2,648.8 1426.3,650.7 1426.4,652.6 1426.6,654.6 1426.7,656.5 1426.8,658.4 1427.0,660.3 1427.1,662.2 1427.2,664.2 1427.3,666.1 1427.5,668.0 1427.6,669.9 1427.7,671.8 1427.8,673.8 1427.9,675.7 1428.1,677.6 1428.2,679.5 1428.3,681.4 1428.4,683.4 1428.5,685.3 1429.0,687.2 1429.5,689.1 1429.9,691.0 1430.4,693.0 1430.8,694.9 1431.3,696.8 1431.8,698.7 1432.2,700.6 1432.6,702.6 1433.1,704.5 1433.5,706.4 1434.0,708.3 1434.4,710.2 1434.8,712.2 1435.2,714.1 1435.7,716.0 1436.1,717.9 1436.5,719.8 1436.9,721.8 1437.3,723.7 1437.7,725.6 1438.1,727.5 1438.5,729.4 1438.9,731.4 1439.3,733.3 1439.7,735.2 1440.1,737.1 1440.5,739.0 1441.5,741.0 1442.5,742.9 1443.6,744.8 1444.6,746.7 1444.5,748.6 1444.3,750.6 1444.2,752.5 1444.1,754.4 1444.0,756.3 1443.9,758.2 1443.8,760.2 1443.6,762.1 1443.5,764.0 1443.3,765.9 1443.0,767.8 1442.8,769.8 1442.6,771.7 1442.3,773.6 1442.1,775.5 1441.9,777.4 1441.6,779.4 1441.4,781.3 1441.2,783.2 1440.9,785.1 1440.7,787.0 1440.5,789.0 1440.2,790.9 1440.0,792.8 1439.8,794.7 1439.5,796.6 1439.3,798.6 1439.0,800.5 1438.8,802.4 1438.6,804.3 1438.3,806.2 1438.1,808.2 1437.9,810.1 1437.6,812.0 1437.4,813.9 1437.2,815.8 1436.9,817.8 1436.7,819.7 1436.5,821.6 1436.2,823.5 1436.0,825.4 1435.8,827.4 1435.5,829.3 1435.3,831.2 1435.0,833.1 1434.8,835.0 1434.6,837.0 1434.3,838.9 1434.1,840.8 1433.9,842.7 1433.6,844.6 1433.4,846.6 1433.2,848.5 1432.9,850.4 1432.7,852.3 1432.5,854.2 1432.2,856.2 1432.0,858.1 1431.8,860.0 1431.5,861.9 1431.3,863.8 1431.0,865.8 1430.8,867.7 1430.6,869.6 1430.3,871.5 1430.1,873.4 1429.9,875.4 1429.6,877.3 1429.4,879.2 1429.2,881.1 1428.9,883.0 1428.8,885.0 1428.8,886.9 1428.8,888.8 1428.8,890.7 1428.8,892.6 1428.8,894.6 1428.8,896.5 1428.7,898.4 1428.7,900.3 1428.7,902.2 1428.7,904.2 1428.7,906.1" fill="none" stroke="#4466cc" stroke-width="2" stroke-linecap="round"/>
<text x="1474.259436063137" y="519.0" font-size="10" fill="#4466cc" font-family="monospace" font-weight="bold">S2</text>
<polyline points="180.7,524.0 182.7,525.9 184.7,527.8 186.7,529.8 188.7,531.7 190.6,533.6 192.6,535.5 194.5,537.4 196.5,539.4 198.4,541.3 200.3,543.2 202.2,545.1 204.1,547.0 205.3,549.0 206.1,550.9 206.8,552.8 207.6,554.7 208.3,556.6 209.1,558.6 209.9,560.5 210.6,562.4 211.4,564.3 212.1,566.2 212.8,568.2 213.6,570.1 214.3,572.0 215.1,573.9 215.8,575.8 216.5,577.8 217.2,579.7 218.0,581.6 218.3,583.5 218.5,585.4 218.8,587.4 219.1,589.3 219.4,591.2 219.7,593.1 220.0,595.0 220.3,597.0 220.5,598.9 220.8,600.8 221.1,602.7 221.4,604.6 221.7,606.6 221.9,608.5 222.2,610.4 222.5,612.3 222.7,614.2 223.0,616.2 223.3,618.1 223.5,620.0 223.8,621.9 224.1,623.8 224.3,625.8 224.6,627.7 224.8,629.6 225.1,631.5 225.0,633.4 224.8,635.4 224.7,637.3 224.5,639.2 224.4,641.1 224.2,643.0 224.1,645.0 224.0,646.9 223.8,648.8 223.7,650.7 223.6,652.6 223.4,654.6 223.3,656.5 223.2,658.4 223.0,660.3 222.9,662.2 222.8,664.2 222.7,666.1 222.5,668.0 222.4,669.9 222.3,671.8 222.2,673.8 222.1,675.7 221.9,677.6 221.8,679.5 221.7,681.4 221.6,683.4 221.5,685.3 221.0,687.2 220.5,689.1 220.1,691.0 219.6,693.0 219.2,694.9 218.7,696.8 218.2,698.7 217.8,700.6 217.4,702.6 216.9,704.5 216.5,706.4 216.0,708.3 215.6,710.2 215.2,712.2 214.8,714.1 214.3,716.0 213.9,717.9 213.5,719.8 213.1,721.8 212.7,723.7 212.3,725.6 211.9,727.5 211.5,729.4 211.1,731.4 210.7,733.3 210.3,735.2 209.9,737.1 209.5,739.0 208.5,741.0 207.5,742.9 206.4,744.8 205.4,746.7 205.5,748.6 205.7,750.6 205.8,752.5 205.9,754.4 206.0,756.3 206.1,758.2 206.2,760.2 206.4,762.1 206.5,764.0 206.7,765.9 207.0,767.8 207.2,769.8 207.4,771.7 207.7,773.6 207.9,775.5 208.1,777.4 208.4,779.4 208.6,781.3 208.8,783.2 209.1,785.1 209.3,787.0 209.5,789.0 209.8,790.9 210.0,792.8 210.2,794.7 210.5,796.6 210.7,798.6 211.0,800.5 211.2,802.4 211.4,804.3 211.7,806.2 211.9,808.2 212.1,810.1 212.4,812.0 212.6,813.9 212.8,815.8 213.1,817.8 213.3,819.7 213.5,821.6 213.8,823.5 214.0,825.4 214.2,827.4 214.5,829.3 214.7,831.2 215.0,833.1 215.2,835.0 215.4,837.0 215.7,838.9 215.9,840.8 216.1,842.7 216.4,844.6 216.6,846.6 216.8,848.5 217.1,850.4 217.3,852.3 217.5,854.2 217.8,856.2 218.0,858.1 218.2,860.0 218.5,861.9 218.7,863.8 219.0,865.8 219.2,867.7 219.4,869.6 219.7,871.5 219.9,873.4 220.1,875.4 220.4,877.3 220.6,879.2 220.8,881.1 221.1,883.0 221.2,885.0 221.2,886.9 221.2,888.8 221.2,890.7 221.2,892.6 221.2,894.6 221.2,896.5 221.3,898.4 221.3,900.3 221.3,902.2 221.3,904.2 221.3,906.1" fill="none" stroke="#4466cc" stroke-width="2" stroke-linecap="round"/>
<text x="185.74056393686294" y="519.0" font-size="10" fill="#4466cc" font-family="monospace" font-weight="bold">S2</text>
<polyline points="913.3,440.0 914.7,445.0 916.2,450.0 917.7,454.9 919.1,459.9 920.6,464.9 922.1,469.9 923.5,474.9 925.0,479.8 926.5,484.8 928.3,489.8 930.6,494.8 932.9,499.8 935.2,504.7 937.5,509.7 939.9,514.7 942.2,519.7 944.5,524.7 946.8,529.6 949.2,534.6 951.5,539.6 953.8,544.6 956.0,549.6 957.9,554.5 959.8,559.5 961.6,564.5 963.5,569.5 965.4,574.5 967.3,579.4 969.2,584.4 971.1,589.4 972.9,594.4 974.8,599.4 976.7,604.3 978.6,609.3 980.5,614.3 982.4,619.3 984.2,624.3 986.1,629.2 988.0,634.2 989.9,639.2 991.8,644.2 994.1,649.2 996.4,654.1 998.8,659.1 1001.1,664.1 1003.4,669.1 1005.7,674.1 1008.0,679.0 1010.4,684.0 1012.7,689.0 1015.0,694.0 1017.3,699.0 1019.7,703.9 1022.0,708.9 1024.3,713.9 1026.6,718.9 1029.0,723.9 1031.3,728.8 1033.6,733.8 1035.9,738.8 1038.2,743.8 1040.6,748.8 1042.9,753.7 1045.2,758.7 1047.5,763.7 1050.4,768.7 1053.3,773.7 1056.2,778.6 1059.1,783.6 1062.1,788.6 1065.0,793.6 1067.9,798.6 1070.8,803.5 1073.7,808.5 1076.6,813.5 1079.5,818.5 1082.4,823.5 1085.3,828.4 1088.2,833.4 1091.2,838.4 1094.1,843.4 1097.0,848.4 1099.9,853.3 1102.8,858.3 1105.7,863.3 1108.6,868.3 1111.5,873.3 1114.4,878.2 1117.3,883.2 1119.8,888.2 1122.1,893.2 1124.4,898.2 1126.7,903.1 1129.0,908.1 1131.4,913.1 1133.7,918.1 1136.0,923.1 1138.3,928.0 1140.7,933.0 1143.0,938.0 1145.3,943.0 1146.2,948.0 1146.8,952.9 1147.4,957.9 1147.9,962.9 1148.5,967.9 1149.0,972.9 1149.6,977.8 1150.2,982.8 1150.7,987.8 1151.3,992.8 1151.9,997.8 1152.4,1002.7 1153.0,1007.7 1153.6,1012.7 1154.1,1017.7 1154.7,1022.7 1155.2,1027.6 1155.8,1032.6 1156.4,1037.6 1156.9,1042.6 1157.5,1047.6 1158.1,1052.5 1158.6,1057.5 1159.2,1062.5 1160.7,1067.5 1162.7,1072.5 1164.7,1077.4 1166.6,1082.4 1168.6,1087.4 1170.6,1092.4 1172.6,1097.4 1174.5,1102.3 1176.5,1107.3 1178.5,1112.3 1180.4,1117.3 1182.4,1122.3 1184.4,1127.2 1186.4,1132.2 1188.3,1137.2 1190.3,1142.2 1192.3,1147.2 1194.2,1152.1 1196.2,1157.1 1198.2,1162.1 1200.2,1167.1 1202.1,1172.1 1204.1,1177.0 1206.1,1182.0 1208.1,1187.0 1210.2,1192.0 1212.3,1197.0 1214.4,1201.9 1216.5,1206.9 1218.5,1211.9 1220.6,1216.9 1222.7,1221.9 1224.8,1226.8 1226.9,1231.8 1229.0,1236.8 1231.1,1241.8 1233.2,1246.8 1235.3,1251.7 1237.3,1256.7 1239.4,1261.7 1241.5,1266.7 1243.6,1271.7 1245.7,1276.6 1247.8,1281.6 1249.9,1286.6 1252.0,1291.6 1254.1,1296.6 1256.1,1301.5 1258.2,1306.5 1260.2,1311.5 1262.2,1316.5 1264.1,1321.5 1266.1,1326.4 1268.1,1331.4 1270.1,1336.4 1272.1,1341.4 1274.1,1346.4 1276.1,1351.3 1278.1,1356.3 1280.0,1361.3 1282.0,1366.3 1284.0,1371.3 1286.0,1376.2 1288.0,1381.2 1290.0,1386.2 1291.4,1391.2 1292.6,1396.2 1293.7,1401.1 1294.9,1406.1 1296.0,1411.1 1297.2,1416.1 1298.3,1421.1 1299.5,1426.0 1300.6,1431.0 1301.8,1436.0" fill="none" stroke="#ee2222" stroke-width="2" stroke-linecap="round"/>
<text x="918.2743338823082" y="435.0" font-size="10" fill="#ee2222" font-family="monospace" font-weight="bold">SEAM</text>
<polyline points="736.7,440.0 735.3,445.0 733.8,450.0 732.3,454.9 730.9,459.9 729.4,464.9 727.9,469.9 726.5,474.9 725.0,479.8 723.5,484.8 721.7,489.8 719.4,494.8 717.1,499.8 714.8,504.7 712.5,509.7 710.1,514.7 707.8,519.7 705.5,524.7 703.2,529.6 700.8,534.6 698.5,539.6 696.2,544.6 694.0,549.6 692.1,554.5 690.2,559.5 688.4,564.5 686.5,569.5 684.6,574.5 682.7,579.4 680.8,584.4 678.9,589.4 677.1,594.4 675.2,599.4 673.3,604.3 671.4,609.3 669.5,614.3 667.6,619.3 665.8,624.3 663.9,629.2 662.0,634.2 660.1,639.2 658.2,644.2 655.9,649.2 653.6,654.1 651.2,659.1 648.9,664.1 646.6,669.1 644.3,674.1 642.0,679.0 639.6,684.0 637.3,689.0 635.0,694.0 632.7,699.0 630.3,703.9 628.0,708.9 625.7,713.9 623.4,718.9 621.0,723.9 618.7,728.8 616.4,733.8 614.1,738.8 611.8,743.8 609.4,748.8 607.1,753.7 604.8,758.7 602.5,763.7 599.6,768.7 596.7,773.7 593.8,778.6 590.9,783.6 587.9,788.6 585.0,793.6 582.1,798.6 579.2,803.5 576.3,808.5 573.4,813.5 570.5,818.5 567.6,823.5 564.7,828.4 561.8,833.4 558.8,838.4 555.9,843.4 553.0,848.4 550.1,853.3 547.2,858.3 544.3,863.3 541.4,868.3 538.5,873.3 535.6,878.2 532.7,883.2 530.2,888.2 527.9,893.2 525.6,898.2 523.3,903.1 521.0,908.1 518.6,913.1 516.3,918.1 514.0,923.1 511.7,928.0 509.3,933.0 507.0,938.0 504.7,943.0 503.8,948.0 503.2,952.9 502.6,957.9 502.1,962.9 501.5,967.9 501.0,972.9 500.4,977.8 499.8,982.8 499.3,987.8 498.7,992.8 498.1,997.8 497.6,1002.7 497.0,1007.7 496.4,1012.7 495.9,1017.7 495.3,1022.7 494.8,1027.6 494.2,1032.6 493.6,1037.6 493.1,1042.6 492.5,1047.6 491.9,1052.5 491.4,1057.5 490.8,1062.5 489.3,1067.5 487.3,1072.5 485.3,1077.4 483.4,1082.4 481.4,1087.4 479.4,1092.4 477.4,1097.4 475.5,1102.3 473.5,1107.3 471.5,1112.3 469.6,1117.3 467.6,1122.3 465.6,1127.2 463.6,1132.2 461.7,1137.2 459.7,1142.2 457.7,1147.2 455.8,1152.1 453.8,1157.1 451.8,1162.1 449.8,1167.1 447.9,1172.1 445.9,1177.0 443.9,1182.0 441.9,1187.0 439.8,1192.0 437.7,1197.0 435.6,1201.9 433.5,1206.9 431.5,1211.9 429.4,1216.9 427.3,1221.9 425.2,1226.8 423.1,1231.8 421.0,1236.8 418.9,1241.8 416.8,1246.8 414.7,1251.7 412.7,1256.7 410.6,1261.7 408.5,1266.7 406.4,1271.7 404.3,1276.6 402.2,1281.6 400.1,1286.6 398.0,1291.6 395.9,1296.6 393.9,1301.5 391.8,1306.5 389.8,1311.5 387.8,1316.5 385.9,1321.5 383.9,1326.4 381.9,1331.4 379.9,1336.4 377.9,1341.4 375.9,1346.4 373.9,1351.3 371.9,1356.3 370.0,1361.3 368.0,1366.3 366.0,1371.3 364.0,1376.2 362.0,1381.2 360.0,1386.2 358.6,1391.2 357.4,1396.2 356.3,1401.1 355.1,1406.1 354.0,1411.1 352.8,1416.1 351.7,1421.1 350.5,1426.0 349.4,1431.0 348.2,1436.0" fill="none" stroke="#ee2222" stroke-width="2" stroke-linecap="round"/>
<text x="741.7256661176918" y="435.0" font-size="10" fill="#ee2222" font-family="monospace" font-weight="bold">SEAM</text>
<rect x="10" y="22" width="20" height="3" fill="#88bbee"/>
<text x="35" y="27" font-size="11" fill="#88bbee" font-family="monospace">L1</text>
<rect x="10" y="40" width="20" height="3" fill="#6699dd"/>
<text x="35" y="45" font-size="11" fill="#6699dd" font-family="monospace">L2</text>
<rect x="10" y="58" width="20" height="3" fill="#dd5555"/>
<text x="35" y="63" font-size="11" fill="#dd5555" font-family="monospace">L3</text>
<rect x="10" y="76" width="20" height="3" fill="#ddcc22"/>
<text x="35" y="81" font-size="11" fill="#ddcc22" font-family="monospace">L4</text>
<rect x="10" y="94" width="20" height="3" fill="#00cc00"/>
<text x="35" y="99" font-size="11" fill="#00cc00" font-family="monospace">L5</text>
<rect x="10" y="112" width="20" height="3" fill="#ee7788"/>
<text x="35" y="117" font-size="11" fill="#ee7788" font-family="monospace">S1</text>
<rect x="10" y="130" width="20" height="3" fill="#4466cc"/>
<text x="35" y="135" font-size="11" fill="#4466cc" font-family="monospace">S2</text>
<rect x="10" y="148" width="20" height="3" fill="#ee2222"/>
<text x="35" y="153" font-size="11" fill="#ee2222" font-family="monospace">SEAM</text>
<text x="825" y="25" text-anchor="middle" font-size="16" fill="#ffffff" font-family="monospace">Dermatome Flat Map — Symmetrical</text>
<text x="825" y="42" text-anchor="middle" font-size="11" fill="#888888" font-family="monospace">L5 (green) = WARP | Cut at spine (0°) + axial line (270°)</text>
</svg>