<svg xmlns="http://www.w3.org/2000/svg" width="1205" height="2170" viewBox="0 0 1205 2170">
<rect width="1205" height="2170" fill="#1a1a2e"/>
<line x1="50" y1="592" x2="1155" y2="592" stroke="#ffffff" stroke-width="1.5" stroke-dasharray="8,4"/>
<text x="1125.4994053374596" y="583.92" fill="#ffffff" font-size="14" font-family="monospace" font-weight="bold">X (WEFT)</text>
<circle cx="655" cy="592" r="8" fill="none" stroke="#ffffff" stroke-width="2.5"/>
<line x1="641" y1="592" x2="669" y2="592" stroke="#ffffff" stroke-width="2"/>
<text x="670.3647763072939" y="579.92" fill="#ffffff" font-size="12" font-family="monospace">LATERAL HIP</text>
<text x="670.3647763072939" y="593.92" fill="#888888" font-size="10" font-family="monospace">Y=L5 | X=WEFT</text>
<polygon points="926.6,95.0 917.3,95.0 908.0,95.1 898.7,95.2 889.4,95.3 880.0,95.4 870.7,95.6 861.4,95.9 852.1,96.1 842.7,96.4 833.4,96.8 824.0,97.1 814.7,97.5 805.3,98.0 795.9,98.4 786.6,99.0 777.2,99.5 767.9,100.1 758.5,100.7 749.1,101.3 739.8,102.0 730.4,102.8 721.1,103.5 711.7,104.3 702.4,105.1 693.1,106.0 683.7,106.9 674.4,107.8 665.1,108.8 655.8,109.8 646.5,110.8 637.2,111.9 627.9,113.0 618.6,114.1 609.4,115.3 600.1,116.5 590.9,117.8 581.7,119.1 572.4,120.4 563.3,121.7 554.1,123.1 544.9,124.5 535.8,126.0 526.6,127.5 517.5,129.0 508.4,130.6 499.3,132.2 490.3,133.8 481.2,135.5 472.2,137.2 463.2,138.9 454.2,140.7 445.3,142.5 436.4,144.4 427.5,146.3 418.6,148.2 409.7,150.1 400.9,152.1 392.1,154.1 383.3,156.2 374.6,158.3 365.8,160.4 357.2,162.6 348.5,164.8 339.9,167.0 331.6,181.3 323.5,195.7 315.4,210.0 307.3,224.4 299.4,238.7 290.1,253.1 280.6,267.4 271.2,281.8 261.6,296.1 252.0,310.4 242.0,324.8 230.9,339.1 219.7,353.5 208.3,367.8 196.8,382.2 185.1,396.5 176.8,410.8 170.3,425.2 163.9,439.5 157.6,453.9 151.5,468.2 145.6,482.6 140.2,496.9 135.0,511.3 129.9,525.6 125.1,539.9 120.4,554.3 115.8,568.6 111.5,583.0 107.3,597.3 103.3,611.7 99.5,626.0 863.6,625.5 865.5,623.9 868.7,621.3 873.2,617.7 879.0,613.0 886.0,607.3 894.2,600.6 903.7,592.8 914.3,584.0 926.2,574.1 939.1,563.3 952.6,551.3 964.4,538.4 976.0,524.4 987.3,509.3 998.0,493.3 1006.6,476.1 1011.1,458.0 1013.7,438.8 1014.2,418.6 1010.7,397.3 995.2,375.0 976.9,351.7 955.9,327.3 941.8,301.9 930.2,275.5 917.3,248.0 911.1,219.5 907.9,189.9 907.6,159.3 916.9,127.7 926.6,95.0 926.6,95.0 921.3,113.0 915.9,131.0 910.6,149.0 905.3,167.0 907.5,185.0 909.6,203.0 911.7,221.0 913.8,239.0 923.3,257.0 932.7,275.0 942.1,293.0 951.5,311.0 966.1,329.0 985.9,347.0 1005.7,365.0 1025.5,383.0 1045.3,401.0 1055.7,419.0 1066.0,437.0 1076.4,455.0 1086.8,473.0 1093.5,491.0 1096.7,509.0 1099.9,527.0 1103.1,545.0 1099.9,563.0 1090.4,581.0 1080.8,599.0 1071.3,617.0 1052.5,635.0 1024.5,653.0 996.5,671.0 968.5,689.0 940.5,707.0 921.6,725.0 911.8,743.0 901.9,761.0 892.0,779.0 882.2,797.0 872.3,815.0 862.5,833.0 852.6,851.0 844.2,869.0 837.2,887.0 830.3,905.0 823.3,923.0 816.4,941.0 809.4,959.0 802.5,977.0 795.5,995.0 788.5,1013.0 781.6,1031.0 774.9,1049.0 768.6,1067.0 762.2,1085.0 755.8,1103.0 749.5,1121.0 743.1,1139.0 736.8,1157.0 730.4,1175.0 724.0,1193.0 717.7,1211.0 712.4,1229.0 708.1,1247.0 703.9,1265.0 699.7,1283.0 695.4,1301.0 694.3,1319.0 696.5,1337.0 698.6,1355.0 700.7,1373.0 702.8,1391.0 705.0,1409.0 707.1,1427.0 709.2,1445.0 711.3,1463.0 713.4,1481.0 713.0,1499.0 710.0,1517.0 707.1,1535.0 704.1,1553.0 701.1,1571.0 698.2,1589.0 695.2,1607.0 692.2,1625.0 689.3,1643.0 686.3,1661.0 683.1,1679.0 679.7,1697.0 676.3,1715.0 672.9,1733.0 669.5,1751.0 666.1,1769.0 662.8,1787.0 659.4,1805.0 656.0,1823.0 652.6,1841.0 649.4,1859.0 646.3,1877.0 643.3,1895.0 640.3,1913.0 637.2,1931.0 634.2,1949.0 631.2,1967.0 629.7,1976.0 629.7,1976.0 629.7,1976.0 629.7,1976.0 629.7,1976.0 629.7,1976.0 629.7,1976.0 629.7,1976.0 629.7,1976.0 629.7,1976.0 629.7,1976.0 629.7,1976.0 629.7,1976.0 629.7,1976.0 629.7,1976.0 629.7,1976.0 629.7,1976.0 629.7,1976.0 629.7,1976.0 629.7,1976.0 629.7,1976.0 629.7,1976.0 629.7,1976.0 629.7,1976.0 629.7,1976.0 629.7,1976.0 629.7,1976.0 629.7,1976.0 629.7,1976.0 629.7,1976.0 629.7,1976.0 629.7,1976.0 332.8,1976.0 335.9,1976.0 339.0,1976.0 342.1,1976.0 345.2,1976.0 348.3,1976.0 351.3,1976.0 354.4,1976.0 357.5,1976.0 360.6,1976.0 363.7,1976.0 366.8,1976.0 369.9,1976.0 373.0,1976.0 376.1,1976.0 379.2,1976.0 382.3,1976.0 385.4,1976.0 388.5,1976.0 391.5,1976.0 394.6,1976.0 397.7,1976.0 400.8,1976.0 403.9,1976.0 407.0,1976.0 410.1,1976.0 413.2,1976.0 416.3,1976.0 419.4,1976.0 422.5,1976.0 425.6,1976.0 428.7,1976.0 431.8,1976.0 434.8,1976.0 437.9,1976.0 441.0,1976.0 444.1,1976.0 447.2,1976.0 450.3,1976.0 453.4,1976.0 456.5,1976.0 459.6,1976.0 462.7,1976.0 465.8,1976.0 468.9,1976.0 472.0,1976.0 475.0,1976.0 478.1,1976.0 481.2,1976.0 484.3,1976.0 487.4,1976.0 490.5,1976.0 493.6,1976.0 496.7,1976.0 499.8,1976.0 502.9,1976.0 506.0,1976.0 509.1,1976.0 512.2,1976.0 515.2,1976.0 518.3,1976.0 521.4,1976.0 524.5,1976.0 527.6,1976.0 530.7,1976.0 533.8,1976.0 536.9,1976.0 540.0,1976.0 543.1,1976.0 546.2,1976.0 549.3,1976.0 552.4,1976.0 555.5,1976.0 558.5,1976.0 561.6,1976.0 564.7,1976.0 567.8,1976.0 570.9,1976.0 574.0,1976.0 577.1,1976.0 580.2,1976.0 583.3,1976.0 586.4,1976.0 589.5,1976.0 592.6,1976.0 595.7,1976.0 598.7,1976.0 601.8,1976.0 604.9,1976.0 608.0,1976.0 611.1,1976.0 614.2,1976.0 617.3,1976.0 620.4,1976.0 623.5,1976.0 626.6,1976.0 629.7,1976.0" fill="#c4a878" stroke="#aa8855" stroke-width="1" opacity="0.6"/>
<polyline points="926.6,95.0 905.3,167.0 913.8,239.0 956.2,320.0 1045.3,401.0 1092.0,482.0 1104.7,554.0 1066.5,626.0 982.5,680.0 926.6,716.0 911.8,743.0 901.9,761.0 892.0,779.0" fill="none" stroke="#00bb00" stroke-width="1.5"/>
<polygon points="922.551964440678,94.99999999999994 926.551964440678,90.99999999999994 930.551964440678,94.99999999999994 926.551964440678,98.99999999999994" fill="#00bb00"/>
<text x="932.551964440678" y="97.99999999999994" font-size="9" fill="#00bb00" font-family="monospace">T11</text>
<polygon points="901.3462140289471,167.0 905.3462140289471,163.0 909.3462140289471,167.0 905.3462140289471,171.0" fill="#00bb00"/>
<text x="911.3462140289471" y="170.0" font-size="9" fill="#00bb00" font-family="monospace">T12</text>
<polygon points="909.8285141936394,239.0000000000001 913.8285141936394,235.0000000000001 917.8285141936394,239.0000000000001 913.8285141936394,243.0000000000001" fill="#00bb00"/>
<text x="919.8285141936394" y="242.0000000000001" font-size="9" fill="#00bb00" font-family="monospace">L1</text>
<polygon points="952.2400150171015,319.99999999999994 956.2400150171015,315.99999999999994 960.2400150171015,319.99999999999994 956.2400150171015,323.99999999999994" fill="#00bb00"/>
<text x="962.2400150171015" y="322.99999999999994" font-size="9" fill="#00bb00" font-family="monospace">L2</text>
<polygon points="1041.3041667463722,401.0 1045.3041667463722,397.0 1049.3041667463722,401.0 1045.3041667463722,405.0" fill="#00bb00"/>
<text x="1051.3041667463722" y="404.0" font-size="9" fill="#00bb00" font-family="monospace">L3</text>
<polygon points="1087.9568176521807,481.9999999999999 1091.9568176521807,477.9999999999999 1095.9568176521807,481.9999999999999 1091.9568176521807,485.9999999999999" fill="#00bb00"/>
<text x="1097.9568176521807" y="484.9999999999999" font-size="9" fill="#00bb00" font-family="monospace">L4</text>
<polygon points="1100.6802678992194,554.0 1104.6802678992194,550.0 1108.6802678992194,554.0 1104.6802678992194,558.0" fill="#00bb00"/>
<text x="1110.6802678992194" y="557.0" font-size="9" fill="#00bb00" font-family="monospace">L5</text>
<polygon points="1062.5099171581035,626.0 1066.5099171581035,622.0 1070.5099171581035,626.0 1066.5099171581035,630.0" fill="#00bb00"/>
<text x="1072.5099171581035" y="629.0" font-size="9" fill="#00bb00" font-family="monospace">S1</text>
<polygon points="978.5351455276483,679.9999999999999 982.5351455276483,675.9999999999999 986.5351455276483,679.9999999999999 982.5351455276483,683.9999999999999" fill="#00bb00"/>
<text x="988.5351455276483" y="682.9999999999999" font-size="9" fill="#00bb00" font-family="monospace">S2</text>
<polygon points="922.5519644406781,715.9999999999999 926.5519644406781,711.9999999999999 930.5519644406781,715.9999999999999 926.5519644406781,719.9999999999999" fill="#00bb00"/>
<text x="932.5519644406781" y="718.9999999999999" font-size="9" fill="#00bb00" font-family="monospace">S3</text>
<polygon points="907.7609535284957,743.0 911.7609535284957,739.0 915.7609535284957,743.0 911.7609535284957,747.0" fill="#00bb00"/>
<text x="917.7609535284957" y="746.0" font-size="9" fill="#00bb00" font-family="monospace">S4</text>
<polygon points="897.9002795870406,761.0 901.9002795870406,757.0 905.9002795870406,761.0 901.9002795870406,765.0" fill="#00bb00"/>
<text x="907.9002795870406" y="764.0" font-size="9" fill="#00bb00" font-family="monospace">S5</text>
<polygon points="888.0396056455858,779.0 892.0396056455858,775.0 896.0396056455858,779.0 892.0396056455858,783.0" fill="#00bb00"/>
<text x="898.0396056455858" y="782.0" font-size="9" fill="#00bb00" font-family="monospace">Co</text>
<circle cx="927" cy="95" r="6" fill="#ff4444"/>
<text x="936.551964440678" y="98.99999999999994" font-size="12" fill="#ff4444" font-family="monospace" font-weight="bold">T11</text>
<circle cx="340" cy="167" r="6" fill="#ff8800"/>
<text x="349.8595363827842" y="171.0" font-size="12" fill="#ff8800" font-family="monospace" font-weight="bold">BB</text>
<circle cx="100" cy="626" r="6" fill="#cc00cc"/>
<text x="109.52769838316499" y="630.0" font-size="12" fill="#cc00cc" font-family="monospace" font-weight="bold">PB</text>
<polyline points="926.6,95.0 917.3,95.0 908.0,95.1 898.7,95.2 889.4,95.3 880.0,95.4 870.7,95.6 861.4,95.9 852.1,96.1 842.7,96.4 833.4,96.8 824.0,97.1 814.7,97.5 805.3,98.0 795.9,98.4 786.6,99.0 777.2,99.5 767.9,100.1 758.5,100.7 749.1,101.3 739.8,102.0 730.4,102.8 721.1,103.5 711.7,104.3 702.4,105.1 693.1,106.0 683.7,106.9 674.4,107.8 665.1,108.8 655.8,109.8 646.5,110.8 637.2,111.9 627.9,113.0 618.6,114.1 609.4,115.3 600.1,116.5 590.9,117.8 581.7,119.1 572.4,120.4 563.3,121.7 554.1,123.1 544.9,124.5 535.8,126.0 526.6,127.5 517.5,129.0 508.4,130.6 499.3,132.2 490.3,133.8 481.2,135.5 472.2,137.2 463.2,138.9 454.2,140.7 445.3,142.5 436.4,144.4 427.5,146.3 418.6,148.2 409.7,150.1 400.9,152.1 392.1,154.1 383.3,156.2 374.6,158.3 365.8,160.4 357.2,162.6 348.5,164.8 339.9,167.0 331.6,181.3 323.5,195.7 315.4,210.0 307.3,224.4 299.4,238.7 290.1,253.1 280.6,267.4 271.2,281.8 261.6,296.1 252.0,310.4 242.0,324.8 230.9,339.1 219.7,353.5 208.3,367.8 196.8,382.2 185.1,396.5 176.8,410.8 170.3,425.2 163.9,439.5 157.6,453.9 151.5,468.2 145.6,482.6 140.2,496.9 135.0,511.3 129.9,525.6 125.1,539.9 120.4,554.3 115.8,568.6 111.5,583.0 107.3,597.3 103.3,611.7 99.5,626.0 863.6,625.5 865.5,623.9 868.7,621.3 873.2,617.7 879.0,613.0 886.0,607.3 894.2,600.6 903.7,592.8 914.3,584.0 926.2,574.1 939.1,563.3 952.6,551.3 964.4,538.4 976.0,524.4 987.3,509.3 998.0,493.3 1006.6,476.1 1011.1,458.0 1013.7,438.8 1014.2,418.6 1010.7,397.3 995.2,375.0 976.9,351.7 955.9,327.3 941.8,301.9 930.2,275.5 917.3,248.0 911.1,219.5 907.9,189.9 907.6,159.3 916.9,127.7 926.6,95.0" fill="none" stroke="#cccc00" stroke-width="1.5"/>
<polyline points="926.6,95.0 922.5,95.2 918.5,95.3 914.5,95.5 910.5,95.6 906.5,95.8 902.6,95.9 898.6,96.1 894.6,96.2 890.6,96.4 886.6,96.5 882.6,96.6 878.6,96.8 874.6,96.9 870.6,97.1 866.6,97.2 862.6,97.4 858.6,97.5 854.6,97.7 850.6,97.8 846.7,98.0 842.7,98.1 838.7,98.3 834.7,98.4 830.7,98.6 826.7,98.7 822.8,98.9 818.8,99.1 814.8,99.2 810.8,99.4 806.8,99.5 802.8,99.7 798.9,99.8 794.9,99.9 790.9,100.1 786.9,100.2 783.0,100.4 779.0,100.5 775.0,100.7 771.0,100.8 767.1,101.0 763.1,101.1 759.1,101.3 755.2,101.4 751.2,101.6 747.2,101.7 743.3,101.9 739.3,102.0 735.3,102.2 731.4,102.3 727.4,102.5 723.4,102.7 719.5,102.8 715.5,103.0 711.6,103.1 707.6,103.3 703.6,103.4 699.7,103.6 695.7,103.7 691.8,103.8 687.8,104.0 683.9,104.1 679.9,104.3 675.9,104.4 672.0,104.6 668.0,104.7 664.1,104.9 660.1,105.0 656.2,105.2 652.2,105.3 648.3,105.5 644.3,105.6 640.4,105.8 636.5,105.9 632.5,106.1 628.6,106.3 624.6,106.4 620.7,106.6 616.7,106.7 612.8,106.9 608.9,107.0 604.9,107.2 601.0,107.3 597.0,107.4 593.1,107.6 589.2,107.7 585.2,107.9 581.3,108.0 577.4,108.2 573.4,108.3 569.5,108.5 565.6,108.6 561.6,108.8 557.7,108.9 553.8,109.1 549.9,109.2 545.9,109.4 542.0,109.5 538.1,109.7 534.1,109.8 530.2,110.0 526.3,110.2 522.4,110.3 518.5,110.5 514.5,110.6 510.6,110.8 506.7,110.9 502.8,111.1 498.9,111.2 494.9,111.3 491.0,111.5 487.1,111.6 483.2,111.8 479.3,111.9 475.4,112.1 471.4,112.2 467.5,112.4 463.6,112.5 459.7,112.7 455.8,112.8 451.9,113.0 448.0,113.1 444.1,113.3 440.2,113.4 436.3,113.6 432.4,113.7 428.5,113.9 424.6,114.1 420.7,114.2 416.8,114.4 412.9,114.5 409.0,114.6 405.1,114.8 401.2,114.9 397.3,115.1 393.4,115.2 389.5,115.4 385.6,115.5 381.7,115.7 377.8,115.8 373.9,116.0 370.0,116.1 366.1,116.3 362.2,116.4 358.3,116.6 354.4,116.7 350.5,116.9 346.7,117.0 342.8,117.2 338.9,117.3 335.0,117.5 331.1,117.7 327.2,117.8 323.3,118.0 319.5,118.1 315.6,118.2 311.7,118.4 307.8,118.5 303.9,118.7 300.1,118.8 296.2,119.0 292.3,119.1 288.4,119.3 284.6,119.4 280.7,119.6 276.8,119.7 272.9,119.9 269.1,120.0 265.2,120.2 261.3,120.3 257.5,120.5 253.6,120.6 249.7,120.8 245.9,120.9 242.0,121.1 238.1,121.3 234.3,121.4 230.4,121.6 226.5,121.7 222.7,121.9 218.8,122.0 214.9,122.1 211.1,122.3 207.2,122.4 203.4,122.6 199.5,122.7 195.7,122.9 191.8,123.0 187.9,123.2 184.1,123.3 180.2,123.5 176.4,123.6 172.5,123.8 168.7,123.9 164.8,124.1 161.0,124.2 157.1,124.4 153.3,124.5 149.4,124.7 145.6,124.8 141.7,125.0 137.9,125.2 134.1,125.3 130.2,125.4 126.4,125.6 122.5,125.7 118.7,125.9 114.8,126.0 111.0,126.2 107.2,126.3 103.3,126.5 99.5,126.6 95.7,126.8 91.8,126.9 88.0,127.1 84.1,127.2 80.3,127.4 76.5,127.5 72.7,127.7 68.8,127.8 65.0,128.0 61.2,128.1 57.3,128.3 53.5,128.4 49.7,128.6 45.9,128.7 45.9,128.9 45.9,129.1 46.0,129.2 46.0,129.3 46.1,129.5 46.1,129.6 46.2,129.8 46.2,129.9 46.2,130.1 46.3,130.2 46.3,130.4 46.4,130.5 46.4,130.7 46.5,130.8 46.5,131.0 46.6,131.1 46.6,131.3 46.6,131.4 46.7,131.6 46.7,131.7 46.8,131.9 46.8,132.0 46.9,132.2 46.9,132.3 47.0,132.5 47.0,132.7 47.0,132.8 47.1,132.9 47.1,133.1 47.2,133.2 47.2,133.4 47.3,133.5 47.3,133.7 47.4,133.8 47.4,134.0 47.4,134.1 47.5,134.3 47.5,134.4 47.6,134.6 47.6,134.7 47.7,134.9 47.7,135.0 47.8,135.2 47.8,135.3 47.8,135.5 47.9,135.6 47.9,135.8 48.0,135.9 48.0,136.1 48.1,136.2 48.1,136.4 48.1,136.5 48.2,136.7 48.2,136.8 48.3,137.0 48.3,137.1 48.4,137.3 48.4,137.4 48.5,137.6 48.5,137.7 48.5,137.9 48.6,138.0 48.6,138.2 48.7,138.3 48.7,138.5 48.8,138.6 48.8,138.8 48.9,138.9 48.9,139.1 48.9,139.2 49.0,139.4 49.0,139.5 49.1,139.7 49.1,139.8 49.2,140.0" fill="none" stroke="#999999" stroke-width="1.5" stroke-linecap="round"/>
<text x="931.551964440678" y="89.99999999999994" font-size="11" fill="#999999" font-family="monospace" font-weight="bold">T11</text>
<polyline points="905.3,167.0 901.6,167.2 897.8,167.3 894.1,167.5 890.3,167.6 886.6,167.8 882.8,167.9 879.1,168.1 875.3,168.2 871.6,168.4 867.8,168.5 864.0,168.7 860.3,168.8 856.5,168.9 852.7,169.1 849.0,169.2 845.2,169.4 841.5,169.5 837.7,169.7 833.9,169.8 830.1,170.0 826.4,170.1 822.6,170.3 818.8,170.4 815.0,170.6 811.3,170.7 807.5,170.9 803.7,171.1 799.9,171.2 796.2,171.4 792.4,171.5 788.6,171.7 784.8,171.8 781.0,172.0 777.2,172.1 773.4,172.3 769.7,172.4 765.9,172.6 762.1,172.7 758.3,172.8 754.5,173.0 750.7,173.1 746.9,173.3 743.1,173.4 739.3,173.6 735.6,173.7 731.8,173.9 728.0,174.0 724.2,174.2 720.4,174.3 716.6,174.5 712.8,174.7 709.0,174.8 705.2,175.0 701.5,175.1 697.7,175.3 693.9,175.4 690.1,175.6 686.3,175.7 682.5,175.9 678.8,176.0 675.0,176.2 671.2,176.3 667.4,176.4 663.6,176.6 659.9,176.7 656.1,176.9 652.3,177.0 648.5,177.2 644.8,177.3 641.0,177.5 637.2,177.6 633.5,177.8 629.7,177.9 625.9,178.1 622.2,178.3 618.4,178.4 614.6,178.6 610.9,178.7 607.1,178.9 603.3,179.0 599.6,179.2 595.8,179.3 592.1,179.5 588.3,179.6 584.5,179.8 580.8,179.9 577.0,180.1 573.3,180.2 569.5,180.3 565.7,180.5 562.0,180.6 558.2,180.8 554.5,180.9 550.7,181.1 546.9,181.2 543.2,181.4 539.4,181.5 535.7,181.7 531.9,181.8 528.2,182.0 524.4,182.2 520.6,182.3 516.9,182.5 513.1,182.6 509.4,182.8 505.6,182.9 501.9,183.1 498.1,183.2 494.4,183.4 490.6,183.5 486.9,183.6 483.1,183.8 479.4,183.9 475.6,184.1 471.9,184.2 468.1,184.4 464.3,184.5 460.6,184.7 456.8,184.8 453.1,185.0 449.3,185.1 445.6,185.3 441.9,185.4 438.1,185.6 434.4,185.7 430.6,185.9 426.9,186.1 423.1,186.2 419.4,186.4 415.6,186.5 411.9,186.7 408.1,186.8 404.4,187.0 400.6,187.1 396.9,187.2 393.1,187.4 389.4,187.5 385.7,187.7 381.9,187.8 378.2,188.0 374.4,188.1 370.7,188.3 366.9,188.4 363.2,188.6 359.4,188.7 355.7,188.9 352.0,189.0 348.2,189.2 344.5,189.3 340.7,189.5 337.0,189.7 333.3,189.8 329.5,190.0 325.8,190.1 322.0,190.3 318.3,190.4 314.6,190.6 310.8,190.7 307.1,190.9 303.4,191.0 299.6,191.1 295.9,191.3 292.1,191.4 288.4,191.6 284.7,191.7 280.9,191.9 277.2,192.0 273.5,192.2 269.7,192.3 266.0,192.5 262.3,192.6 258.5,192.8 254.8,192.9 251.1,193.1 247.3,193.3 243.6,193.4 239.9,193.6 236.1,193.7 232.4,193.9 228.7,194.0 224.9,194.2 221.2,194.3 217.5,194.4 213.7,194.6 210.0,194.7 206.3,194.9 202.6,195.0 198.8,195.2 195.1,195.3 191.4,195.5 187.6,195.6 183.9,195.8 180.2,195.9 176.5,196.1 172.7,196.2 169.0,196.4 165.3,196.5 161.6,196.7 157.8,196.8 154.1,197.0 150.4,197.2 146.7,197.3 142.9,197.5 139.2,197.6 135.5,197.8 131.8,197.9 128.0,198.1 124.3,198.2 120.6,198.3 116.9,198.5 113.2,198.6 109.4,198.8 105.7,198.9 102.0,199.1 98.3,199.2 94.6,199.4 90.8,199.5 87.1,199.7 83.4,199.8 79.7,200.0 76.0,200.1 72.2,200.3 68.5,200.4 64.8,200.6 61.1,200.7 61.1,200.9 61.1,201.1 61.1,201.2 61.2,201.4 61.2,201.5 61.2,201.6 61.2,201.8 61.2,201.9 61.3,202.1 61.3,202.2 61.3,202.4 61.3,202.5 61.3,202.7 61.3,202.8 61.4,203.0 61.4,203.1 61.4,203.3 61.4,203.4 61.4,203.6 61.4,203.7 61.5,203.9 61.5,204.0 61.5,204.2 61.5,204.3 61.5,204.5 61.6,204.7 61.6,204.8 61.6,205.0 61.6,205.1 61.6,205.2 61.6,205.4 61.7,205.5 61.7,205.7 61.7,205.8 61.7,206.0 61.7,206.1 61.7,206.3 61.8,206.4 61.8,206.6 61.8,206.7 61.8,206.9 61.8,207.0 61.9,207.2 61.9,207.3 61.9,207.5 61.9,207.6 61.9,207.8 61.9,207.9 62.0,208.1 62.0,208.3 62.0,208.4 62.0,208.6 62.0,208.7 62.0,208.9 62.1,209.0 62.1,209.1 62.1,209.3 62.1,209.4 62.1,209.6 62.2,209.7 62.2,209.9 62.2,210.0 62.2,210.2 62.2,210.3 62.2,210.5 62.3,210.6 62.3,210.8 62.3,210.9 62.3,211.1 62.3,211.2 62.3,211.4 62.4,211.5 62.4,211.7 62.4,211.8 62.4,212.0" fill="none" stroke="#777777" stroke-width="1.5" stroke-linecap="round"/>
<text x="910.3462140289471" y="162.0" font-size="11" fill="#777777" font-family="monospace" font-weight="bold">T12</text>
<polyline points="913.8,239.0 913.4,240.3 912.9,241.6 912.4,242.9 911.9,244.2 911.4,245.4 910.9,246.7 910.4,248.0 909.9,249.3 909.4,250.6 908.9,251.9 908.3,253.2 907.8,254.5 907.3,255.8 906.7,257.1 906.2,258.4 905.6,259.6 905.1,260.9 904.5,262.2 903.9,263.5 903.3,264.8 902.7,266.1 902.1,267.4 901.5,268.7 900.9,270.0 900.3,271.2 899.7,272.5 899.0,273.8 898.4,275.1 897.8,276.4 897.1,277.7 896.4,279.0 895.8,280.3 895.1,281.6 894.4,282.9 893.7,284.2 893.0,285.4 892.3,286.7 891.6,288.0 890.8,289.3 890.1,290.6 889.4,291.9 888.6,293.2 887.1,294.5 885.6,295.8 884.1,297.0 882.5,298.3 881.0,299.6 879.4,300.9 877.9,302.2 876.3,303.5 874.6,304.8 873.0,306.1 871.4,307.4 869.7,308.7 868.1,310.0 866.4,311.2 864.7,312.5 863.0,313.8 861.3,315.1 859.6,316.4 857.8,317.7 856.1,319.0 854.4,320.3 853.1,321.6 851.8,322.9 850.5,324.1 849.1,325.4 847.7,326.7 846.3,328.0 844.9,329.3 843.5,330.6 842.0,331.9 840.5,333.2 839.0,334.5 837.4,335.8 835.9,337.0 834.3,338.3 832.7,339.6 831.0,340.9 829.4,342.2 827.7,343.5 826.0,344.8 824.3,346.1 822.6,347.4 820.8,348.6 819.0,349.9 817.3,351.2 813.7,352.5 810.1,353.8 806.4,355.1 802.8,356.4 799.1,357.7 795.4,359.0 791.7,360.3 788.0,361.5 784.3,362.8 780.5,364.1 776.8,365.4 773.0,366.7 769.3,368.0 765.5,369.3 761.7,370.6 758.0,371.9 754.2,373.2 750.4,374.5 746.7,375.7 742.9,377.0 739.2,378.3 735.5,379.6 731.7,380.9 728.0,382.2 724.3,383.5 720.7,384.8 717.0,386.1 713.4,387.4 709.7,388.6 706.1,389.9 702.5,391.2 699.0,392.5 695.4,393.8 691.9,395.1 688.4,396.4 684.9,397.7 681.5,399.0 678.1,400.3 674.6,401.5 670.9,402.8 667.3,404.1 663.7,405.4 659.3,406.7 654.9,408.0 650.7,409.3 646.4,410.6 642.2,411.9 638.1,413.2 634.0,414.4 629.9,415.7 625.9,417.0 621.9,418.3 617.9,419.6 614.0,420.9 610.0,422.2 606.0,423.5 602.0,424.8 598.1,426.1 594.1,427.3 590.2,428.6 586.2,429.9 582.3,431.2 578.4,432.5 574.4,433.8 570.5,435.1 566.6,436.4 562.7,437.7 558.8,439.0 554.9,440.2 551.0,441.5 547.1,442.8 543.2,444.1 539.4,445.4 535.5,446.7 531.6,448.0 527.8,449.3 523.9,450.6 520.1,451.9 516.3,453.1 512.4,454.4 508.6,455.7 504.8,457.0 501.0,458.3 497.2,459.6 493.7,460.9 490.3,462.2 486.9,463.5 483.5,464.8 480.1,466.0 476.7,467.3 473.3,468.6 469.9,469.9 466.5,471.2 463.2,472.5 459.8,473.8 456.4,475.1 453.1,476.4 449.7,477.6 446.4,478.9 443.0,480.2 439.7,481.5 436.4,482.8 433.1,484.1 429.7,485.4 426.4,486.7 423.1,488.0 419.8,489.3 416.5,490.6 413.3,491.8 410.0,493.1 406.7,494.4 403.4,495.7 400.2,497.0 396.9,498.3 393.7,499.6 390.4,500.9 387.2,502.2 384.0,503.4 380.7,504.7 377.5,506.0 374.3,507.3 371.1,508.6 367.9,509.9 364.7,511.2 361.5,512.5 358.3,513.8 355.4,515.1 352.4,516.4 349.5,517.6 346.5,518.9 343.6,520.2 340.7,521.5 337.8,522.8 334.8,524.1 331.9,525.4 329.0,526.7 326.1,528.0 323.2,529.3 320.3,530.5 317.5,531.8 314.6,533.1 311.7,534.4 308.8,535.7 306.0,537.0 303.1,538.3 300.3,539.6 297.4,540.9 294.6,542.2 291.8,543.4 288.9,544.7 286.1,546.0 283.3,547.3 280.5,548.6 277.7,549.9 274.9,551.2 272.1,552.5 269.3,553.8 266.5,555.1 263.7,556.3 261.0,557.6 258.2,558.9 255.4,560.2 252.7,561.5 249.9,562.8 247.2,564.1 244.5,565.4 241.7,566.7 239.0,568.0 236.3,569.2 233.6,570.5 230.9,571.8 226.9,573.1 222.9,574.4 219.0,575.7 215.0,577.0 211.1,578.3 207.2,579.6 203.3,580.9 199.4,582.1 195.5,583.4 191.6,584.7 187.7,586.0 183.8,587.3 179.9,588.6 176.1,589.9 172.2,591.2 168.4,592.5 164.5,593.8 160.7,595.0 156.9,596.3 153.1,597.6 149.3,598.9 146.9,600.2 144.4,601.5 142.0,602.8 139.6,604.1 137.2,605.4 134.8,606.6 132.4,607.9 130.0,609.2 127.7,610.5 125.3,611.8 122.9,613.1 120.6,614.4 118.2,615.7 115.8,617.0 113.5,618.3 111.2,619.5 108.8,620.8 106.5,622.1 104.2,623.4 101.8,624.7 99.5,626.0" fill="none" stroke="#88bbee" stroke-width="2" stroke-linecap="round"/>
<text x="918.8285141936394" y="234.0000000000001" font-size="11" fill="#88bbee" font-family="monospace" font-weight="bold">L1</text>
<polyline points="956.2,320.0 956.2,322.7 956.2,325.4 956.1,328.1 955.9,330.8 955.6,333.5 955.3,336.2 954.9,338.9 954.5,341.6 953.9,344.3 953.3,347.0 952.6,349.7 951.9,352.4 951.0,355.1 950.1,357.8 949.1,360.5 948.0,363.2 946.8,365.9 945.5,368.6 943.2,371.3 940.7,374.0 938.2,376.7 935.5,379.4 932.8,382.1 929.9,384.8 926.9,387.5 923.8,390.2 920.5,392.9 917.2,395.6 913.8,398.3 910.2,401.0 905.5,403.7 900.7,406.4 895.8,409.1 890.8,411.8 885.8,414.5 880.7,417.2 875.5,419.9 870.3,422.6 865.0,425.3 859.7,428.0 854.3,430.7 848.9,433.4 841.0,436.1 833.0,438.8 825.0,441.5 817.1,444.2 809.1,446.9 801.1,449.6 793.2,452.3 785.3,455.0 777.5,457.7 769.7,460.4 762.0,463.1 754.4,465.8 746.9,468.5 739.4,471.2 732.1,473.9 724.8,476.6 717.7,479.3 710.7,482.0 703.7,484.7 696.9,487.4 690.3,490.1 683.8,492.8 677.4,495.5 671.2,498.2 665.2,500.9 659.3,503.6 653.5,506.3 647.8,509.0 642.3,511.7 636.9,514.4 631.6,517.1 626.4,519.8 621.4,522.5 616.5,525.2 611.6,527.9 606.8,530.6 602.0,533.3 597.1,536.0 592.3,538.7 587.6,541.4 582.8,544.1 578.1,546.8 573.3,549.5 568.6,552.2 563.9,554.9 559.3,557.6 554.6,560.3 550.0,563.0 545.3,565.7 540.7,568.4 536.2,571.1 531.6,573.8 527.0,576.5 522.5,579.2 518.0,581.9 513.5,584.6 509.0,587.3 504.6,590.0 500.1,592.7 495.7,595.4 493.1,598.1 490.5,600.8 487.9,603.5 485.4,606.2 482.8,608.9 480.3,611.6 477.7,614.3 475.2,617.0 472.7,619.7 470.2,622.4 467.7,625.1 465.2,627.8 462.7,630.5 460.3,633.2 457.8,635.9 455.4,638.6 452.9,641.3 450.5,644.0 448.0,646.7 445.6,649.4 443.2,652.1 440.8,654.8 438.4,657.5 436.0,660.2 433.6,662.9 431.3,665.6 428.9,668.3 426.6,671.0 424.2,673.7 421.9,676.4 419.5,679.1 417.2,681.8 414.9,684.5 412.6,687.2 410.3,689.9 408.0,692.6 405.8,695.3 403.5,698.0 401.2,700.7 399.0,703.4 396.7,706.1 394.5,708.8 392.3,711.5 390.0,714.2 387.8,716.9 385.1,719.6 382.5,722.3 379.8,725.0 377.1,727.7 374.5,730.4 371.8,733.1 369.2,735.8 366.6,738.5 364.0,741.2 361.3,743.9 358.7,746.6 356.1,749.3 353.5,752.0 350.9,754.7 348.3,757.4 345.7,760.1 343.2,762.8 340.6,765.5 338.0,768.2 335.5,770.9 332.9,773.6 330.4,776.3 327.8,779.0 325.3,781.7 323.9,784.4 322.6,787.1 321.2,789.8 319.9,792.5 318.5,795.2 317.2,797.9 315.8,800.6 314.5,803.3 313.1,806.0 311.8,808.7 310.5,811.4 309.1,814.1 307.8,816.8 306.5,819.5 305.2,822.2 303.8,824.9 302.5,827.6 301.2,830.3 299.9,833.0 298.6,835.7 297.3,838.4 296.0,841.1 294.7,843.8 293.4,846.5 292.2,849.2 290.9,851.9 289.6,854.6 288.3,857.3 287.1,860.0 285.9,862.7 284.8,865.4 283.7,868.1 282.6,870.8 281.5,873.5 280.4,876.2 279.3,878.9 278.2,881.6 277.1,884.3 276.0,887.0 274.9,889.7 273.9,892.4 272.8,895.1 271.6,897.8 270.4,900.5 269.1,903.2 267.9,905.9 266.7,908.6 265.5,911.3 264.3,914.0 263.1,916.7 262.0,919.4 260.8,922.1 259.6,924.8 258.5,927.5 257.3,930.2 256.1,932.9 255.0,935.6 253.9,938.3 252.7,941.0 251.6,943.7 250.5,946.4 249.4,949.1 248.3,951.8 247.2,954.5 246.1,957.2 245.0,959.9 243.9,962.6 242.8,965.3 241.8,968.0 240.7,970.7 239.7,973.4 238.6,976.1 237.6,978.8 236.5,981.5 235.5,984.2 234.5,986.9 233.5,989.6 232.5,992.3 231.4,995.0 230.4,997.7 229.5,1000.4 228.5,1003.1 227.5,1005.8 226.5,1008.5 225.6,1011.2 224.6,1013.9 223.6,1016.6 223.1,1019.3 222.6,1022.0 222.1,1024.7 221.6,1027.4 221.1,1030.1 220.6,1032.8 220.1,1035.5 219.6,1038.2 219.2,1040.9 219.0,1043.6 218.8,1046.3 218.6,1049.0 218.4,1051.7 218.3,1054.4 218.1,1057.1 217.9,1059.8 217.8,1062.5 217.6,1065.2 217.5,1067.9 217.4,1070.6 217.2,1073.3 217.1,1076.0 217.0,1078.7 216.9,1081.4 216.8,1084.1 216.7,1086.8 216.6,1089.5 216.5,1092.2 216.5,1094.9 216.4,1097.6 216.4,1100.3 216.3,1103.0 216.3,1105.7 216.2,1108.4 216.2,1111.1 216.2,1113.8 216.1,1116.5 216.1,1119.2 216.1,1121.9 216.1,1124.6 216.1,1127.3 216.2,1130.0" fill="none" stroke="#6699dd" stroke-width="2" stroke-linecap="round"/>
<text x="961.2400150171015" y="314.99999999999994" font-size="11" fill="#6699dd" font-family="monospace" font-weight="bold">L2</text>
<polyline points="1045.3,401.0 1043.4,403.9 1041.5,406.7 1039.5,409.6 1037.4,412.4 1035.2,415.3 1032.9,418.1 1030.6,421.0 1028.2,423.8 1025.7,426.6 1023.1,429.5 1020.4,432.3 1017.6,435.2 1014.8,438.0 1011.9,440.9 1008.8,443.8 1005.7,446.6 1002.5,449.5 999.3,452.3 995.9,455.2 992.4,458.0 988.9,460.9 985.3,463.7 981.6,466.6 977.8,469.4 970.3,472.2 962.6,475.1 954.8,477.9 946.8,480.8 938.2,483.7 929.3,486.5 920.3,489.4 911.2,492.2 902.1,495.1 893.0,497.9 883.8,500.8 874.7,503.6 865.5,506.4 856.4,509.3 847.3,512.1 838.2,515.0 829.2,517.8 820.2,520.7 811.4,523.6 802.6,526.4 793.8,529.3 785.8,532.1 777.8,535.0 770.0,537.8 762.2,540.7 754.6,543.5 747.1,546.4 739.7,549.2 732.4,552.0 725.2,554.9 718.0,557.8 711.0,560.6 704.2,563.5 697.6,566.3 691.1,569.2 684.9,572.0 678.8,574.9 672.9,577.7 667.1,580.6 661.5,583.4 656.1,586.2 650.9,589.1 645.7,591.9 640.8,594.8 636.0,597.6 631.3,600.5 626.7,603.4 622.3,606.2 617.9,609.1 613.7,611.9 609.6,614.8 606.4,617.6 603.2,620.5 600.0,623.3 596.9,626.1 593.8,629.0 590.7,631.9 587.6,634.7 584.5,637.5 581.5,640.4 578.4,643.3 575.4,646.1 572.4,648.9 569.3,651.8 566.3,654.7 563.3,657.5 560.4,660.4 557.4,663.2 554.4,666.0 551.5,668.9 548.5,671.8 545.6,674.6 542.7,677.4 539.7,680.3 536.8,683.2 533.9,686.0 531.1,688.8 528.2,691.7 525.3,694.6 522.5,697.4 519.6,700.2 516.8,703.1 514.0,706.0 511.2,708.8 508.4,711.6 505.6,714.5 502.8,717.3 500.0,720.2 497.3,723.0 494.5,725.9 492.7,728.8 490.8,731.6 489.0,734.5 487.1,737.3 485.3,740.2 483.4,743.0 481.6,745.9 479.8,748.7 477.9,751.5 476.1,754.4 474.3,757.2 472.5,760.1 470.7,763.0 468.9,765.8 467.1,768.6 465.3,771.5 463.5,774.4 461.7,777.2 459.9,780.1 458.1,782.9 456.4,785.8 454.6,788.6 452.8,791.5 451.1,794.3 449.3,797.1 447.6,800.0 445.8,802.8 444.1,805.7 442.3,808.5 440.6,811.4 438.9,814.3 437.1,817.1 435.4,820.0 433.7,822.8 432.0,825.7 430.3,828.5 428.2,831.4 426.2,834.2 424.1,837.0 422.1,839.9 420.0,842.8 418.0,845.6 416.0,848.4 414.0,851.3 411.9,854.2 409.9,857.0 407.9,859.8 406.0,862.7 404.0,865.5 402.1,868.4 400.2,871.2 398.3,874.1 396.4,877.0 394.5,879.8 392.6,882.7 390.7,885.5 388.8,888.3 387.0,891.2 385.1,894.1 383.3,896.9 381.1,899.8 378.9,902.6 376.8,905.5 374.6,908.3 372.5,911.1 370.4,914.0 368.2,916.8 366.1,919.7 364.0,922.6 361.9,925.4 359.9,928.2 357.8,931.1 355.7,934.0 353.7,936.8 351.6,939.6 349.6,942.5 347.6,945.4 345.6,948.2 343.6,951.0 341.6,953.9 339.6,956.8 337.6,959.6 335.7,962.4 333.7,965.3 331.8,968.1 329.8,971.0 327.9,973.9 326.0,976.7 324.1,979.5 322.2,982.4 320.3,985.2 318.4,988.1 316.5,991.0 314.7,993.8 312.8,996.6 311.0,999.5 309.6,1002.4 308.3,1005.2 306.9,1008.0 305.6,1010.9 304.2,1013.8 302.9,1016.6 301.6,1019.5 300.3,1022.3 298.9,1025.2 297.6,1028.0 296.4,1030.8 295.1,1033.7 293.8,1036.5 292.5,1039.4 291.4,1042.2 290.4,1045.1 289.4,1047.9 288.4,1050.8 287.4,1053.7 286.4,1056.5 285.4,1059.3 284.4,1062.2 283.5,1065.0 282.5,1067.9 281.6,1070.8 280.7,1073.6 279.8,1076.5 278.9,1079.3 278.0,1082.2 277.1,1085.0 276.2,1087.8 275.4,1090.7 274.5,1093.6 273.7,1096.4 272.9,1099.2 272.1,1102.1 271.3,1105.0 270.5,1107.8 269.7,1110.7 269.2,1113.5 268.6,1116.3 268.1,1119.2 267.6,1122.1 267.1,1124.9 266.6,1127.8 266.1,1130.6 265.6,1133.5 265.1,1136.3 264.6,1139.1 264.2,1142.0 263.7,1144.8 263.3,1147.7 262.9,1150.6 262.5,1153.4 262.1,1156.2 261.7,1159.1 261.3,1161.9 260.9,1164.8 260.5,1167.7 260.2,1170.5 259.8,1173.4 259.5,1176.2 259.2,1179.0 258.9,1181.9 258.6,1184.8 258.3,1187.6 258.0,1190.5 257.7,1193.3 257.4,1196.2 257.5,1199.0 257.6,1201.8 257.7,1204.7 257.8,1207.5 257.9,1210.4 258.1,1213.2 258.2,1216.1 258.3,1218.9 258.2,1221.8 258.1,1224.7 257.9,1227.5 257.7,1230.3 257.6,1233.2 257.4,1236.0 257.3,1238.9 257.1,1241.8 257.0,1244.6 256.8,1247.5 256.7,1250.3 256.6,1253.2 256.5,1256.0" fill="none" stroke="#dd5555" stroke-width="2" stroke-linecap="round"/>
<text x="1050.3041667463722" y="396.0" font-size="11" fill="#dd5555" font-family="monospace" font-weight="bold">L3</text>
<polyline points="1092.0,482.0 1087.1,487.0 1082.0,492.0 1076.8,496.9 1071.3,501.9 1065.6,506.9 1059.8,511.9 1053.7,516.9 1047.5,521.8 1041.1,526.8 1034.5,531.8 1027.7,536.8 1020.7,541.8 1012.7,546.7 1004.5,551.7 994.6,556.7 983.4,561.7 972.3,566.7 961.1,571.6 950.0,576.6 938.9,581.6 927.8,586.6 916.8,591.6 905.8,596.5 895.0,601.5 884.2,606.5 873.6,611.5 863.1,616.5 852.7,621.4 842.2,626.4 830.1,631.4 819.1,636.4 808.6,641.4 798.3,646.3 788.4,651.3 778.9,656.3 769.7,661.3 760.8,666.3 752.3,671.2 744.1,676.2 736.2,681.2 728.6,686.2 721.3,691.2 714.2,696.1 707.5,701.1 701.0,706.1 694.8,711.1 688.9,716.1 683.9,721.0 679.1,726.0 674.3,731.0 669.7,736.0 665.1,741.0 660.7,745.9 656.3,750.9 652.3,755.9 648.4,760.9 644.5,765.9 640.7,770.8 637.0,775.8 633.3,780.8 629.7,785.8 626.1,790.8 622.6,795.7 619.1,800.7 615.7,805.7 612.3,810.7 609.0,815.7 605.7,820.6 602.4,825.6 599.2,830.6 596.0,835.6 592.7,840.6 589.6,845.5 586.4,850.5 583.2,855.5 580.1,860.5 576.8,865.5 573.5,870.4 570.3,875.4 567.1,880.4 563.9,885.4 560.8,890.4 557.6,895.3 554.5,900.3 551.8,905.3 549.1,910.3 546.5,915.3 543.8,920.2 541.2,925.2 538.6,930.2 536.0,935.2 533.4,940.2 530.9,945.1 528.4,950.1 525.8,955.1 523.3,960.1 520.8,965.1 518.4,970.0 515.9,975.0 513.5,980.0 511.1,985.0 508.7,990.0 506.3,994.9 503.9,999.9 501.6,1004.9 499.2,1009.9 496.9,1014.9 494.6,1019.8 492.4,1024.8 490.1,1029.8 487.9,1034.8 485.6,1039.8 483.4,1044.7 481.2,1049.7 479.4,1054.7 477.7,1059.7 475.9,1064.7 474.2,1069.6 472.4,1074.6 470.8,1079.6 469.1,1084.6 467.4,1089.6 465.8,1094.5 464.2,1099.5 462.6,1104.5 461.1,1109.5 459.5,1114.5 458.0,1119.4 456.5,1124.4 455.0,1129.4 453.6,1134.4 452.1,1139.4 450.7,1144.3 449.3,1149.3 448.0,1154.3 446.6,1159.3 445.3,1164.3 444.0,1169.2 442.7,1174.2 441.5,1179.2 440.2,1184.2 439.0,1189.2 437.8,1194.1 436.7,1199.1 435.7,1204.1 434.8,1209.1 433.9,1214.1 433.0,1219.0 432.1,1224.0 431.1,1229.0 430.1,1234.0 429.2,1239.0 428.2,1243.9 427.3,1248.9 426.4,1253.9 425.5,1258.9 424.6,1263.9 423.7,1268.8 422.9,1273.8 422.0,1278.8 421.2,1283.8 420.4,1288.8 419.5,1293.7 418.7,1298.7 418.0,1303.7 416.8,1308.7 415.3,1313.7 413.6,1318.6 411.9,1323.6 410.2,1328.6 408.5,1333.6 406.8,1338.6 405.0,1343.5 403.3,1348.5 401.6,1353.5 399.8,1358.5 398.0,1363.5 396.3,1368.4 394.5,1373.4 392.7,1378.4 390.9,1383.4 389.1,1388.4 387.3,1393.3 385.5,1398.3 383.7,1403.3 381.8,1408.3 380.7,1413.3 379.7,1418.2 378.6,1423.2 377.4,1428.2 376.3,1433.2 375.2,1438.2 374.1,1443.1 373.0,1448.1 371.9,1453.1 370.7,1458.1 369.6,1463.1 368.5,1468.0 367.3,1473.0 366.2,1478.0 365.0,1483.0 363.9,1488.0 363.1,1492.9 362.7,1497.9 362.2,1502.9 361.8,1507.9 361.4,1512.9 361.0,1517.8 360.6,1522.8 360.1,1527.8 359.7,1532.8 359.4,1537.8 359.0,1542.7 358.6,1547.7 358.2,1552.7 357.8,1557.7 358.0,1562.7 358.2,1567.6 358.4,1572.6 358.6,1577.6 358.8,1582.6 359.0,1587.6 359.2,1592.5 359.4,1597.5 359.6,1602.5 359.8,1607.5 360.0,1612.5 360.2,1617.4 360.4,1622.4 360.6,1627.4 360.8,1632.4 361.0,1637.4 361.2,1642.3 361.4,1647.3 361.7,1652.3 361.9,1657.3 362.1,1662.3 362.3,1667.2 362.6,1672.2 362.9,1677.2 363.2,1682.2 363.5,1687.2 363.8,1692.1 364.1,1697.1 364.4,1702.1 364.7,1707.1 365.1,1712.1 365.6,1717.0 366.0,1722.0 366.4,1727.0 366.8,1732.0 367.2,1737.0 367.6,1741.9 368.1,1746.9 368.5,1751.9 368.9,1756.9 369.3,1761.9 369.8,1766.8 370.2,1771.8 370.6,1776.8 371.1,1781.8 371.5,1786.8 371.9,1791.7 372.4,1796.7 372.8,1801.7 373.2,1806.7 373.7,1811.7 374.1,1816.6 374.5,1821.6 375.0,1826.6 375.4,1831.6 375.9,1836.6 376.3,1841.5 376.8,1846.5 377.2,1851.5 377.6,1856.5 378.0,1861.5 378.4,1866.4 378.8,1871.4 379.3,1876.4 379.7,1881.4 380.1,1886.4 380.5,1891.3 380.9,1896.3 381.3,1901.3 381.8,1906.3 382.2,1911.3 382.6,1916.2 383.0,1921.2 383.5,1926.2 383.9,1931.2 384.3,1936.2 384.7,1941.1 385.2,1946.1 385.6,1951.1 386.0,1956.1 386.5,1961.1 386.9,1966.0 387.3,1971.0 387.8,1976.0" fill="none" stroke="#ddcc22" stroke-width="2" stroke-linecap="round"/>
<text x="1096.9568176521807" y="476.9999999999999" font-size="11" fill="#ddcc22" font-family="monospace" font-weight="bold">L4</text>
<polyline points="1104.7,554.0 918.0,568.2 730.1,582.4" fill="none" stroke="#00ee00" stroke-width="3.5" stroke-linecap="round"/>
<line x1="655" y1="592" x2="432" y2="2174" stroke="#00ee00" stroke-width="3.5" stroke-linecap="round"/>
<text x="665.3647763072939" y="583.92" font-size="13" fill="#00ee00" font-family="monospace" font-weight="bold">L5 = Y (WARP)</text>
<polyline points="1066.5,626.0 1056.6,630.5 1046.8,635.0 1036.9,639.5 1027.1,644.0 1017.4,648.5 1007.6,653.0 998.0,657.5 988.3,662.0 978.7,666.5 969.2,671.0 959.8,675.5 950.4,680.0 941.1,684.5 931.9,689.0 922.8,693.5 914.1,698.0 905.5,702.5 897.1,707.0 888.7,711.5 880.3,716.0 876.0,720.5 871.7,725.0 867.4,729.5 863.1,734.0 858.9,738.5 854.7,743.0 850.5,747.5 846.4,752.0 842.3,756.5 838.2,761.0 834.1,765.5 830.1,770.0 826.1,774.5 822.2,779.0 818.3,783.5 814.4,788.0 810.9,792.5 807.5,797.0 804.0,801.5 800.7,806.0 797.3,810.5 794.0,815.0 790.7,819.5 787.4,824.0 784.2,828.5 781.0,833.0 777.9,837.5 774.7,842.0 771.6,846.5 768.6,851.0 765.5,855.5 762.5,860.0 759.9,864.5 757.3,869.0 754.8,873.5 752.2,878.0 749.7,882.5 747.1,887.0 744.6,891.5 742.2,896.0 739.7,900.5 737.2,905.0 734.8,909.5 732.4,914.0 730.0,918.5 727.6,923.0 725.8,927.5 724.1,932.0 722.3,936.5 720.5,941.0 718.8,945.5 717.0,950.0 715.3,954.5 713.6,959.0 711.9,963.5 710.2,968.0 708.5,972.5 706.8,977.0 705.1,981.5 703.5,986.0 701.8,990.5 700.2,995.0 698.5,999.5 696.9,1004.0 695.3,1008.5 693.7,1013.0 692.1,1017.5 690.5,1022.0 688.9,1026.5 687.4,1031.0 685.8,1035.5 684.3,1040.0 682.6,1044.5 681.0,1049.0 679.4,1053.5 677.7,1058.0 676.1,1062.5 674.5,1067.0 672.9,1071.5 671.3,1076.0 669.7,1080.5 668.1,1085.0 666.5,1089.5 664.9,1094.0 663.3,1098.5 662.0,1103.0 660.6,1107.5 659.2,1112.0 657.9,1116.5 656.5,1121.0 655.2,1125.5 653.8,1130.0 652.5,1134.5 651.2,1139.0 649.8,1143.5 648.5,1148.0 647.2,1152.5 645.9,1157.0 644.5,1161.5 643.2,1166.0 641.9,1170.5 640.6,1175.0 639.3,1179.5 638.0,1184.0 636.7,1188.5 635.4,1193.0 634.1,1197.5 632.9,1202.0 631.6,1206.5 630.3,1211.0 629.0,1215.5 627.8,1220.0 626.8,1224.5 625.9,1229.0 625.0,1233.5 624.0,1238.0 623.1,1242.5 622.2,1247.0 621.3,1251.5 620.4,1256.0 619.4,1260.5 618.5,1265.0 617.6,1269.5 616.7,1274.0 615.8,1278.5 614.9,1283.0 614.0,1287.5 613.1,1292.0 612.2,1296.5 611.3,1301.0 610.5,1305.5 609.7,1310.0 609.8,1314.5 610.0,1319.0 610.1,1323.5 610.3,1328.0 610.4,1332.5 610.6,1337.0 610.7,1341.5 610.8,1346.0 611.0,1350.5 611.1,1355.0 611.2,1359.5 611.4,1364.0 611.5,1368.5 611.7,1373.0 611.8,1377.5 611.9,1382.0 612.1,1386.5 612.2,1391.0 612.3,1395.5 612.4,1400.0 612.6,1404.5 612.7,1409.0 612.8,1413.5 613.0,1418.0 613.1,1422.5 613.2,1427.0 613.3,1431.5 613.5,1436.0 613.6,1440.5 613.7,1445.0 613.8,1449.5 613.9,1454.0 614.1,1458.5 614.2,1463.0 614.3,1467.5 614.4,1472.0 614.5,1476.5 614.6,1481.0 614.7,1485.5 614.9,1490.0 614.2,1494.5 613.6,1499.0 613.0,1503.5 612.5,1508.0 611.9,1512.5 611.3,1517.0 610.8,1521.5 610.2,1526.0 609.7,1530.5 609.1,1535.0 608.6,1539.5 608.0,1544.0 607.5,1548.5 607.0,1553.0 606.4,1557.5 605.9,1562.0 605.3,1566.5 604.8,1571.0 604.2,1575.5 603.7,1580.0 603.2,1584.5 602.6,1589.0 602.1,1593.5 601.5,1598.0 601.0,1602.5 600.5,1607.0 599.9,1611.5 599.4,1616.0 598.9,1620.5 598.3,1625.0 597.8,1629.5 597.3,1634.0 596.7,1638.5 596.2,1643.0 595.7,1647.5 595.2,1652.0 594.6,1656.5 594.1,1661.0 593.6,1665.5 593.1,1670.0 592.5,1674.5 591.9,1679.0 591.3,1683.5 590.8,1688.0 590.2,1692.5 589.7,1697.0 589.2,1701.5 588.6,1706.0 588.1,1710.5 587.5,1715.0 587.0,1719.5 586.4,1724.0 585.9,1728.5 585.4,1733.0 584.8,1737.5 584.3,1742.0 583.7,1746.5 583.2,1751.0 582.7,1755.5 582.1,1760.0 581.6,1764.5 581.1,1769.0 580.5,1773.5 580.0,1778.0 579.5,1782.5 578.9,1787.0 578.4,1791.5 577.9,1796.0 577.3,1800.5 576.8,1805.0 576.3,1809.5 575.8,1814.0 575.2,1818.5 574.7,1823.0 574.2,1827.5 573.7,1832.0 573.1,1836.5 572.6,1841.0 572.1,1845.5 571.5,1850.0 571.1,1854.5 570.6,1859.0 570.1,1863.5 569.6,1868.0 569.1,1872.5 568.6,1877.0 568.2,1881.5 567.7,1886.0 567.2,1890.5 566.7,1895.0 566.2,1899.5 565.8,1904.0 565.3,1908.5 564.8,1913.0 564.3,1917.5 563.8,1922.0 563.4,1926.5 562.9,1931.0 562.4,1935.5 562.0,1940.0 561.5,1944.5 561.0,1949.0 560.5,1953.5 560.1,1958.0 559.6,1962.5 559.1,1967.0 558.7,1971.5 558.2,1976.0" fill="none" stroke="#ee7788" stroke-width="2" stroke-linecap="round"/>
<text x="1071.5099171581035" y="621.0" font-size="11" fill="#ee7788" font-family="monospace" font-weight="bold">S1</text>
<polyline points="982.5,680.0 978.3,681.9 974.1,683.8 969.9,685.8 965.7,687.7 961.5,689.6 957.3,691.5 953.1,693.4 949.0,695.4 944.8,697.3 940.7,699.2 936.6,701.1 932.4,703.0 928.3,705.0 924.2,706.9 920.2,708.8 916.1,710.7 912.0,712.6 908.0,714.6 904.8,716.5 903.0,718.4 901.2,720.3 899.5,722.2 897.7,724.2 895.9,726.1 894.1,728.0 892.3,729.9 890.6,731.8 888.8,733.8 887.0,735.7 885.3,737.6 883.5,739.5 881.8,741.4 880.0,743.4 878.3,745.3 876.5,747.2 874.8,749.1 873.0,751.0 871.3,753.0 869.6,754.9 867.8,756.8 866.1,758.7 864.4,760.6 862.7,762.6 861.0,764.5 859.3,766.4 858.1,768.3 856.9,770.2 855.7,772.2 854.5,774.1 853.3,776.0 852.1,777.9 850.9,779.8 849.8,781.8 848.6,783.7 847.4,785.6 846.2,787.5 845.0,789.4 843.9,791.4 842.7,793.3 841.5,795.2 840.4,797.1 839.2,799.0 838.0,801.0 836.9,802.9 835.7,804.8 834.5,806.7 833.4,808.6 832.2,810.6 831.1,812.5 829.9,814.4 828.8,816.3 827.6,818.2 826.5,820.2 825.3,822.1 824.2,824.0 823.1,825.9 821.9,827.8 820.8,829.8 819.6,831.7 818.5,833.6 817.4,835.5 816.3,837.4 815.1,839.4 814.0,841.3 813.3,843.2 812.7,845.1 812.0,847.0 811.3,849.0 810.6,850.9 809.9,852.8 809.3,854.7 808.6,856.6 807.9,858.6 807.3,860.5 806.8,862.4 806.4,864.3 805.9,866.2 805.5,868.2 805.0,870.1 804.6,872.0 804.1,873.9 803.7,875.8 803.2,877.8 802.8,879.7 802.3,881.6 801.9,883.5 801.4,885.4 801.0,887.4 800.5,889.3 800.1,891.2 799.6,893.1 799.1,895.0 798.7,897.0 798.2,898.9 797.8,900.8 797.3,902.7 796.8,904.6 796.4,906.6 795.9,908.5 795.4,910.4 795.0,912.3 794.5,914.2 794.0,916.2 793.5,918.1 793.1,920.0 792.6,921.9 792.5,923.8 792.4,925.8 792.3,927.7 792.2,929.6 792.1,931.5 791.9,933.4 791.8,935.4 791.7,937.3 791.6,939.2 791.4,941.1 791.3,943.0 791.2,945.0 791.0,946.9 790.9,948.8 790.8,950.7 790.6,952.6 790.4,954.6 790.3,956.5 790.1,958.4 790.0,960.3 789.8,962.2 789.6,964.2 789.5,966.1 789.3,968.0 789.1,969.9 788.9,971.8 788.8,973.8 788.6,975.7 788.4,977.6 788.2,979.5 788.0,981.4 787.8,983.4 787.6,985.3 787.4,987.2 787.2,989.1 787.0,991.0 786.8,993.0 786.5,994.9 786.3,996.8 786.1,998.7 785.9,1000.6 785.6,1002.6 786.1,1004.5 786.5,1006.4 786.9,1008.3 787.3,1010.2 787.7,1012.2 788.1,1014.1 787.4,1016.0 786.6,1017.9 785.9,1019.8 785.2,1021.8 784.4,1023.7 783.7,1025.6 782.9,1027.5 782.2,1029.4 781.4,1031.4 780.7,1033.3 780.0,1035.2 779.2,1037.1 778.5,1039.0 777.8,1041.0 777.1,1042.9 776.4,1044.8 775.7,1046.7 775.1,1048.6 774.4,1050.6 773.7,1052.5 773.0,1054.4 772.3,1056.3 771.7,1058.2 771.0,1060.2 770.3,1062.1 769.6,1064.0 769.0,1065.9 768.3,1067.8 767.6,1069.8 766.9,1071.7 766.2,1073.6 765.6,1075.5 764.9,1077.4 764.2,1079.4 763.5,1081.3 762.8,1083.2 762.2,1085.1 761.5,1087.0 760.8,1089.0 760.1,1090.9 759.5,1092.8 758.8,1094.7 758.1,1096.6 757.4,1098.6 756.7,1100.5 756.1,1102.4 755.4,1104.3 754.7,1106.2 754.0,1108.2 753.3,1110.1 752.7,1112.0 752.0,1113.9 751.3,1115.8 750.6,1117.8 750.0,1119.7 749.3,1121.6 748.6,1123.5 747.9,1125.4 747.2,1127.4 746.6,1129.3 745.9,1131.2 745.2,1133.1 744.5,1135.0 743.8,1137.0 743.2,1138.9 742.5,1140.8 741.8,1142.7 741.1,1144.6 740.5,1146.6 739.8,1148.5 739.1,1150.4 738.4,1152.3 737.7,1154.2 737.1,1156.2 736.4,1158.1 735.7,1160.0 735.0,1161.9 734.3,1163.8 733.7,1165.8 733.0,1167.7 732.3,1169.6 731.6,1171.5 731.0,1173.4 730.3,1175.4 729.6,1177.3 728.9,1179.2 728.2,1181.1 727.6,1183.0 726.9,1185.0 726.2,1186.9 725.5,1188.8 724.8,1190.7 724.2,1192.6 723.5,1194.6 722.8,1196.5 722.1,1198.4 721.4,1200.3 720.8,1202.2 720.1,1204.2 719.4,1206.1 718.7,1208.0 718.1,1209.9 717.4,1211.8 716.7,1213.8 716.0,1215.7 715.3,1217.6 714.7,1219.5 714.2,1221.4 713.7,1223.4 713.3,1225.3 712.8,1227.2 712.3,1229.1 711.9,1231.0 711.4,1233.0 711.0,1234.9 710.5,1236.8 710.1,1238.7 709.6,1240.6 709.2,1242.6 708.7,1244.5 708.3,1246.4 707.8,1248.3 707.4,1250.2 706.9,1252.2 706.5,1254.1" fill="none" stroke="#4466cc" stroke-width="2" stroke-linecap="round"/>
<text x="987.5351455276483" y="674.9999999999999" font-size="11" fill="#4466cc" font-family="monospace" font-weight="bold">S2</text>
<polyline points="78.3,554.0 79.8,559.0 81.3,564.0 82.7,568.9 84.2,573.9 85.7,578.9 87.1,583.9 88.6,588.9 90.1,593.8 91.5,598.8 93.0,603.8 94.5,608.8 95.9,613.8 97.4,618.7 98.9,623.7 100.2,628.7 101.3,633.7 102.5,638.7 103.7,643.6 104.9,648.6 106.0,653.6 107.2,658.6 108.4,663.6 109.6,668.5 110.7,673.5 111.9,678.5 113.1,683.5 114.2,688.5 115.4,693.4 116.6,698.4 117.8,703.4 118.9,708.4 120.1,713.4 121.1,718.3 121.8,723.3 122.5,728.3 123.3,733.3 124.0,738.3 124.7,743.2 125.5,748.2 126.2,753.2 126.9,758.2 127.7,763.2 128.4,768.1 129.1,773.1 129.9,778.1 130.6,783.1 131.3,788.1 132.1,793.0 132.8,798.0 133.5,803.0 134.3,808.0 135.0,813.0 135.7,817.9 136.5,822.9 137.2,827.9 137.9,832.9 138.7,837.9 139.4,842.8 140.1,847.8 140.9,852.8 141.6,857.8 142.6,862.8 143.8,867.7 144.9,872.7 146.1,877.7 147.3,882.7 148.5,887.7 149.6,892.6 150.8,897.6 152.0,902.6 153.1,907.6 154.3,912.6 155.5,917.5 156.7,922.5 157.8,927.5 159.0,932.5 160.2,937.5 161.4,942.4 162.5,947.4 163.7,952.4 164.9,957.4 166.1,962.4 167.2,967.3 168.4,972.3 169.6,977.3 170.8,982.3 171.9,987.3 173.1,992.2 174.3,997.2 175.4,1002.2 176.6,1007.2 177.8,1012.2 179.0,1017.1 180.1,1022.1 181.3,1027.1 182.5,1032.1 183.7,1037.1 185.1,1042.0 186.8,1047.0 188.6,1052.0 190.4,1057.0 192.1,1062.0 193.9,1066.9 195.6,1071.9 197.4,1076.9 199.2,1081.9 200.9,1086.9 202.7,1091.8 204.4,1096.8 206.2,1101.8 208.0,1106.8 209.7,1111.8 211.5,1116.7 213.2,1121.7 215.0,1126.7 216.8,1131.7 218.5,1136.7 220.3,1141.6 222.0,1146.6 223.8,1151.6 225.6,1156.6 227.3,1161.6 229.1,1166.5 230.8,1171.5 232.6,1176.5 234.4,1181.5 236.1,1186.5 237.9,1191.4 239.6,1196.4 241.4,1201.4 243.2,1206.4 244.9,1211.4 246.7,1216.3 248.3,1221.3 249.5,1226.3 250.6,1231.3 251.8,1236.3 253.0,1241.2 254.1,1246.2 255.3,1251.2 256.5,1256.2 257.7,1261.2 258.8,1266.1 260.0,1271.1 261.2,1276.1 262.4,1281.1 263.5,1286.1 264.7,1291.0 265.9,1296.0 267.1,1301.0 268.2,1306.0 269.1,1311.0 268.5,1315.9 267.9,1320.9 267.3,1325.9 266.7,1330.9 266.1,1335.9 265.5,1340.8 265.0,1345.8 264.4,1350.8 263.8,1355.8 263.2,1360.8 262.6,1365.7 262.0,1370.7 261.4,1375.7 260.8,1380.7 260.3,1385.7 259.7,1390.6 259.1,1395.6 258.5,1400.6 257.9,1405.6 257.3,1410.6 256.7,1415.5 256.2,1420.5 255.6,1425.5 255.0,1430.5 254.4,1435.5 253.8,1440.4 253.2,1445.4 252.6,1450.4 252.0,1455.4 251.5,1460.4 250.9,1465.3 250.3,1470.3 249.7,1475.3 249.1,1480.3 248.5,1485.3 248.0,1490.2 248.8,1495.2 249.7,1500.2 250.5,1505.2 251.3,1510.2 252.1,1515.1 252.9,1520.1 253.8,1525.1 254.6,1530.1 255.4,1535.1 256.2,1540.0 257.0,1545.0 257.9,1550.0 258.7,1555.0 259.5,1560.0 260.3,1564.9 261.1,1569.9 262.0,1574.9 262.8,1579.9 263.6,1584.9 264.4,1589.8 265.3,1594.8 266.1,1599.8 266.9,1604.8 267.7,1609.8 268.5,1614.7 269.4,1619.7 270.2,1624.7 271.0,1629.7 271.8,1634.7 272.6,1639.6 273.5,1644.6 274.3,1649.6 275.1,1654.6 275.9,1659.6 276.8,1664.5 277.6,1669.5 278.5,1674.5 279.4,1679.5 280.4,1684.5 281.3,1689.4 282.3,1694.4 283.2,1699.4 284.1,1704.4 285.1,1709.4 286.0,1714.3 287.0,1719.3 287.9,1724.3 288.8,1729.3 289.8,1734.3 290.7,1739.2 291.6,1744.2 292.6,1749.2 293.5,1754.2 294.5,1759.2 295.4,1764.1 296.3,1769.1 297.3,1774.1 298.2,1779.1 299.2,1784.1 300.1,1789.0 301.0,1794.0 302.0,1799.0 302.9,1804.0 303.8,1809.0 304.8,1813.9 305.7,1818.9 306.7,1823.9 307.6,1828.9 308.5,1833.9 309.5,1838.8 310.4,1843.8 311.4,1848.8 312.2,1853.8 313.1,1858.8 313.9,1863.7 314.7,1868.7 315.6,1873.7 316.4,1878.7 317.3,1883.7 318.1,1888.6 318.9,1893.6 319.8,1898.6 320.6,1903.6 321.4,1908.6 322.3,1913.5 323.1,1918.5 324.0,1923.5 324.8,1928.5 325.6,1933.5 326.5,1938.4 327.3,1943.4 328.1,1948.4 329.0,1953.4 329.8,1958.4 330.7,1963.3 331.5,1968.3 332.3,1973.3 332.8,1978.3 332.8,1983.3 332.8,1988.2 332.8,1993.2 332.8,1998.2 332.8,2003.2 332.8,2008.2 332.8,2013.1 332.8,2018.1 332.8,2023.1 332.8,2028.1 332.8,2033.1 332.8,2038.0 332.8,2043.0 332.8,2048.0" fill="none" stroke="#ee2222" stroke-width="1.5" stroke-linecap="round"/>
<text x="83.32194797143393" y="549.0" font-size="11" fill="#ee2222" font-family="monospace" font-weight="bold">SEAM</text>
<line x1="953" y1="584" x2="953" y2="596" stroke="#888888" stroke-width="1"/>
<text x="953.0591524553419" y="610" text-anchor="middle" font-size="9" fill="#888888" font-family="monospace">0°</text>
<text x="953.0591524553419" y="621" text-anchor="middle" font-size="8" fill="#666666" font-family="monospace">Spine</text>
<line x1="769" y1="584" x2="769" y2="596" stroke="#888888" stroke-width="1"/>
<line x1="612" y1="584" x2="612" y2="596" stroke="#888888" stroke-width="1"/>
<text x="612.0" y="610" text-anchor="middle" font-size="9" fill="#888888" font-family="monospace">90°</text>
<text x="612.0" y="621" text-anchor="middle" font-size="8" fill="#666666" font-family="monospace">Lateral</text>
<line x1="481" y1="584" x2="481" y2="596" stroke="#888888" stroke-width="1"/>
<line x1="350" y1="584" x2="350" y2="596" stroke="#888888" stroke-width="1"/>
<text x="350.46241158864973" y="610" text-anchor="middle" font-size="9" fill="#888888" font-family="monospace">180°</text>
<text x="350.46241158864973" y="621" text-anchor="middle" font-size="8" fill="#666666" font-family="monospace">Anterior</text>
<line x1="220" y1="584" x2="220" y2="596" stroke="#888888" stroke-width="1"/>
<line x1="89" y1="584" x2="89" y2="596" stroke="#888888" stroke-width="1"/>
<text x="88.92482317729946" y="610" text-anchor="middle" font-size="9" fill="#888888" font-family="monospace">270°</text>
<text x="88.92482317729946" y="621" text-anchor="middle" font-size="8" fill="#666666" font-family="monospace">Seam</text>
<rect x="1075" y="2142" width="15" height="3" fill="#ee2222"/>
<text x="1095" y="2147" font-size="10" fill="#ee2222" font-family="monospace">SEAM</text>
<rect x="1075" y="2126" width="15" height="3" fill="#4466cc"/>
<text x="1095" y="2131" font-size="10" fill="#4466cc" font-family="monospace">S2</text>
<rect x="1075" y="2110" width="15" height="3" fill="#ee7788"/>
<text x="1095" y="2115" font-size="10" fill="#ee7788" font-family="monospace">S1</text>
<rect x="1075" y="2094" width="15" height="3" fill="#00ee00"/>
<text x="1095" y="2099" font-size="10" fill="#00ee00" font-family="monospace">L5</text>
<rect x="1075" y="2078" width="15" height="3" fill="#ddcc22"/>
<text x="1095" y="2083" font-size="10" fill="#ddcc22" font-family="monospace">L4</text>
<rect x="1075" y="2062" width="15" height="3" fill="#dd5555"/>
<text x="1095" y="2067" font-size="10" fill="#dd5555" font-family="monospace">L3</text>
<rect x="1075" y="2046" width="15" height="3" fill="#6699dd"/>
<text x="1095" y="2051" font-size="10" fill="#6699dd" font-family="monospace">L2</text>
<rect x="1075" y="2030" width="15" height="3" fill="#88bbee"/>
<text x="1095" y="2035" font-size="10" fill="#88bbee" font-family="monospace">L1</text>
<rect x="1075" y="2014" width="15" height="3" fill="#777777"/>
<text x="1095" y="2019" font-size="10" fill="#777777" font-family="monospace">T12</text>
<rect x="1075" y="1998" width="15" height="3" fill="#999999"/>
<text x="1095" y="2003" font-size="10" fill="#999999" font-family="monospace">T11</text>
<text x="602" y="22" text-anchor="middle" font-size="15" fill="#ffffff" font-family="monospace">RIGHT LEG — Anchored at Lateral Hip</text>
<text x="602" y="38" text-anchor="middle" font-size="10" fill="#888888" font-family="monospace">X=WEFT (horizontal) | Y=WARP (vertical) | Origin=Lateral Hip (90°)</text>
</svg>